G04 #@! TF.GenerationSoftware,KiCad,Pcbnew,(5.1.5)-3*
G04 #@! TF.CreationDate,2021-05-10T18:35:56+02:00*
G04 #@! TF.ProjectId,kicad,6b696361-642e-46b6-9963-61645f706362,rev?*
G04 #@! TF.SameCoordinates,Original*
G04 #@! TF.FileFunction,Legend,Top*
G04 #@! TF.FilePolarity,Positive*
%FSLAX46Y46*%
G04 Gerber Fmt 4.6, Leading zero omitted, Abs format (unit mm)*
G04 Created by KiCad (PCBNEW (5.1.5)-3) date 2021-05-10 18:35:56*
%MOMM*%
%LPD*%
G04 APERTURE LIST*
%ADD10C,0.120000*%
%ADD11C,0.150000*%
G04 APERTURE END LIST*
D10*
X68460000Y-83455000D02*
X68460000Y-86545000D01*
X73520000Y-85000000D02*
G75*
G03X73520000Y-85000000I-2500000J0D01*
G01*
X74010000Y-84999538D02*
G75*
G02X68460000Y-86544830I-2990000J-462D01*
G01*
X74010000Y-85000462D02*
G75*
G03X68460000Y-83455170I-2990000J462D01*
G01*
X87460000Y-80455000D02*
X87460000Y-83545000D01*
X92520000Y-82000000D02*
G75*
G03X92520000Y-82000000I-2500000J0D01*
G01*
X93010000Y-81999538D02*
G75*
G02X87460000Y-83544830I-2990000J-462D01*
G01*
X93010000Y-82000462D02*
G75*
G03X87460000Y-80455170I-2990000J462D01*
G01*
X72460000Y-99455000D02*
X72460000Y-102545000D01*
X77520000Y-101000000D02*
G75*
G03X77520000Y-101000000I-2500000J0D01*
G01*
X78010000Y-100999538D02*
G75*
G02X72460000Y-102544830I-2990000J-462D01*
G01*
X78010000Y-101000462D02*
G75*
G03X72460000Y-99455170I-2990000J462D01*
G01*
X78460000Y-88455000D02*
X78460000Y-91545000D01*
X83520000Y-90000000D02*
G75*
G03X83520000Y-90000000I-2500000J0D01*
G01*
X84010000Y-89999538D02*
G75*
G02X78460000Y-91544830I-2990000J-462D01*
G01*
X84010000Y-90000462D02*
G75*
G03X78460000Y-88455170I-2990000J462D01*
G01*
X78460000Y-138455000D02*
X78460000Y-141545000D01*
X83520000Y-140000000D02*
G75*
G03X83520000Y-140000000I-2500000J0D01*
G01*
X84010000Y-139999538D02*
G75*
G02X78460000Y-141544830I-2990000J-462D01*
G01*
X84010000Y-140000462D02*
G75*
G03X78460000Y-138455170I-2990000J462D01*
G01*
X72460000Y-127955000D02*
X72460000Y-131045000D01*
X77520000Y-129500000D02*
G75*
G03X77520000Y-129500000I-2500000J0D01*
G01*
X78010000Y-129499538D02*
G75*
G02X72460000Y-131044830I-2990000J-462D01*
G01*
X78010000Y-129500462D02*
G75*
G03X72460000Y-127955170I-2990000J462D01*
G01*
X87460000Y-146455000D02*
X87460000Y-149545000D01*
X92520000Y-148000000D02*
G75*
G03X92520000Y-148000000I-2500000J0D01*
G01*
X93010000Y-147999538D02*
G75*
G02X87460000Y-149544830I-2990000J-462D01*
G01*
X93010000Y-148000462D02*
G75*
G03X87460000Y-146455170I-2990000J462D01*
G01*
X68460000Y-143455000D02*
X68460000Y-146545000D01*
X73520000Y-145000000D02*
G75*
G03X73520000Y-145000000I-2500000J0D01*
G01*
X74010000Y-144999538D02*
G75*
G02X68460000Y-146544830I-2990000J-462D01*
G01*
X74010000Y-145000462D02*
G75*
G03X68460000Y-143455170I-2990000J462D01*
G01*
X194460000Y-143455000D02*
X194460000Y-146545000D01*
X199520000Y-145000000D02*
G75*
G03X199520000Y-145000000I-2500000J0D01*
G01*
X200010000Y-144999538D02*
G75*
G02X194460000Y-146544830I-2990000J-462D01*
G01*
X200010000Y-145000462D02*
G75*
G03X194460000Y-143455170I-2990000J462D01*
G01*
X175460000Y-146455000D02*
X175460000Y-149545000D01*
X180520000Y-148000000D02*
G75*
G03X180520000Y-148000000I-2500000J0D01*
G01*
X181010000Y-147999538D02*
G75*
G02X175460000Y-149544830I-2990000J-462D01*
G01*
X181010000Y-148000462D02*
G75*
G03X175460000Y-146455170I-2990000J462D01*
G01*
X190460000Y-127455000D02*
X190460000Y-130545000D01*
X195520000Y-129000000D02*
G75*
G03X195520000Y-129000000I-2500000J0D01*
G01*
X196010000Y-128999538D02*
G75*
G02X190460000Y-130544830I-2990000J-462D01*
G01*
X196010000Y-129000462D02*
G75*
G03X190460000Y-127455170I-2990000J462D01*
G01*
X184460000Y-138455000D02*
X184460000Y-141545000D01*
X189520000Y-140000000D02*
G75*
G03X189520000Y-140000000I-2500000J0D01*
G01*
X190010000Y-139999538D02*
G75*
G02X184460000Y-141544830I-2990000J-462D01*
G01*
X190010000Y-140000462D02*
G75*
G03X184460000Y-138455170I-2990000J462D01*
G01*
X184460000Y-88455000D02*
X184460000Y-91545000D01*
X189520000Y-90000000D02*
G75*
G03X189520000Y-90000000I-2500000J0D01*
G01*
X190010000Y-89999538D02*
G75*
G02X184460000Y-91544830I-2990000J-462D01*
G01*
X190010000Y-90000462D02*
G75*
G03X184460000Y-88455170I-2990000J462D01*
G01*
X190460000Y-99455000D02*
X190460000Y-102545000D01*
X195520000Y-101000000D02*
G75*
G03X195520000Y-101000000I-2500000J0D01*
G01*
X196010000Y-100999538D02*
G75*
G02X190460000Y-102544830I-2990000J-462D01*
G01*
X196010000Y-101000462D02*
G75*
G03X190460000Y-99455170I-2990000J462D01*
G01*
X175460000Y-80455000D02*
X175460000Y-83545000D01*
X180520000Y-82000000D02*
G75*
G03X180520000Y-82000000I-2500000J0D01*
G01*
X181010000Y-81999538D02*
G75*
G02X175460000Y-83544830I-2990000J-462D01*
G01*
X181010000Y-82000462D02*
G75*
G03X175460000Y-80455170I-2990000J462D01*
G01*
X194920000Y-83455000D02*
X194920000Y-86545000D01*
X199980000Y-85000000D02*
G75*
G03X199980000Y-85000000I-2500000J0D01*
G01*
X200470000Y-84999538D02*
G75*
G02X194920000Y-86544830I-2990000J-462D01*
G01*
X200470000Y-85000462D02*
G75*
G03X194920000Y-83455170I-2990000J462D01*
G01*
D11*
X69805714Y-81492380D02*
X69805714Y-80492380D01*
X70043809Y-80492380D01*
X70186666Y-80540000D01*
X70281904Y-80635238D01*
X70329523Y-80730476D01*
X70377142Y-80920952D01*
X70377142Y-81063809D01*
X70329523Y-81254285D01*
X70281904Y-81349523D01*
X70186666Y-81444761D01*
X70043809Y-81492380D01*
X69805714Y-81492380D01*
X71329523Y-81492380D02*
X70758095Y-81492380D01*
X71043809Y-81492380D02*
X71043809Y-80492380D01*
X70948571Y-80635238D01*
X70853333Y-80730476D01*
X70758095Y-80778095D01*
X72186666Y-80492380D02*
X71996190Y-80492380D01*
X71900952Y-80540000D01*
X71853333Y-80587619D01*
X71758095Y-80730476D01*
X71710476Y-80920952D01*
X71710476Y-81301904D01*
X71758095Y-81397142D01*
X71805714Y-81444761D01*
X71900952Y-81492380D01*
X72091428Y-81492380D01*
X72186666Y-81444761D01*
X72234285Y-81397142D01*
X72281904Y-81301904D01*
X72281904Y-81063809D01*
X72234285Y-80968571D01*
X72186666Y-80920952D01*
X72091428Y-80873333D01*
X71900952Y-80873333D01*
X71805714Y-80920952D01*
X71758095Y-80968571D01*
X71710476Y-81063809D01*
X88805714Y-78492380D02*
X88805714Y-77492380D01*
X89043809Y-77492380D01*
X89186666Y-77540000D01*
X89281904Y-77635238D01*
X89329523Y-77730476D01*
X89377142Y-77920952D01*
X89377142Y-78063809D01*
X89329523Y-78254285D01*
X89281904Y-78349523D01*
X89186666Y-78444761D01*
X89043809Y-78492380D01*
X88805714Y-78492380D01*
X90329523Y-78492380D02*
X89758095Y-78492380D01*
X90043809Y-78492380D02*
X90043809Y-77492380D01*
X89948571Y-77635238D01*
X89853333Y-77730476D01*
X89758095Y-77778095D01*
X91234285Y-77492380D02*
X90758095Y-77492380D01*
X90710476Y-77968571D01*
X90758095Y-77920952D01*
X90853333Y-77873333D01*
X91091428Y-77873333D01*
X91186666Y-77920952D01*
X91234285Y-77968571D01*
X91281904Y-78063809D01*
X91281904Y-78301904D01*
X91234285Y-78397142D01*
X91186666Y-78444761D01*
X91091428Y-78492380D01*
X90853333Y-78492380D01*
X90758095Y-78444761D01*
X90710476Y-78397142D01*
X73805714Y-97492380D02*
X73805714Y-96492380D01*
X74043809Y-96492380D01*
X74186666Y-96540000D01*
X74281904Y-96635238D01*
X74329523Y-96730476D01*
X74377142Y-96920952D01*
X74377142Y-97063809D01*
X74329523Y-97254285D01*
X74281904Y-97349523D01*
X74186666Y-97444761D01*
X74043809Y-97492380D01*
X73805714Y-97492380D01*
X75329523Y-97492380D02*
X74758095Y-97492380D01*
X75043809Y-97492380D02*
X75043809Y-96492380D01*
X74948571Y-96635238D01*
X74853333Y-96730476D01*
X74758095Y-96778095D01*
X76186666Y-96825714D02*
X76186666Y-97492380D01*
X75948571Y-96444761D02*
X75710476Y-97159047D01*
X76329523Y-97159047D01*
X79805714Y-86492380D02*
X79805714Y-85492380D01*
X80043809Y-85492380D01*
X80186666Y-85540000D01*
X80281904Y-85635238D01*
X80329523Y-85730476D01*
X80377142Y-85920952D01*
X80377142Y-86063809D01*
X80329523Y-86254285D01*
X80281904Y-86349523D01*
X80186666Y-86444761D01*
X80043809Y-86492380D01*
X79805714Y-86492380D01*
X81329523Y-86492380D02*
X80758095Y-86492380D01*
X81043809Y-86492380D02*
X81043809Y-85492380D01*
X80948571Y-85635238D01*
X80853333Y-85730476D01*
X80758095Y-85778095D01*
X81662857Y-85492380D02*
X82281904Y-85492380D01*
X81948571Y-85873333D01*
X82091428Y-85873333D01*
X82186666Y-85920952D01*
X82234285Y-85968571D01*
X82281904Y-86063809D01*
X82281904Y-86301904D01*
X82234285Y-86397142D01*
X82186666Y-86444761D01*
X82091428Y-86492380D01*
X81805714Y-86492380D01*
X81710476Y-86444761D01*
X81662857Y-86397142D01*
X79805714Y-136492380D02*
X79805714Y-135492380D01*
X80043809Y-135492380D01*
X80186666Y-135540000D01*
X80281904Y-135635238D01*
X80329523Y-135730476D01*
X80377142Y-135920952D01*
X80377142Y-136063809D01*
X80329523Y-136254285D01*
X80281904Y-136349523D01*
X80186666Y-136444761D01*
X80043809Y-136492380D01*
X79805714Y-136492380D01*
X81329523Y-136492380D02*
X80758095Y-136492380D01*
X81043809Y-136492380D02*
X81043809Y-135492380D01*
X80948571Y-135635238D01*
X80853333Y-135730476D01*
X80758095Y-135778095D01*
X81710476Y-135587619D02*
X81758095Y-135540000D01*
X81853333Y-135492380D01*
X82091428Y-135492380D01*
X82186666Y-135540000D01*
X82234285Y-135587619D01*
X82281904Y-135682857D01*
X82281904Y-135778095D01*
X82234285Y-135920952D01*
X81662857Y-136492380D01*
X82281904Y-136492380D01*
X73805714Y-125992380D02*
X73805714Y-124992380D01*
X74043809Y-124992380D01*
X74186666Y-125040000D01*
X74281904Y-125135238D01*
X74329523Y-125230476D01*
X74377142Y-125420952D01*
X74377142Y-125563809D01*
X74329523Y-125754285D01*
X74281904Y-125849523D01*
X74186666Y-125944761D01*
X74043809Y-125992380D01*
X73805714Y-125992380D01*
X75329523Y-125992380D02*
X74758095Y-125992380D01*
X75043809Y-125992380D02*
X75043809Y-124992380D01*
X74948571Y-125135238D01*
X74853333Y-125230476D01*
X74758095Y-125278095D01*
X76281904Y-125992380D02*
X75710476Y-125992380D01*
X75996190Y-125992380D02*
X75996190Y-124992380D01*
X75900952Y-125135238D01*
X75805714Y-125230476D01*
X75710476Y-125278095D01*
X88805714Y-144492380D02*
X88805714Y-143492380D01*
X89043809Y-143492380D01*
X89186666Y-143540000D01*
X89281904Y-143635238D01*
X89329523Y-143730476D01*
X89377142Y-143920952D01*
X89377142Y-144063809D01*
X89329523Y-144254285D01*
X89281904Y-144349523D01*
X89186666Y-144444761D01*
X89043809Y-144492380D01*
X88805714Y-144492380D01*
X90329523Y-144492380D02*
X89758095Y-144492380D01*
X90043809Y-144492380D02*
X90043809Y-143492380D01*
X89948571Y-143635238D01*
X89853333Y-143730476D01*
X89758095Y-143778095D01*
X90948571Y-143492380D02*
X91043809Y-143492380D01*
X91139047Y-143540000D01*
X91186666Y-143587619D01*
X91234285Y-143682857D01*
X91281904Y-143873333D01*
X91281904Y-144111428D01*
X91234285Y-144301904D01*
X91186666Y-144397142D01*
X91139047Y-144444761D01*
X91043809Y-144492380D01*
X90948571Y-144492380D01*
X90853333Y-144444761D01*
X90805714Y-144397142D01*
X90758095Y-144301904D01*
X90710476Y-144111428D01*
X90710476Y-143873333D01*
X90758095Y-143682857D01*
X90805714Y-143587619D01*
X90853333Y-143540000D01*
X90948571Y-143492380D01*
X70281904Y-141492380D02*
X70281904Y-140492380D01*
X70520000Y-140492380D01*
X70662857Y-140540000D01*
X70758095Y-140635238D01*
X70805714Y-140730476D01*
X70853333Y-140920952D01*
X70853333Y-141063809D01*
X70805714Y-141254285D01*
X70758095Y-141349523D01*
X70662857Y-141444761D01*
X70520000Y-141492380D01*
X70281904Y-141492380D01*
X71329523Y-141492380D02*
X71520000Y-141492380D01*
X71615238Y-141444761D01*
X71662857Y-141397142D01*
X71758095Y-141254285D01*
X71805714Y-141063809D01*
X71805714Y-140682857D01*
X71758095Y-140587619D01*
X71710476Y-140540000D01*
X71615238Y-140492380D01*
X71424761Y-140492380D01*
X71329523Y-140540000D01*
X71281904Y-140587619D01*
X71234285Y-140682857D01*
X71234285Y-140920952D01*
X71281904Y-141016190D01*
X71329523Y-141063809D01*
X71424761Y-141111428D01*
X71615238Y-141111428D01*
X71710476Y-141063809D01*
X71758095Y-141016190D01*
X71805714Y-140920952D01*
X196281904Y-141492380D02*
X196281904Y-140492380D01*
X196520000Y-140492380D01*
X196662857Y-140540000D01*
X196758095Y-140635238D01*
X196805714Y-140730476D01*
X196853333Y-140920952D01*
X196853333Y-141063809D01*
X196805714Y-141254285D01*
X196758095Y-141349523D01*
X196662857Y-141444761D01*
X196520000Y-141492380D01*
X196281904Y-141492380D01*
X197424761Y-140920952D02*
X197329523Y-140873333D01*
X197281904Y-140825714D01*
X197234285Y-140730476D01*
X197234285Y-140682857D01*
X197281904Y-140587619D01*
X197329523Y-140540000D01*
X197424761Y-140492380D01*
X197615238Y-140492380D01*
X197710476Y-140540000D01*
X197758095Y-140587619D01*
X197805714Y-140682857D01*
X197805714Y-140730476D01*
X197758095Y-140825714D01*
X197710476Y-140873333D01*
X197615238Y-140920952D01*
X197424761Y-140920952D01*
X197329523Y-140968571D01*
X197281904Y-141016190D01*
X197234285Y-141111428D01*
X197234285Y-141301904D01*
X197281904Y-141397142D01*
X197329523Y-141444761D01*
X197424761Y-141492380D01*
X197615238Y-141492380D01*
X197710476Y-141444761D01*
X197758095Y-141397142D01*
X197805714Y-141301904D01*
X197805714Y-141111428D01*
X197758095Y-141016190D01*
X197710476Y-140968571D01*
X197615238Y-140920952D01*
X177281904Y-144492380D02*
X177281904Y-143492380D01*
X177520000Y-143492380D01*
X177662857Y-143540000D01*
X177758095Y-143635238D01*
X177805714Y-143730476D01*
X177853333Y-143920952D01*
X177853333Y-144063809D01*
X177805714Y-144254285D01*
X177758095Y-144349523D01*
X177662857Y-144444761D01*
X177520000Y-144492380D01*
X177281904Y-144492380D01*
X178186666Y-143492380D02*
X178853333Y-143492380D01*
X178424761Y-144492380D01*
X192281904Y-125492380D02*
X192281904Y-124492380D01*
X192520000Y-124492380D01*
X192662857Y-124540000D01*
X192758095Y-124635238D01*
X192805714Y-124730476D01*
X192853333Y-124920952D01*
X192853333Y-125063809D01*
X192805714Y-125254285D01*
X192758095Y-125349523D01*
X192662857Y-125444761D01*
X192520000Y-125492380D01*
X192281904Y-125492380D01*
X193710476Y-124492380D02*
X193520000Y-124492380D01*
X193424761Y-124540000D01*
X193377142Y-124587619D01*
X193281904Y-124730476D01*
X193234285Y-124920952D01*
X193234285Y-125301904D01*
X193281904Y-125397142D01*
X193329523Y-125444761D01*
X193424761Y-125492380D01*
X193615238Y-125492380D01*
X193710476Y-125444761D01*
X193758095Y-125397142D01*
X193805714Y-125301904D01*
X193805714Y-125063809D01*
X193758095Y-124968571D01*
X193710476Y-124920952D01*
X193615238Y-124873333D01*
X193424761Y-124873333D01*
X193329523Y-124920952D01*
X193281904Y-124968571D01*
X193234285Y-125063809D01*
X186281904Y-136492380D02*
X186281904Y-135492380D01*
X186520000Y-135492380D01*
X186662857Y-135540000D01*
X186758095Y-135635238D01*
X186805714Y-135730476D01*
X186853333Y-135920952D01*
X186853333Y-136063809D01*
X186805714Y-136254285D01*
X186758095Y-136349523D01*
X186662857Y-136444761D01*
X186520000Y-136492380D01*
X186281904Y-136492380D01*
X187758095Y-135492380D02*
X187281904Y-135492380D01*
X187234285Y-135968571D01*
X187281904Y-135920952D01*
X187377142Y-135873333D01*
X187615238Y-135873333D01*
X187710476Y-135920952D01*
X187758095Y-135968571D01*
X187805714Y-136063809D01*
X187805714Y-136301904D01*
X187758095Y-136397142D01*
X187710476Y-136444761D01*
X187615238Y-136492380D01*
X187377142Y-136492380D01*
X187281904Y-136444761D01*
X187234285Y-136397142D01*
X186281904Y-86492380D02*
X186281904Y-85492380D01*
X186520000Y-85492380D01*
X186662857Y-85540000D01*
X186758095Y-85635238D01*
X186805714Y-85730476D01*
X186853333Y-85920952D01*
X186853333Y-86063809D01*
X186805714Y-86254285D01*
X186758095Y-86349523D01*
X186662857Y-86444761D01*
X186520000Y-86492380D01*
X186281904Y-86492380D01*
X187710476Y-85825714D02*
X187710476Y-86492380D01*
X187472380Y-85444761D02*
X187234285Y-86159047D01*
X187853333Y-86159047D01*
X192281904Y-97492380D02*
X192281904Y-96492380D01*
X192520000Y-96492380D01*
X192662857Y-96540000D01*
X192758095Y-96635238D01*
X192805714Y-96730476D01*
X192853333Y-96920952D01*
X192853333Y-97063809D01*
X192805714Y-97254285D01*
X192758095Y-97349523D01*
X192662857Y-97444761D01*
X192520000Y-97492380D01*
X192281904Y-97492380D01*
X193186666Y-96492380D02*
X193805714Y-96492380D01*
X193472380Y-96873333D01*
X193615238Y-96873333D01*
X193710476Y-96920952D01*
X193758095Y-96968571D01*
X193805714Y-97063809D01*
X193805714Y-97301904D01*
X193758095Y-97397142D01*
X193710476Y-97444761D01*
X193615238Y-97492380D01*
X193329523Y-97492380D01*
X193234285Y-97444761D01*
X193186666Y-97397142D01*
X177281904Y-78492380D02*
X177281904Y-77492380D01*
X177520000Y-77492380D01*
X177662857Y-77540000D01*
X177758095Y-77635238D01*
X177805714Y-77730476D01*
X177853333Y-77920952D01*
X177853333Y-78063809D01*
X177805714Y-78254285D01*
X177758095Y-78349523D01*
X177662857Y-78444761D01*
X177520000Y-78492380D01*
X177281904Y-78492380D01*
X178234285Y-77587619D02*
X178281904Y-77540000D01*
X178377142Y-77492380D01*
X178615238Y-77492380D01*
X178710476Y-77540000D01*
X178758095Y-77587619D01*
X178805714Y-77682857D01*
X178805714Y-77778095D01*
X178758095Y-77920952D01*
X178186666Y-78492380D01*
X178805714Y-78492380D01*
X196741904Y-81492380D02*
X196741904Y-80492380D01*
X196980000Y-80492380D01*
X197122857Y-80540000D01*
X197218095Y-80635238D01*
X197265714Y-80730476D01*
X197313333Y-80920952D01*
X197313333Y-81063809D01*
X197265714Y-81254285D01*
X197218095Y-81349523D01*
X197122857Y-81444761D01*
X196980000Y-81492380D01*
X196741904Y-81492380D01*
X198265714Y-81492380D02*
X197694285Y-81492380D01*
X197980000Y-81492380D02*
X197980000Y-80492380D01*
X197884761Y-80635238D01*
X197789523Y-80730476D01*
X197694285Y-80778095D01*
M02*
