G04 #@! TF.GenerationSoftware,KiCad,Pcbnew,(5.1.5)-3*
G04 #@! TF.CreationDate,2021-05-10T18:35:56+02:00*
G04 #@! TF.ProjectId,kicad,6b696361-642e-46b6-9963-61645f706362,rev?*
G04 #@! TF.SameCoordinates,Original*
G04 #@! TF.FileFunction,Soldermask,Bot*
G04 #@! TF.FilePolarity,Negative*
%FSLAX46Y46*%
G04 Gerber Fmt 4.6, Leading zero omitted, Abs format (unit mm)*
G04 Created by KiCad (PCBNEW (5.1.5)-3) date 2021-05-10 18:35:56*
%MOMM*%
%LPD*%
G04 APERTURE LIST*
%ADD10C,0.100000*%
G04 APERTURE END LIST*
D10*
G36*
X179567395Y-147085546D02*
G01*
X179740466Y-147157234D01*
X179740467Y-147157235D01*
X179896227Y-147261310D01*
X180028690Y-147393773D01*
X180028691Y-147393775D01*
X180132766Y-147549534D01*
X180204454Y-147722605D01*
X180241000Y-147906333D01*
X180241000Y-148093667D01*
X180204454Y-148277395D01*
X180132766Y-148450466D01*
X180132765Y-148450467D01*
X180028690Y-148606227D01*
X179896227Y-148738690D01*
X179817818Y-148791081D01*
X179740466Y-148842766D01*
X179567395Y-148914454D01*
X179383667Y-148951000D01*
X179196333Y-148951000D01*
X179012605Y-148914454D01*
X178839534Y-148842766D01*
X178762182Y-148791081D01*
X178683773Y-148738690D01*
X178551310Y-148606227D01*
X178447235Y-148450467D01*
X178447234Y-148450466D01*
X178375546Y-148277395D01*
X178339000Y-148093667D01*
X178339000Y-147906333D01*
X178375546Y-147722605D01*
X178447234Y-147549534D01*
X178551309Y-147393775D01*
X178551310Y-147393773D01*
X178683773Y-147261310D01*
X178839533Y-147157235D01*
X178839534Y-147157234D01*
X179012605Y-147085546D01*
X179196333Y-147049000D01*
X179383667Y-147049000D01*
X179567395Y-147085546D01*
G37*
G36*
X177701000Y-148951000D02*
G01*
X175799000Y-148951000D01*
X175799000Y-147049000D01*
X177701000Y-147049000D01*
X177701000Y-148951000D01*
G37*
G36*
X89701000Y-148951000D02*
G01*
X87799000Y-148951000D01*
X87799000Y-147049000D01*
X89701000Y-147049000D01*
X89701000Y-148951000D01*
G37*
G36*
X91567395Y-147085546D02*
G01*
X91740466Y-147157234D01*
X91740467Y-147157235D01*
X91896227Y-147261310D01*
X92028690Y-147393773D01*
X92028691Y-147393775D01*
X92132766Y-147549534D01*
X92204454Y-147722605D01*
X92241000Y-147906333D01*
X92241000Y-148093667D01*
X92204454Y-148277395D01*
X92132766Y-148450466D01*
X92132765Y-148450467D01*
X92028690Y-148606227D01*
X91896227Y-148738690D01*
X91817818Y-148791081D01*
X91740466Y-148842766D01*
X91567395Y-148914454D01*
X91383667Y-148951000D01*
X91196333Y-148951000D01*
X91012605Y-148914454D01*
X90839534Y-148842766D01*
X90762182Y-148791081D01*
X90683773Y-148738690D01*
X90551310Y-148606227D01*
X90447235Y-148450467D01*
X90447234Y-148450466D01*
X90375546Y-148277395D01*
X90339000Y-148093667D01*
X90339000Y-147906333D01*
X90375546Y-147722605D01*
X90447234Y-147549534D01*
X90551309Y-147393775D01*
X90551310Y-147393773D01*
X90683773Y-147261310D01*
X90839533Y-147157235D01*
X90839534Y-147157234D01*
X91012605Y-147085546D01*
X91196333Y-147049000D01*
X91383667Y-147049000D01*
X91567395Y-147085546D01*
G37*
G36*
X70701000Y-145951000D02*
G01*
X68799000Y-145951000D01*
X68799000Y-144049000D01*
X70701000Y-144049000D01*
X70701000Y-145951000D01*
G37*
G36*
X72567395Y-144085546D02*
G01*
X72740466Y-144157234D01*
X72740467Y-144157235D01*
X72896227Y-144261310D01*
X73028690Y-144393773D01*
X73028691Y-144393775D01*
X73132766Y-144549534D01*
X73204454Y-144722605D01*
X73241000Y-144906333D01*
X73241000Y-145093667D01*
X73204454Y-145277395D01*
X73132766Y-145450466D01*
X73132765Y-145450467D01*
X73028690Y-145606227D01*
X72896227Y-145738690D01*
X72817818Y-145791081D01*
X72740466Y-145842766D01*
X72567395Y-145914454D01*
X72383667Y-145951000D01*
X72196333Y-145951000D01*
X72012605Y-145914454D01*
X71839534Y-145842766D01*
X71762182Y-145791081D01*
X71683773Y-145738690D01*
X71551310Y-145606227D01*
X71447235Y-145450467D01*
X71447234Y-145450466D01*
X71375546Y-145277395D01*
X71339000Y-145093667D01*
X71339000Y-144906333D01*
X71375546Y-144722605D01*
X71447234Y-144549534D01*
X71551309Y-144393775D01*
X71551310Y-144393773D01*
X71683773Y-144261310D01*
X71839533Y-144157235D01*
X71839534Y-144157234D01*
X72012605Y-144085546D01*
X72196333Y-144049000D01*
X72383667Y-144049000D01*
X72567395Y-144085546D01*
G37*
G36*
X198567395Y-144085546D02*
G01*
X198740466Y-144157234D01*
X198740467Y-144157235D01*
X198896227Y-144261310D01*
X199028690Y-144393773D01*
X199028691Y-144393775D01*
X199132766Y-144549534D01*
X199204454Y-144722605D01*
X199241000Y-144906333D01*
X199241000Y-145093667D01*
X199204454Y-145277395D01*
X199132766Y-145450466D01*
X199132765Y-145450467D01*
X199028690Y-145606227D01*
X198896227Y-145738690D01*
X198817818Y-145791081D01*
X198740466Y-145842766D01*
X198567395Y-145914454D01*
X198383667Y-145951000D01*
X198196333Y-145951000D01*
X198012605Y-145914454D01*
X197839534Y-145842766D01*
X197762182Y-145791081D01*
X197683773Y-145738690D01*
X197551310Y-145606227D01*
X197447235Y-145450467D01*
X197447234Y-145450466D01*
X197375546Y-145277395D01*
X197339000Y-145093667D01*
X197339000Y-144906333D01*
X197375546Y-144722605D01*
X197447234Y-144549534D01*
X197551309Y-144393775D01*
X197551310Y-144393773D01*
X197683773Y-144261310D01*
X197839533Y-144157235D01*
X197839534Y-144157234D01*
X198012605Y-144085546D01*
X198196333Y-144049000D01*
X198383667Y-144049000D01*
X198567395Y-144085546D01*
G37*
G36*
X196701000Y-145951000D02*
G01*
X194799000Y-145951000D01*
X194799000Y-144049000D01*
X196701000Y-144049000D01*
X196701000Y-145951000D01*
G37*
G36*
X82567395Y-139085546D02*
G01*
X82740466Y-139157234D01*
X82740467Y-139157235D01*
X82896227Y-139261310D01*
X83028690Y-139393773D01*
X83028691Y-139393775D01*
X83132766Y-139549534D01*
X83204454Y-139722605D01*
X83241000Y-139906333D01*
X83241000Y-140093667D01*
X83204454Y-140277395D01*
X83132766Y-140450466D01*
X83132765Y-140450467D01*
X83028690Y-140606227D01*
X82896227Y-140738690D01*
X82817818Y-140791081D01*
X82740466Y-140842766D01*
X82567395Y-140914454D01*
X82383667Y-140951000D01*
X82196333Y-140951000D01*
X82012605Y-140914454D01*
X81839534Y-140842766D01*
X81762182Y-140791081D01*
X81683773Y-140738690D01*
X81551310Y-140606227D01*
X81447235Y-140450467D01*
X81447234Y-140450466D01*
X81375546Y-140277395D01*
X81339000Y-140093667D01*
X81339000Y-139906333D01*
X81375546Y-139722605D01*
X81447234Y-139549534D01*
X81551309Y-139393775D01*
X81551310Y-139393773D01*
X81683773Y-139261310D01*
X81839533Y-139157235D01*
X81839534Y-139157234D01*
X82012605Y-139085546D01*
X82196333Y-139049000D01*
X82383667Y-139049000D01*
X82567395Y-139085546D01*
G37*
G36*
X80701000Y-140951000D02*
G01*
X78799000Y-140951000D01*
X78799000Y-139049000D01*
X80701000Y-139049000D01*
X80701000Y-140951000D01*
G37*
G36*
X188567395Y-139085546D02*
G01*
X188740466Y-139157234D01*
X188740467Y-139157235D01*
X188896227Y-139261310D01*
X189028690Y-139393773D01*
X189028691Y-139393775D01*
X189132766Y-139549534D01*
X189204454Y-139722605D01*
X189241000Y-139906333D01*
X189241000Y-140093667D01*
X189204454Y-140277395D01*
X189132766Y-140450466D01*
X189132765Y-140450467D01*
X189028690Y-140606227D01*
X188896227Y-140738690D01*
X188817818Y-140791081D01*
X188740466Y-140842766D01*
X188567395Y-140914454D01*
X188383667Y-140951000D01*
X188196333Y-140951000D01*
X188012605Y-140914454D01*
X187839534Y-140842766D01*
X187762182Y-140791081D01*
X187683773Y-140738690D01*
X187551310Y-140606227D01*
X187447235Y-140450467D01*
X187447234Y-140450466D01*
X187375546Y-140277395D01*
X187339000Y-140093667D01*
X187339000Y-139906333D01*
X187375546Y-139722605D01*
X187447234Y-139549534D01*
X187551309Y-139393775D01*
X187551310Y-139393773D01*
X187683773Y-139261310D01*
X187839533Y-139157235D01*
X187839534Y-139157234D01*
X188012605Y-139085546D01*
X188196333Y-139049000D01*
X188383667Y-139049000D01*
X188567395Y-139085546D01*
G37*
G36*
X186701000Y-140951000D02*
G01*
X184799000Y-140951000D01*
X184799000Y-139049000D01*
X186701000Y-139049000D01*
X186701000Y-140951000D01*
G37*
G36*
X141551000Y-140651000D02*
G01*
X139449000Y-140651000D01*
X139449000Y-139349000D01*
X141551000Y-139349000D01*
X141551000Y-140651000D01*
G37*
G36*
X150551000Y-140651000D02*
G01*
X148449000Y-140651000D01*
X148449000Y-139349000D01*
X150551000Y-139349000D01*
X150551000Y-140651000D01*
G37*
G36*
X172125256Y-135641298D02*
G01*
X172231579Y-135662447D01*
X172532042Y-135786903D01*
X172802451Y-135967585D01*
X173032415Y-136197549D01*
X173213097Y-136467958D01*
X173337553Y-136768421D01*
X173401000Y-137087391D01*
X173401000Y-137412609D01*
X173337553Y-137731579D01*
X173213097Y-138032042D01*
X173032415Y-138302451D01*
X172802451Y-138532415D01*
X172532042Y-138713097D01*
X172231579Y-138837553D01*
X172125256Y-138858702D01*
X171912611Y-138901000D01*
X171587389Y-138901000D01*
X171374744Y-138858702D01*
X171268421Y-138837553D01*
X170967958Y-138713097D01*
X170697549Y-138532415D01*
X170467585Y-138302451D01*
X170286903Y-138032042D01*
X170162447Y-137731579D01*
X170099000Y-137412609D01*
X170099000Y-137087391D01*
X170162447Y-136768421D01*
X170286903Y-136467958D01*
X170467585Y-136197549D01*
X170697549Y-135967585D01*
X170967958Y-135786903D01*
X171268421Y-135662447D01*
X171374744Y-135641298D01*
X171587389Y-135599000D01*
X171912611Y-135599000D01*
X172125256Y-135641298D01*
G37*
G36*
X107125256Y-135641298D02*
G01*
X107231579Y-135662447D01*
X107532042Y-135786903D01*
X107802451Y-135967585D01*
X108032415Y-136197549D01*
X108213097Y-136467958D01*
X108337553Y-136768421D01*
X108401000Y-137087391D01*
X108401000Y-137412609D01*
X108337553Y-137731579D01*
X108213097Y-138032042D01*
X108032415Y-138302451D01*
X107802451Y-138532415D01*
X107532042Y-138713097D01*
X107231579Y-138837553D01*
X107125256Y-138858702D01*
X106912611Y-138901000D01*
X106587389Y-138901000D01*
X106374744Y-138858702D01*
X106268421Y-138837553D01*
X105967958Y-138713097D01*
X105697549Y-138532415D01*
X105467585Y-138302451D01*
X105286903Y-138032042D01*
X105162447Y-137731579D01*
X105099000Y-137412609D01*
X105099000Y-137087391D01*
X105162447Y-136768421D01*
X105286903Y-136467958D01*
X105467585Y-136197549D01*
X105697549Y-135967585D01*
X105967958Y-135786903D01*
X106268421Y-135662447D01*
X106374744Y-135641298D01*
X106587389Y-135599000D01*
X106912611Y-135599000D01*
X107125256Y-135641298D01*
G37*
G36*
X137821000Y-136742500D02*
G01*
X135179000Y-136742500D01*
X135179000Y-135878500D01*
X137821000Y-135878500D01*
X137821000Y-136742500D01*
G37*
G36*
X150551000Y-136651000D02*
G01*
X148449000Y-136651000D01*
X148449000Y-135349000D01*
X150551000Y-135349000D01*
X150551000Y-136651000D01*
G37*
G36*
X141551000Y-136651000D02*
G01*
X139449000Y-136651000D01*
X139449000Y-135349000D01*
X141551000Y-135349000D01*
X141551000Y-136651000D01*
G37*
G36*
X137821000Y-134202500D02*
G01*
X135179000Y-134202500D01*
X135179000Y-133338500D01*
X137821000Y-133338500D01*
X137821000Y-134202500D01*
G37*
G36*
X142826000Y-133701000D02*
G01*
X141274000Y-133701000D01*
X141274000Y-127299000D01*
X142826000Y-127299000D01*
X142826000Y-133701000D01*
G37*
G36*
X148726000Y-133701000D02*
G01*
X147174000Y-133701000D01*
X147174000Y-127299000D01*
X148726000Y-127299000D01*
X148726000Y-133701000D01*
G37*
G36*
X137821000Y-131662500D02*
G01*
X135179000Y-131662500D01*
X135179000Y-130798500D01*
X137821000Y-130798500D01*
X137821000Y-131662500D01*
G37*
G36*
X176451000Y-130826000D02*
G01*
X175249000Y-130826000D01*
X175249000Y-123174000D01*
X176451000Y-123174000D01*
X176451000Y-130826000D01*
G37*
G36*
X170751000Y-130826000D02*
G01*
X169549000Y-130826000D01*
X169549000Y-123174000D01*
X170751000Y-123174000D01*
X170751000Y-130826000D01*
G37*
G36*
X139864499Y-129428445D02*
G01*
X139901995Y-129439820D01*
X139936554Y-129458292D01*
X139966847Y-129483153D01*
X139991708Y-129513446D01*
X140010180Y-129548005D01*
X140021555Y-129585501D01*
X140026000Y-129630638D01*
X140026000Y-130369362D01*
X140021555Y-130414499D01*
X140010180Y-130451995D01*
X139991708Y-130486554D01*
X139966847Y-130516847D01*
X139936554Y-130541708D01*
X139901995Y-130560180D01*
X139864499Y-130571555D01*
X139819362Y-130576000D01*
X139180638Y-130576000D01*
X139135501Y-130571555D01*
X139098005Y-130560180D01*
X139063446Y-130541708D01*
X139033153Y-130516847D01*
X139008292Y-130486554D01*
X138989820Y-130451995D01*
X138978445Y-130414499D01*
X138974000Y-130369362D01*
X138974000Y-129630638D01*
X138978445Y-129585501D01*
X138989820Y-129548005D01*
X139008292Y-129513446D01*
X139033153Y-129483153D01*
X139063446Y-129458292D01*
X139098005Y-129439820D01*
X139135501Y-129428445D01*
X139180638Y-129424000D01*
X139819362Y-129424000D01*
X139864499Y-129428445D01*
G37*
G36*
X76567395Y-128585546D02*
G01*
X76740466Y-128657234D01*
X76807455Y-128701995D01*
X76896227Y-128761310D01*
X77028690Y-128893773D01*
X77081081Y-128972182D01*
X77132766Y-129049534D01*
X77204454Y-129222605D01*
X77241000Y-129406333D01*
X77241000Y-129593667D01*
X77204454Y-129777395D01*
X77132766Y-129950466D01*
X77132765Y-129950467D01*
X77028690Y-130106227D01*
X76896227Y-130238690D01*
X76817818Y-130291081D01*
X76740466Y-130342766D01*
X76567395Y-130414454D01*
X76383667Y-130451000D01*
X76196333Y-130451000D01*
X76012605Y-130414454D01*
X75839534Y-130342766D01*
X75762182Y-130291081D01*
X75683773Y-130238690D01*
X75551310Y-130106227D01*
X75447235Y-129950467D01*
X75447234Y-129950466D01*
X75375546Y-129777395D01*
X75339000Y-129593667D01*
X75339000Y-129406333D01*
X75375546Y-129222605D01*
X75447234Y-129049534D01*
X75498919Y-128972182D01*
X75551310Y-128893773D01*
X75683773Y-128761310D01*
X75772545Y-128701995D01*
X75839534Y-128657234D01*
X76012605Y-128585546D01*
X76196333Y-128549000D01*
X76383667Y-128549000D01*
X76567395Y-128585546D01*
G37*
G36*
X74701000Y-130451000D02*
G01*
X72799000Y-130451000D01*
X72799000Y-128549000D01*
X74701000Y-128549000D01*
X74701000Y-130451000D01*
G37*
G36*
X192701000Y-129951000D02*
G01*
X190799000Y-129951000D01*
X190799000Y-128049000D01*
X192701000Y-128049000D01*
X192701000Y-129951000D01*
G37*
G36*
X194567395Y-128085546D02*
G01*
X194740466Y-128157234D01*
X194740467Y-128157235D01*
X194896227Y-128261310D01*
X195028690Y-128393773D01*
X195028691Y-128393775D01*
X195132766Y-128549534D01*
X195204454Y-128722605D01*
X195241000Y-128906333D01*
X195241000Y-129093667D01*
X195204454Y-129277395D01*
X195132766Y-129450466D01*
X195132765Y-129450467D01*
X195028690Y-129606227D01*
X194896227Y-129738690D01*
X194838299Y-129777396D01*
X194740466Y-129842766D01*
X194567395Y-129914454D01*
X194383667Y-129951000D01*
X194196333Y-129951000D01*
X194012605Y-129914454D01*
X193839534Y-129842766D01*
X193741701Y-129777396D01*
X193683773Y-129738690D01*
X193551310Y-129606227D01*
X193447235Y-129450467D01*
X193447234Y-129450466D01*
X193375546Y-129277395D01*
X193339000Y-129093667D01*
X193339000Y-128906333D01*
X193375546Y-128722605D01*
X193447234Y-128549534D01*
X193551309Y-128393775D01*
X193551310Y-128393773D01*
X193683773Y-128261310D01*
X193839533Y-128157235D01*
X193839534Y-128157234D01*
X194012605Y-128085546D01*
X194196333Y-128049000D01*
X194383667Y-128049000D01*
X194567395Y-128085546D01*
G37*
G36*
X137821000Y-129122500D02*
G01*
X135179000Y-129122500D01*
X135179000Y-128258500D01*
X137821000Y-128258500D01*
X137821000Y-129122500D01*
G37*
G36*
X139864499Y-127678445D02*
G01*
X139901995Y-127689820D01*
X139936554Y-127708292D01*
X139966847Y-127733153D01*
X139991708Y-127763446D01*
X140010180Y-127798005D01*
X140021555Y-127835501D01*
X140026000Y-127880638D01*
X140026000Y-128619362D01*
X140021555Y-128664499D01*
X140010180Y-128701995D01*
X139991708Y-128736554D01*
X139966847Y-128766847D01*
X139936554Y-128791708D01*
X139901995Y-128810180D01*
X139864499Y-128821555D01*
X139819362Y-128826000D01*
X139180638Y-128826000D01*
X139135501Y-128821555D01*
X139098005Y-128810180D01*
X139063446Y-128791708D01*
X139033153Y-128766847D01*
X139008292Y-128736554D01*
X138989820Y-128701995D01*
X138978445Y-128664499D01*
X138974000Y-128619362D01*
X138974000Y-127880638D01*
X138978445Y-127835501D01*
X138989820Y-127798005D01*
X139008292Y-127763446D01*
X139033153Y-127733153D01*
X139063446Y-127708292D01*
X139098005Y-127689820D01*
X139135501Y-127678445D01*
X139180638Y-127674000D01*
X139819362Y-127674000D01*
X139864499Y-127678445D01*
G37*
G36*
X161364499Y-126678445D02*
G01*
X161401995Y-126689820D01*
X161436554Y-126708292D01*
X161466847Y-126733153D01*
X161491708Y-126763446D01*
X161510180Y-126798005D01*
X161521555Y-126835501D01*
X161526000Y-126880638D01*
X161526000Y-127619362D01*
X161521555Y-127664499D01*
X161510180Y-127701995D01*
X161491708Y-127736554D01*
X161466847Y-127766847D01*
X161436554Y-127791708D01*
X161401995Y-127810180D01*
X161364499Y-127821555D01*
X161319362Y-127826000D01*
X160680638Y-127826000D01*
X160635501Y-127821555D01*
X160598005Y-127810180D01*
X160563446Y-127791708D01*
X160533153Y-127766847D01*
X160508292Y-127736554D01*
X160489820Y-127701995D01*
X160478445Y-127664499D01*
X160474000Y-127619362D01*
X160474000Y-126880638D01*
X160478445Y-126835501D01*
X160489820Y-126798005D01*
X160508292Y-126763446D01*
X160533153Y-126733153D01*
X160563446Y-126708292D01*
X160598005Y-126689820D01*
X160635501Y-126678445D01*
X160680638Y-126674000D01*
X161319362Y-126674000D01*
X161364499Y-126678445D01*
G37*
G36*
X105364499Y-126428445D02*
G01*
X105401995Y-126439820D01*
X105436554Y-126458292D01*
X105466847Y-126483153D01*
X105491708Y-126513446D01*
X105510180Y-126548005D01*
X105521555Y-126585501D01*
X105526000Y-126630638D01*
X105526000Y-127369362D01*
X105521555Y-127414499D01*
X105510180Y-127451995D01*
X105491708Y-127486554D01*
X105466847Y-127516847D01*
X105436554Y-127541708D01*
X105401995Y-127560180D01*
X105364499Y-127571555D01*
X105319362Y-127576000D01*
X104680638Y-127576000D01*
X104635501Y-127571555D01*
X104598005Y-127560180D01*
X104563446Y-127541708D01*
X104533153Y-127516847D01*
X104508292Y-127486554D01*
X104489820Y-127451995D01*
X104478445Y-127414499D01*
X104474000Y-127369362D01*
X104474000Y-126630638D01*
X104478445Y-126585501D01*
X104489820Y-126548005D01*
X104508292Y-126513446D01*
X104533153Y-126483153D01*
X104563446Y-126458292D01*
X104598005Y-126439820D01*
X104635501Y-126428445D01*
X104680638Y-126424000D01*
X105319362Y-126424000D01*
X105364499Y-126428445D01*
G37*
G36*
X161364499Y-124928445D02*
G01*
X161401995Y-124939820D01*
X161436554Y-124958292D01*
X161466847Y-124983153D01*
X161491708Y-125013446D01*
X161510180Y-125048005D01*
X161521555Y-125085501D01*
X161526000Y-125130638D01*
X161526000Y-125869362D01*
X161521555Y-125914499D01*
X161510180Y-125951995D01*
X161491708Y-125986554D01*
X161466847Y-126016847D01*
X161436554Y-126041708D01*
X161401995Y-126060180D01*
X161364499Y-126071555D01*
X161319362Y-126076000D01*
X160680638Y-126076000D01*
X160635501Y-126071555D01*
X160598005Y-126060180D01*
X160563446Y-126041708D01*
X160533153Y-126016847D01*
X160508292Y-125986554D01*
X160489820Y-125951995D01*
X160478445Y-125914499D01*
X160474000Y-125869362D01*
X160474000Y-125130638D01*
X160478445Y-125085501D01*
X160489820Y-125048005D01*
X160508292Y-125013446D01*
X160533153Y-124983153D01*
X160563446Y-124958292D01*
X160598005Y-124939820D01*
X160635501Y-124928445D01*
X160680638Y-124924000D01*
X161319362Y-124924000D01*
X161364499Y-124928445D01*
G37*
G36*
X105364499Y-124678445D02*
G01*
X105401995Y-124689820D01*
X105436554Y-124708292D01*
X105466847Y-124733153D01*
X105491708Y-124763446D01*
X105510180Y-124798005D01*
X105521555Y-124835501D01*
X105526000Y-124880638D01*
X105526000Y-125619362D01*
X105521555Y-125664499D01*
X105510180Y-125701995D01*
X105491708Y-125736554D01*
X105466847Y-125766847D01*
X105436554Y-125791708D01*
X105401995Y-125810180D01*
X105364499Y-125821555D01*
X105319362Y-125826000D01*
X104680638Y-125826000D01*
X104635501Y-125821555D01*
X104598005Y-125810180D01*
X104563446Y-125791708D01*
X104533153Y-125766847D01*
X104508292Y-125736554D01*
X104489820Y-125701995D01*
X104478445Y-125664499D01*
X104474000Y-125619362D01*
X104474000Y-124880638D01*
X104478445Y-124835501D01*
X104489820Y-124798005D01*
X104508292Y-124763446D01*
X104533153Y-124733153D01*
X104563446Y-124708292D01*
X104598005Y-124689820D01*
X104635501Y-124678445D01*
X104680638Y-124674000D01*
X105319362Y-124674000D01*
X105364499Y-124678445D01*
G37*
G36*
X167364499Y-123428445D02*
G01*
X167401995Y-123439820D01*
X167436554Y-123458292D01*
X167466847Y-123483153D01*
X167491708Y-123513446D01*
X167510180Y-123548005D01*
X167521555Y-123585501D01*
X167526000Y-123630638D01*
X167526000Y-124369362D01*
X167521555Y-124414499D01*
X167510180Y-124451995D01*
X167491708Y-124486554D01*
X167466847Y-124516847D01*
X167436554Y-124541708D01*
X167401995Y-124560180D01*
X167364499Y-124571555D01*
X167319362Y-124576000D01*
X166680638Y-124576000D01*
X166635501Y-124571555D01*
X166598005Y-124560180D01*
X166563446Y-124541708D01*
X166533153Y-124516847D01*
X166508292Y-124486554D01*
X166489820Y-124451995D01*
X166478445Y-124414499D01*
X166474000Y-124369362D01*
X166474000Y-123630638D01*
X166478445Y-123585501D01*
X166489820Y-123548005D01*
X166508292Y-123513446D01*
X166533153Y-123483153D01*
X166563446Y-123458292D01*
X166598005Y-123439820D01*
X166635501Y-123428445D01*
X166680638Y-123424000D01*
X167319362Y-123424000D01*
X167364499Y-123428445D01*
G37*
G36*
X111317250Y-123513500D02*
G01*
X110302750Y-123513500D01*
X110302750Y-122561500D01*
X111317250Y-122561500D01*
X111317250Y-123513500D01*
G37*
G36*
X112817250Y-123513500D02*
G01*
X111802750Y-123513500D01*
X111802750Y-122561500D01*
X112817250Y-122561500D01*
X112817250Y-123513500D01*
G37*
G36*
X109817250Y-123513500D02*
G01*
X108802750Y-123513500D01*
X108802750Y-122561500D01*
X109817250Y-122561500D01*
X109817250Y-123513500D01*
G37*
G36*
X108317250Y-123513500D02*
G01*
X107302750Y-123513500D01*
X107302750Y-122561500D01*
X108317250Y-122561500D01*
X108317250Y-123513500D01*
G37*
G36*
X105317250Y-123513500D02*
G01*
X104302750Y-123513500D01*
X104302750Y-122561500D01*
X105317250Y-122561500D01*
X105317250Y-123513500D01*
G37*
G36*
X103817250Y-123513500D02*
G01*
X102802750Y-123513500D01*
X102802750Y-122561500D01*
X103817250Y-122561500D01*
X103817250Y-123513500D01*
G37*
G36*
X102317250Y-123513500D02*
G01*
X101302750Y-123513500D01*
X101302750Y-122561500D01*
X102317250Y-122561500D01*
X102317250Y-123513500D01*
G37*
G36*
X100817250Y-123513500D02*
G01*
X99802750Y-123513500D01*
X99802750Y-122561500D01*
X100817250Y-122561500D01*
X100817250Y-123513500D01*
G37*
G36*
X106817250Y-123513500D02*
G01*
X105802750Y-123513500D01*
X105802750Y-122561500D01*
X106817250Y-122561500D01*
X106817250Y-123513500D01*
G37*
G36*
X167364499Y-121678445D02*
G01*
X167401995Y-121689820D01*
X167436554Y-121708292D01*
X167466847Y-121733153D01*
X167491708Y-121763446D01*
X167510180Y-121798005D01*
X167521555Y-121835501D01*
X167526000Y-121880638D01*
X167526000Y-122619362D01*
X167521555Y-122664499D01*
X167510180Y-122701995D01*
X167491708Y-122736554D01*
X167466847Y-122766847D01*
X167436554Y-122791708D01*
X167401995Y-122810180D01*
X167364499Y-122821555D01*
X167319362Y-122826000D01*
X166680638Y-122826000D01*
X166635501Y-122821555D01*
X166598005Y-122810180D01*
X166563446Y-122791708D01*
X166533153Y-122766847D01*
X166508292Y-122736554D01*
X166489820Y-122701995D01*
X166478445Y-122664499D01*
X166474000Y-122619362D01*
X166474000Y-121880638D01*
X166478445Y-121835501D01*
X166489820Y-121798005D01*
X166508292Y-121763446D01*
X166533153Y-121733153D01*
X166563446Y-121708292D01*
X166598005Y-121689820D01*
X166635501Y-121678445D01*
X166680638Y-121674000D01*
X167319362Y-121674000D01*
X167364499Y-121678445D01*
G37*
G36*
X170539499Y-120978445D02*
G01*
X170576995Y-120989820D01*
X170611554Y-121008292D01*
X170641847Y-121033153D01*
X170666708Y-121063446D01*
X170685180Y-121098005D01*
X170696555Y-121135501D01*
X170701000Y-121180638D01*
X170701000Y-121819362D01*
X170696555Y-121864499D01*
X170685180Y-121901995D01*
X170666708Y-121936554D01*
X170641847Y-121966847D01*
X170611554Y-121991708D01*
X170576995Y-122010180D01*
X170539499Y-122021555D01*
X170494362Y-122026000D01*
X169755638Y-122026000D01*
X169710501Y-122021555D01*
X169673005Y-122010180D01*
X169638446Y-121991708D01*
X169608153Y-121966847D01*
X169583292Y-121936554D01*
X169564820Y-121901995D01*
X169553445Y-121864499D01*
X169549000Y-121819362D01*
X169549000Y-121180638D01*
X169553445Y-121135501D01*
X169564820Y-121098005D01*
X169583292Y-121063446D01*
X169608153Y-121033153D01*
X169638446Y-121008292D01*
X169673005Y-120989820D01*
X169710501Y-120978445D01*
X169755638Y-120974000D01*
X170494362Y-120974000D01*
X170539499Y-120978445D01*
G37*
G36*
X172289499Y-120978445D02*
G01*
X172326995Y-120989820D01*
X172361554Y-121008292D01*
X172391847Y-121033153D01*
X172416708Y-121063446D01*
X172435180Y-121098005D01*
X172446555Y-121135501D01*
X172451000Y-121180638D01*
X172451000Y-121819362D01*
X172446555Y-121864499D01*
X172435180Y-121901995D01*
X172416708Y-121936554D01*
X172391847Y-121966847D01*
X172361554Y-121991708D01*
X172326995Y-122010180D01*
X172289499Y-122021555D01*
X172244362Y-122026000D01*
X171505638Y-122026000D01*
X171460501Y-122021555D01*
X171423005Y-122010180D01*
X171388446Y-121991708D01*
X171358153Y-121966847D01*
X171333292Y-121936554D01*
X171314820Y-121901995D01*
X171303445Y-121864499D01*
X171299000Y-121819362D01*
X171299000Y-121180638D01*
X171303445Y-121135501D01*
X171314820Y-121098005D01*
X171333292Y-121063446D01*
X171358153Y-121033153D01*
X171388446Y-121008292D01*
X171423005Y-120989820D01*
X171460501Y-120978445D01*
X171505638Y-120974000D01*
X172244362Y-120974000D01*
X172289499Y-120978445D01*
G37*
G36*
X122321000Y-118512000D02*
G01*
X119679000Y-118512000D01*
X119679000Y-117648000D01*
X122321000Y-117648000D01*
X122321000Y-118512000D01*
G37*
G36*
X109091000Y-117621000D02*
G01*
X104689000Y-117621000D01*
X104689000Y-113219000D01*
X109091000Y-113219000D01*
X109091000Y-117621000D01*
G37*
G36*
X122321000Y-115972000D02*
G01*
X119679000Y-115972000D01*
X119679000Y-115108000D01*
X122321000Y-115108000D01*
X122321000Y-115972000D01*
G37*
G36*
X122321000Y-113432000D02*
G01*
X119679000Y-113432000D01*
X119679000Y-112568000D01*
X122321000Y-112568000D01*
X122321000Y-113432000D01*
G37*
G36*
X122321000Y-110892000D02*
G01*
X119679000Y-110892000D01*
X119679000Y-110028000D01*
X122321000Y-110028000D01*
X122321000Y-110892000D01*
G37*
G36*
X122321000Y-108352000D02*
G01*
X119679000Y-108352000D01*
X119679000Y-107488000D01*
X122321000Y-107488000D01*
X122321000Y-108352000D01*
G37*
G36*
X100817250Y-106038500D02*
G01*
X99802750Y-106038500D01*
X99802750Y-105086500D01*
X100817250Y-105086500D01*
X100817250Y-106038500D01*
G37*
G36*
X112817250Y-106038500D02*
G01*
X111802750Y-106038500D01*
X111802750Y-105086500D01*
X112817250Y-105086500D01*
X112817250Y-106038500D01*
G37*
G36*
X111317250Y-106038500D02*
G01*
X110302750Y-106038500D01*
X110302750Y-105086500D01*
X111317250Y-105086500D01*
X111317250Y-106038500D01*
G37*
G36*
X103817250Y-106038500D02*
G01*
X102802750Y-106038500D01*
X102802750Y-105086500D01*
X103817250Y-105086500D01*
X103817250Y-106038500D01*
G37*
G36*
X106817250Y-106038500D02*
G01*
X105802750Y-106038500D01*
X105802750Y-105086500D01*
X106817250Y-105086500D01*
X106817250Y-106038500D01*
G37*
G36*
X105317250Y-106038500D02*
G01*
X104302750Y-106038500D01*
X104302750Y-105086500D01*
X105317250Y-105086500D01*
X105317250Y-106038500D01*
G37*
G36*
X108317250Y-106038500D02*
G01*
X107302750Y-106038500D01*
X107302750Y-105086500D01*
X108317250Y-105086500D01*
X108317250Y-106038500D01*
G37*
G36*
X109817250Y-106038500D02*
G01*
X108802750Y-106038500D01*
X108802750Y-105086500D01*
X109817250Y-105086500D01*
X109817250Y-106038500D01*
G37*
G36*
X102317250Y-106038500D02*
G01*
X101302750Y-106038500D01*
X101302750Y-105086500D01*
X102317250Y-105086500D01*
X102317250Y-106038500D01*
G37*
G36*
X122321000Y-105812000D02*
G01*
X119679000Y-105812000D01*
X119679000Y-104948000D01*
X122321000Y-104948000D01*
X122321000Y-105812000D01*
G37*
G36*
X158414499Y-104478445D02*
G01*
X158451995Y-104489820D01*
X158486554Y-104508292D01*
X158516847Y-104533153D01*
X158541708Y-104563446D01*
X158560180Y-104598005D01*
X158571555Y-104635501D01*
X158576000Y-104680638D01*
X158576000Y-105319362D01*
X158571555Y-105364499D01*
X158560180Y-105401995D01*
X158541708Y-105436554D01*
X158516847Y-105466847D01*
X158486554Y-105491708D01*
X158451995Y-105510180D01*
X158414499Y-105521555D01*
X158369362Y-105526000D01*
X157630638Y-105526000D01*
X157585501Y-105521555D01*
X157548005Y-105510180D01*
X157513446Y-105491708D01*
X157483153Y-105466847D01*
X157458292Y-105436554D01*
X157439820Y-105401995D01*
X157428445Y-105364499D01*
X157424000Y-105319362D01*
X157424000Y-104680638D01*
X157428445Y-104635501D01*
X157439820Y-104598005D01*
X157458292Y-104563446D01*
X157483153Y-104533153D01*
X157513446Y-104508292D01*
X157548005Y-104489820D01*
X157585501Y-104478445D01*
X157630638Y-104474000D01*
X158369362Y-104474000D01*
X158414499Y-104478445D01*
G37*
G36*
X156664499Y-104478445D02*
G01*
X156701995Y-104489820D01*
X156736554Y-104508292D01*
X156766847Y-104533153D01*
X156791708Y-104563446D01*
X156810180Y-104598005D01*
X156821555Y-104635501D01*
X156826000Y-104680638D01*
X156826000Y-105319362D01*
X156821555Y-105364499D01*
X156810180Y-105401995D01*
X156791708Y-105436554D01*
X156766847Y-105466847D01*
X156736554Y-105491708D01*
X156701995Y-105510180D01*
X156664499Y-105521555D01*
X156619362Y-105526000D01*
X155880638Y-105526000D01*
X155835501Y-105521555D01*
X155798005Y-105510180D01*
X155763446Y-105491708D01*
X155733153Y-105466847D01*
X155708292Y-105436554D01*
X155689820Y-105401995D01*
X155678445Y-105364499D01*
X155674000Y-105319362D01*
X155674000Y-104680638D01*
X155678445Y-104635501D01*
X155689820Y-104598005D01*
X155708292Y-104563446D01*
X155733153Y-104533153D01*
X155763446Y-104508292D01*
X155798005Y-104489820D01*
X155835501Y-104478445D01*
X155880638Y-104474000D01*
X156619362Y-104474000D01*
X156664499Y-104478445D01*
G37*
G36*
X154901000Y-104051000D02*
G01*
X153099000Y-104051000D01*
X153099000Y-101949000D01*
X154901000Y-101949000D01*
X154901000Y-104051000D01*
G37*
G36*
X105864499Y-102803445D02*
G01*
X105901995Y-102814820D01*
X105936554Y-102833292D01*
X105966847Y-102858153D01*
X105991708Y-102888446D01*
X106010180Y-102923005D01*
X106021555Y-102960501D01*
X106026000Y-103005638D01*
X106026000Y-103744362D01*
X106021555Y-103789499D01*
X106010180Y-103826995D01*
X105991708Y-103861554D01*
X105966847Y-103891847D01*
X105936554Y-103916708D01*
X105901995Y-103935180D01*
X105864499Y-103946555D01*
X105819362Y-103951000D01*
X105180638Y-103951000D01*
X105135501Y-103946555D01*
X105098005Y-103935180D01*
X105063446Y-103916708D01*
X105033153Y-103891847D01*
X105008292Y-103861554D01*
X104989820Y-103826995D01*
X104978445Y-103789499D01*
X104974000Y-103744362D01*
X104974000Y-103005638D01*
X104978445Y-102960501D01*
X104989820Y-102923005D01*
X105008292Y-102888446D01*
X105033153Y-102858153D01*
X105063446Y-102833292D01*
X105098005Y-102814820D01*
X105135501Y-102803445D01*
X105180638Y-102799000D01*
X105819362Y-102799000D01*
X105864499Y-102803445D01*
G37*
G36*
X103864499Y-102678445D02*
G01*
X103901995Y-102689820D01*
X103936554Y-102708292D01*
X103966847Y-102733153D01*
X103991708Y-102763446D01*
X104010180Y-102798005D01*
X104021555Y-102835501D01*
X104026000Y-102880638D01*
X104026000Y-103619362D01*
X104021555Y-103664499D01*
X104010180Y-103701995D01*
X103991708Y-103736554D01*
X103966847Y-103766847D01*
X103936554Y-103791708D01*
X103901995Y-103810180D01*
X103864499Y-103821555D01*
X103819362Y-103826000D01*
X103180638Y-103826000D01*
X103135501Y-103821555D01*
X103098005Y-103810180D01*
X103063446Y-103791708D01*
X103033153Y-103766847D01*
X103008292Y-103736554D01*
X102989820Y-103701995D01*
X102978445Y-103664499D01*
X102974000Y-103619362D01*
X102974000Y-102880638D01*
X102978445Y-102835501D01*
X102989820Y-102798005D01*
X103008292Y-102763446D01*
X103033153Y-102733153D01*
X103063446Y-102708292D01*
X103098005Y-102689820D01*
X103135501Y-102678445D01*
X103180638Y-102674000D01*
X103819362Y-102674000D01*
X103864499Y-102678445D01*
G37*
G36*
X101864499Y-102678445D02*
G01*
X101901995Y-102689820D01*
X101936554Y-102708292D01*
X101966847Y-102733153D01*
X101991708Y-102763446D01*
X102010180Y-102798005D01*
X102021555Y-102835501D01*
X102026000Y-102880638D01*
X102026000Y-103619362D01*
X102021555Y-103664499D01*
X102010180Y-103701995D01*
X101991708Y-103736554D01*
X101966847Y-103766847D01*
X101936554Y-103791708D01*
X101901995Y-103810180D01*
X101864499Y-103821555D01*
X101819362Y-103826000D01*
X101180638Y-103826000D01*
X101135501Y-103821555D01*
X101098005Y-103810180D01*
X101063446Y-103791708D01*
X101033153Y-103766847D01*
X101008292Y-103736554D01*
X100989820Y-103701995D01*
X100978445Y-103664499D01*
X100974000Y-103619362D01*
X100974000Y-102880638D01*
X100978445Y-102835501D01*
X100989820Y-102798005D01*
X101008292Y-102763446D01*
X101033153Y-102733153D01*
X101063446Y-102708292D01*
X101098005Y-102689820D01*
X101135501Y-102678445D01*
X101180638Y-102674000D01*
X101819362Y-102674000D01*
X101864499Y-102678445D01*
G37*
G36*
X161164499Y-102478445D02*
G01*
X161201995Y-102489820D01*
X161236554Y-102508292D01*
X161266847Y-102533153D01*
X161291708Y-102563446D01*
X161310180Y-102598005D01*
X161321555Y-102635501D01*
X161326000Y-102680638D01*
X161326000Y-103319362D01*
X161321555Y-103364499D01*
X161310180Y-103401995D01*
X161291708Y-103436554D01*
X161266847Y-103466847D01*
X161236554Y-103491708D01*
X161201995Y-103510180D01*
X161164499Y-103521555D01*
X161119362Y-103526000D01*
X160380638Y-103526000D01*
X160335501Y-103521555D01*
X160298005Y-103510180D01*
X160263446Y-103491708D01*
X160233153Y-103466847D01*
X160208292Y-103436554D01*
X160189820Y-103401995D01*
X160178445Y-103364499D01*
X160174000Y-103319362D01*
X160174000Y-102680638D01*
X160178445Y-102635501D01*
X160189820Y-102598005D01*
X160208292Y-102563446D01*
X160233153Y-102533153D01*
X160263446Y-102508292D01*
X160298005Y-102489820D01*
X160335501Y-102478445D01*
X160380638Y-102474000D01*
X161119362Y-102474000D01*
X161164499Y-102478445D01*
G37*
G36*
X159414499Y-102478445D02*
G01*
X159451995Y-102489820D01*
X159486554Y-102508292D01*
X159516847Y-102533153D01*
X159541708Y-102563446D01*
X159560180Y-102598005D01*
X159571555Y-102635501D01*
X159576000Y-102680638D01*
X159576000Y-103319362D01*
X159571555Y-103364499D01*
X159560180Y-103401995D01*
X159541708Y-103436554D01*
X159516847Y-103466847D01*
X159486554Y-103491708D01*
X159451995Y-103510180D01*
X159414499Y-103521555D01*
X159369362Y-103526000D01*
X158630638Y-103526000D01*
X158585501Y-103521555D01*
X158548005Y-103510180D01*
X158513446Y-103491708D01*
X158483153Y-103466847D01*
X158458292Y-103436554D01*
X158439820Y-103401995D01*
X158428445Y-103364499D01*
X158424000Y-103319362D01*
X158424000Y-102680638D01*
X158428445Y-102635501D01*
X158439820Y-102598005D01*
X158458292Y-102563446D01*
X158483153Y-102533153D01*
X158513446Y-102508292D01*
X158548005Y-102489820D01*
X158585501Y-102478445D01*
X158630638Y-102474000D01*
X159369362Y-102474000D01*
X159414499Y-102478445D01*
G37*
G36*
X105864499Y-101053445D02*
G01*
X105901995Y-101064820D01*
X105936554Y-101083292D01*
X105966847Y-101108153D01*
X105991708Y-101138446D01*
X106010180Y-101173005D01*
X106021555Y-101210501D01*
X106026000Y-101255638D01*
X106026000Y-101994362D01*
X106021555Y-102039499D01*
X106010180Y-102076995D01*
X105991708Y-102111554D01*
X105966847Y-102141847D01*
X105936554Y-102166708D01*
X105901995Y-102185180D01*
X105864499Y-102196555D01*
X105819362Y-102201000D01*
X105180638Y-102201000D01*
X105135501Y-102196555D01*
X105098005Y-102185180D01*
X105063446Y-102166708D01*
X105033153Y-102141847D01*
X105008292Y-102111554D01*
X104989820Y-102076995D01*
X104978445Y-102039499D01*
X104974000Y-101994362D01*
X104974000Y-101255638D01*
X104978445Y-101210501D01*
X104989820Y-101173005D01*
X105008292Y-101138446D01*
X105033153Y-101108153D01*
X105063446Y-101083292D01*
X105098005Y-101064820D01*
X105135501Y-101053445D01*
X105180638Y-101049000D01*
X105819362Y-101049000D01*
X105864499Y-101053445D01*
G37*
G36*
X101864499Y-100928445D02*
G01*
X101901995Y-100939820D01*
X101936554Y-100958292D01*
X101966847Y-100983153D01*
X101991708Y-101013446D01*
X102010180Y-101048005D01*
X102021555Y-101085501D01*
X102026000Y-101130638D01*
X102026000Y-101869362D01*
X102021555Y-101914499D01*
X102010180Y-101951995D01*
X101991708Y-101986554D01*
X101966847Y-102016847D01*
X101936554Y-102041708D01*
X101901995Y-102060180D01*
X101864499Y-102071555D01*
X101819362Y-102076000D01*
X101180638Y-102076000D01*
X101135501Y-102071555D01*
X101098005Y-102060180D01*
X101063446Y-102041708D01*
X101033153Y-102016847D01*
X101008292Y-101986554D01*
X100989820Y-101951995D01*
X100978445Y-101914499D01*
X100974000Y-101869362D01*
X100974000Y-101130638D01*
X100978445Y-101085501D01*
X100989820Y-101048005D01*
X101008292Y-101013446D01*
X101033153Y-100983153D01*
X101063446Y-100958292D01*
X101098005Y-100939820D01*
X101135501Y-100928445D01*
X101180638Y-100924000D01*
X101819362Y-100924000D01*
X101864499Y-100928445D01*
G37*
G36*
X103864499Y-100928445D02*
G01*
X103901995Y-100939820D01*
X103936554Y-100958292D01*
X103966847Y-100983153D01*
X103991708Y-101013446D01*
X104010180Y-101048005D01*
X104021555Y-101085501D01*
X104026000Y-101130638D01*
X104026000Y-101869362D01*
X104021555Y-101914499D01*
X104010180Y-101951995D01*
X103991708Y-101986554D01*
X103966847Y-102016847D01*
X103936554Y-102041708D01*
X103901995Y-102060180D01*
X103864499Y-102071555D01*
X103819362Y-102076000D01*
X103180638Y-102076000D01*
X103135501Y-102071555D01*
X103098005Y-102060180D01*
X103063446Y-102041708D01*
X103033153Y-102016847D01*
X103008292Y-101986554D01*
X102989820Y-101951995D01*
X102978445Y-101914499D01*
X102974000Y-101869362D01*
X102974000Y-101130638D01*
X102978445Y-101085501D01*
X102989820Y-101048005D01*
X103008292Y-101013446D01*
X103033153Y-100983153D01*
X103063446Y-100958292D01*
X103098005Y-100939820D01*
X103135501Y-100928445D01*
X103180638Y-100924000D01*
X103819362Y-100924000D01*
X103864499Y-100928445D01*
G37*
G36*
X76567395Y-100085546D02*
G01*
X76740466Y-100157234D01*
X76740467Y-100157235D01*
X76896227Y-100261310D01*
X77028690Y-100393773D01*
X77028691Y-100393775D01*
X77132766Y-100549534D01*
X77204454Y-100722605D01*
X77241000Y-100906333D01*
X77241000Y-101093667D01*
X77204454Y-101277395D01*
X77132766Y-101450466D01*
X77111911Y-101481677D01*
X77028690Y-101606227D01*
X76896227Y-101738690D01*
X76817818Y-101791081D01*
X76740466Y-101842766D01*
X76567395Y-101914454D01*
X76383667Y-101951000D01*
X76196333Y-101951000D01*
X76012605Y-101914454D01*
X75839534Y-101842766D01*
X75762182Y-101791081D01*
X75683773Y-101738690D01*
X75551310Y-101606227D01*
X75468089Y-101481677D01*
X75447234Y-101450466D01*
X75375546Y-101277395D01*
X75339000Y-101093667D01*
X75339000Y-100906333D01*
X75375546Y-100722605D01*
X75447234Y-100549534D01*
X75551309Y-100393775D01*
X75551310Y-100393773D01*
X75683773Y-100261310D01*
X75839533Y-100157235D01*
X75839534Y-100157234D01*
X76012605Y-100085546D01*
X76196333Y-100049000D01*
X76383667Y-100049000D01*
X76567395Y-100085546D01*
G37*
G36*
X194567395Y-100085546D02*
G01*
X194740466Y-100157234D01*
X194740467Y-100157235D01*
X194896227Y-100261310D01*
X195028690Y-100393773D01*
X195028691Y-100393775D01*
X195132766Y-100549534D01*
X195204454Y-100722605D01*
X195241000Y-100906333D01*
X195241000Y-101093667D01*
X195204454Y-101277395D01*
X195132766Y-101450466D01*
X195111911Y-101481677D01*
X195028690Y-101606227D01*
X194896227Y-101738690D01*
X194817818Y-101791081D01*
X194740466Y-101842766D01*
X194567395Y-101914454D01*
X194383667Y-101951000D01*
X194196333Y-101951000D01*
X194012605Y-101914454D01*
X193839534Y-101842766D01*
X193762182Y-101791081D01*
X193683773Y-101738690D01*
X193551310Y-101606227D01*
X193468089Y-101481677D01*
X193447234Y-101450466D01*
X193375546Y-101277395D01*
X193339000Y-101093667D01*
X193339000Y-100906333D01*
X193375546Y-100722605D01*
X193447234Y-100549534D01*
X193551309Y-100393775D01*
X193551310Y-100393773D01*
X193683773Y-100261310D01*
X193839533Y-100157235D01*
X193839534Y-100157234D01*
X194012605Y-100085546D01*
X194196333Y-100049000D01*
X194383667Y-100049000D01*
X194567395Y-100085546D01*
G37*
G36*
X192701000Y-101951000D02*
G01*
X190799000Y-101951000D01*
X190799000Y-100049000D01*
X192701000Y-100049000D01*
X192701000Y-101951000D01*
G37*
G36*
X74701000Y-101951000D02*
G01*
X72799000Y-101951000D01*
X72799000Y-100049000D01*
X74701000Y-100049000D01*
X74701000Y-101951000D01*
G37*
G36*
X159414499Y-100478445D02*
G01*
X159451995Y-100489820D01*
X159486554Y-100508292D01*
X159516847Y-100533153D01*
X159541708Y-100563446D01*
X159560180Y-100598005D01*
X159571555Y-100635501D01*
X159576000Y-100680638D01*
X159576000Y-101319362D01*
X159571555Y-101364499D01*
X159560180Y-101401995D01*
X159541708Y-101436554D01*
X159516847Y-101466847D01*
X159486554Y-101491708D01*
X159451995Y-101510180D01*
X159414499Y-101521555D01*
X159369362Y-101526000D01*
X158630638Y-101526000D01*
X158585501Y-101521555D01*
X158548005Y-101510180D01*
X158513446Y-101491708D01*
X158483153Y-101466847D01*
X158458292Y-101436554D01*
X158439820Y-101401995D01*
X158428445Y-101364499D01*
X158424000Y-101319362D01*
X158424000Y-100680638D01*
X158428445Y-100635501D01*
X158439820Y-100598005D01*
X158458292Y-100563446D01*
X158483153Y-100533153D01*
X158513446Y-100508292D01*
X158548005Y-100489820D01*
X158585501Y-100478445D01*
X158630638Y-100474000D01*
X159369362Y-100474000D01*
X159414499Y-100478445D01*
G37*
G36*
X161164499Y-100478445D02*
G01*
X161201995Y-100489820D01*
X161236554Y-100508292D01*
X161266847Y-100533153D01*
X161291708Y-100563446D01*
X161310180Y-100598005D01*
X161321555Y-100635501D01*
X161326000Y-100680638D01*
X161326000Y-101319362D01*
X161321555Y-101364499D01*
X161310180Y-101401995D01*
X161291708Y-101436554D01*
X161266847Y-101466847D01*
X161236554Y-101491708D01*
X161201995Y-101510180D01*
X161164499Y-101521555D01*
X161119362Y-101526000D01*
X160380638Y-101526000D01*
X160335501Y-101521555D01*
X160298005Y-101510180D01*
X160263446Y-101491708D01*
X160233153Y-101466847D01*
X160208292Y-101436554D01*
X160189820Y-101401995D01*
X160178445Y-101364499D01*
X160174000Y-101319362D01*
X160174000Y-100680638D01*
X160178445Y-100635501D01*
X160189820Y-100598005D01*
X160208292Y-100563446D01*
X160233153Y-100533153D01*
X160263446Y-100508292D01*
X160298005Y-100489820D01*
X160335501Y-100478445D01*
X160380638Y-100474000D01*
X161119362Y-100474000D01*
X161164499Y-100478445D01*
G37*
G36*
X164364499Y-98428445D02*
G01*
X164401995Y-98439820D01*
X164436554Y-98458292D01*
X164466847Y-98483153D01*
X164491708Y-98513446D01*
X164510180Y-98548005D01*
X164521555Y-98585501D01*
X164526000Y-98630638D01*
X164526000Y-99369362D01*
X164521555Y-99414499D01*
X164510180Y-99451995D01*
X164491708Y-99486554D01*
X164466847Y-99516847D01*
X164436554Y-99541708D01*
X164401995Y-99560180D01*
X164364499Y-99571555D01*
X164319362Y-99576000D01*
X163680638Y-99576000D01*
X163635501Y-99571555D01*
X163598005Y-99560180D01*
X163563446Y-99541708D01*
X163533153Y-99516847D01*
X163508292Y-99486554D01*
X163489820Y-99451995D01*
X163478445Y-99414499D01*
X163474000Y-99369362D01*
X163474000Y-98630638D01*
X163478445Y-98585501D01*
X163489820Y-98548005D01*
X163508292Y-98513446D01*
X163533153Y-98483153D01*
X163563446Y-98458292D01*
X163598005Y-98439820D01*
X163635501Y-98428445D01*
X163680638Y-98424000D01*
X164319362Y-98424000D01*
X164364499Y-98428445D01*
G37*
G36*
X159831000Y-99326000D02*
G01*
X158169000Y-99326000D01*
X158169000Y-96674000D01*
X159831000Y-96674000D01*
X159831000Y-99326000D01*
G37*
G36*
X162531000Y-99326000D02*
G01*
X160869000Y-99326000D01*
X160869000Y-98574000D01*
X162531000Y-98574000D01*
X162531000Y-99326000D01*
G37*
G36*
X154901000Y-98051000D02*
G01*
X153099000Y-98051000D01*
X153099000Y-95949000D01*
X154901000Y-95949000D01*
X154901000Y-98051000D01*
G37*
G36*
X164364499Y-96678445D02*
G01*
X164401995Y-96689820D01*
X164436554Y-96708292D01*
X164466847Y-96733153D01*
X164491708Y-96763446D01*
X164510180Y-96798005D01*
X164521555Y-96835501D01*
X164526000Y-96880638D01*
X164526000Y-97619362D01*
X164521555Y-97664499D01*
X164510180Y-97701995D01*
X164491708Y-97736554D01*
X164466847Y-97766847D01*
X164436554Y-97791708D01*
X164401995Y-97810180D01*
X164364499Y-97821555D01*
X164319362Y-97826000D01*
X163680638Y-97826000D01*
X163635501Y-97821555D01*
X163598005Y-97810180D01*
X163563446Y-97791708D01*
X163533153Y-97766847D01*
X163508292Y-97736554D01*
X163489820Y-97701995D01*
X163478445Y-97664499D01*
X163474000Y-97619362D01*
X163474000Y-96880638D01*
X163478445Y-96835501D01*
X163489820Y-96798005D01*
X163508292Y-96763446D01*
X163533153Y-96733153D01*
X163563446Y-96708292D01*
X163598005Y-96689820D01*
X163635501Y-96678445D01*
X163680638Y-96674000D01*
X164319362Y-96674000D01*
X164364499Y-96678445D01*
G37*
G36*
X162531000Y-97426000D02*
G01*
X160869000Y-97426000D01*
X160869000Y-96674000D01*
X162531000Y-96674000D01*
X162531000Y-97426000D01*
G37*
G36*
X179914499Y-92978445D02*
G01*
X179951995Y-92989820D01*
X179986554Y-93008292D01*
X180016847Y-93033153D01*
X180041708Y-93063446D01*
X180060180Y-93098005D01*
X180071555Y-93135501D01*
X180076000Y-93180638D01*
X180076000Y-93819362D01*
X180071555Y-93864499D01*
X180060180Y-93901995D01*
X180041708Y-93936554D01*
X180016847Y-93966847D01*
X179986554Y-93991708D01*
X179951995Y-94010180D01*
X179914499Y-94021555D01*
X179869362Y-94026000D01*
X179130638Y-94026000D01*
X179085501Y-94021555D01*
X179048005Y-94010180D01*
X179013446Y-93991708D01*
X178983153Y-93966847D01*
X178958292Y-93936554D01*
X178939820Y-93901995D01*
X178928445Y-93864499D01*
X178924000Y-93819362D01*
X178924000Y-93180638D01*
X178928445Y-93135501D01*
X178939820Y-93098005D01*
X178958292Y-93063446D01*
X178983153Y-93033153D01*
X179013446Y-93008292D01*
X179048005Y-92989820D01*
X179085501Y-92978445D01*
X179130638Y-92974000D01*
X179869362Y-92974000D01*
X179914499Y-92978445D01*
G37*
G36*
X178164499Y-92978445D02*
G01*
X178201995Y-92989820D01*
X178236554Y-93008292D01*
X178266847Y-93033153D01*
X178291708Y-93063446D01*
X178310180Y-93098005D01*
X178321555Y-93135501D01*
X178326000Y-93180638D01*
X178326000Y-93819362D01*
X178321555Y-93864499D01*
X178310180Y-93901995D01*
X178291708Y-93936554D01*
X178266847Y-93966847D01*
X178236554Y-93991708D01*
X178201995Y-94010180D01*
X178164499Y-94021555D01*
X178119362Y-94026000D01*
X177380638Y-94026000D01*
X177335501Y-94021555D01*
X177298005Y-94010180D01*
X177263446Y-93991708D01*
X177233153Y-93966847D01*
X177208292Y-93936554D01*
X177189820Y-93901995D01*
X177178445Y-93864499D01*
X177174000Y-93819362D01*
X177174000Y-93180638D01*
X177178445Y-93135501D01*
X177189820Y-93098005D01*
X177208292Y-93063446D01*
X177233153Y-93033153D01*
X177263446Y-93008292D01*
X177298005Y-92989820D01*
X177335501Y-92978445D01*
X177380638Y-92974000D01*
X178119362Y-92974000D01*
X178164499Y-92978445D01*
G37*
G36*
X196801000Y-93301000D02*
G01*
X193199000Y-93301000D01*
X193199000Y-89699000D01*
X196801000Y-89699000D01*
X196801000Y-93301000D01*
G37*
G36*
X175488674Y-91253465D02*
G01*
X175526367Y-91264899D01*
X175561103Y-91283466D01*
X175591548Y-91308452D01*
X175616534Y-91338897D01*
X175635101Y-91373633D01*
X175646535Y-91411326D01*
X175651000Y-91456661D01*
X175651000Y-92543339D01*
X175646535Y-92588674D01*
X175635101Y-92626367D01*
X175616534Y-92661103D01*
X175591548Y-92691548D01*
X175561103Y-92716534D01*
X175526367Y-92735101D01*
X175488674Y-92746535D01*
X175443339Y-92751000D01*
X174606661Y-92751000D01*
X174561326Y-92746535D01*
X174523633Y-92735101D01*
X174488897Y-92716534D01*
X174458452Y-92691548D01*
X174433466Y-92661103D01*
X174414899Y-92626367D01*
X174403465Y-92588674D01*
X174399000Y-92543339D01*
X174399000Y-91456661D01*
X174403465Y-91411326D01*
X174414899Y-91373633D01*
X174433466Y-91338897D01*
X174458452Y-91308452D01*
X174488897Y-91283466D01*
X174523633Y-91264899D01*
X174561326Y-91253465D01*
X174606661Y-91249000D01*
X175443339Y-91249000D01*
X175488674Y-91253465D01*
G37*
G36*
X173438674Y-91253465D02*
G01*
X173476367Y-91264899D01*
X173511103Y-91283466D01*
X173541548Y-91308452D01*
X173566534Y-91338897D01*
X173585101Y-91373633D01*
X173596535Y-91411326D01*
X173601000Y-91456661D01*
X173601000Y-92543339D01*
X173596535Y-92588674D01*
X173585101Y-92626367D01*
X173566534Y-92661103D01*
X173541548Y-92691548D01*
X173511103Y-92716534D01*
X173476367Y-92735101D01*
X173438674Y-92746535D01*
X173393339Y-92751000D01*
X172556661Y-92751000D01*
X172511326Y-92746535D01*
X172473633Y-92735101D01*
X172438897Y-92716534D01*
X172408452Y-92691548D01*
X172383466Y-92661103D01*
X172364899Y-92626367D01*
X172353465Y-92588674D01*
X172349000Y-92543339D01*
X172349000Y-91456661D01*
X172353465Y-91411326D01*
X172364899Y-91373633D01*
X172383466Y-91338897D01*
X172408452Y-91308452D01*
X172438897Y-91283466D01*
X172473633Y-91264899D01*
X172511326Y-91253465D01*
X172556661Y-91249000D01*
X173393339Y-91249000D01*
X173438674Y-91253465D01*
G37*
G36*
X179001000Y-91901000D02*
G01*
X176999000Y-91901000D01*
X176999000Y-90999000D01*
X179001000Y-90999000D01*
X179001000Y-91901000D01*
G37*
G36*
X158414499Y-90478445D02*
G01*
X158451995Y-90489820D01*
X158486554Y-90508292D01*
X158516847Y-90533153D01*
X158541708Y-90563446D01*
X158560180Y-90598005D01*
X158571555Y-90635501D01*
X158576000Y-90680638D01*
X158576000Y-91319362D01*
X158571555Y-91364499D01*
X158560180Y-91401995D01*
X158541708Y-91436554D01*
X158516847Y-91466847D01*
X158486554Y-91491708D01*
X158451995Y-91510180D01*
X158414499Y-91521555D01*
X158369362Y-91526000D01*
X157630638Y-91526000D01*
X157585501Y-91521555D01*
X157548005Y-91510180D01*
X157513446Y-91491708D01*
X157483153Y-91466847D01*
X157458292Y-91436554D01*
X157439820Y-91401995D01*
X157428445Y-91364499D01*
X157424000Y-91319362D01*
X157424000Y-90680638D01*
X157428445Y-90635501D01*
X157439820Y-90598005D01*
X157458292Y-90563446D01*
X157483153Y-90533153D01*
X157513446Y-90508292D01*
X157548005Y-90489820D01*
X157585501Y-90478445D01*
X157630638Y-90474000D01*
X158369362Y-90474000D01*
X158414499Y-90478445D01*
G37*
G36*
X156664499Y-90478445D02*
G01*
X156701995Y-90489820D01*
X156736554Y-90508292D01*
X156766847Y-90533153D01*
X156791708Y-90563446D01*
X156810180Y-90598005D01*
X156821555Y-90635501D01*
X156826000Y-90680638D01*
X156826000Y-91319362D01*
X156821555Y-91364499D01*
X156810180Y-91401995D01*
X156791708Y-91436554D01*
X156766847Y-91466847D01*
X156736554Y-91491708D01*
X156701995Y-91510180D01*
X156664499Y-91521555D01*
X156619362Y-91526000D01*
X155880638Y-91526000D01*
X155835501Y-91521555D01*
X155798005Y-91510180D01*
X155763446Y-91491708D01*
X155733153Y-91466847D01*
X155708292Y-91436554D01*
X155689820Y-91401995D01*
X155678445Y-91364499D01*
X155674000Y-91319362D01*
X155674000Y-90680638D01*
X155678445Y-90635501D01*
X155689820Y-90598005D01*
X155708292Y-90563446D01*
X155733153Y-90533153D01*
X155763446Y-90508292D01*
X155798005Y-90489820D01*
X155835501Y-90478445D01*
X155880638Y-90474000D01*
X156619362Y-90474000D01*
X156664499Y-90478445D01*
G37*
G36*
X186701000Y-90951000D02*
G01*
X184799000Y-90951000D01*
X184799000Y-89049000D01*
X186701000Y-89049000D01*
X186701000Y-90951000D01*
G37*
G36*
X182001000Y-90951000D02*
G01*
X179999000Y-90951000D01*
X179999000Y-90049000D01*
X182001000Y-90049000D01*
X182001000Y-90951000D01*
G37*
G36*
X82567395Y-89085546D02*
G01*
X82740466Y-89157234D01*
X82740467Y-89157235D01*
X82896227Y-89261310D01*
X83028690Y-89393773D01*
X83038941Y-89409115D01*
X83132766Y-89549534D01*
X83204454Y-89722605D01*
X83241000Y-89906333D01*
X83241000Y-90093667D01*
X83204454Y-90277395D01*
X83132766Y-90450466D01*
X83132765Y-90450467D01*
X83028690Y-90606227D01*
X82896227Y-90738690D01*
X82817818Y-90791081D01*
X82740466Y-90842766D01*
X82567395Y-90914454D01*
X82383667Y-90951000D01*
X82196333Y-90951000D01*
X82012605Y-90914454D01*
X81839534Y-90842766D01*
X81762182Y-90791081D01*
X81683773Y-90738690D01*
X81551310Y-90606227D01*
X81447235Y-90450467D01*
X81447234Y-90450466D01*
X81375546Y-90277395D01*
X81339000Y-90093667D01*
X81339000Y-89906333D01*
X81375546Y-89722605D01*
X81447234Y-89549534D01*
X81541059Y-89409115D01*
X81551310Y-89393773D01*
X81683773Y-89261310D01*
X81839533Y-89157235D01*
X81839534Y-89157234D01*
X82012605Y-89085546D01*
X82196333Y-89049000D01*
X82383667Y-89049000D01*
X82567395Y-89085546D01*
G37*
G36*
X80701000Y-90951000D02*
G01*
X78799000Y-90951000D01*
X78799000Y-89049000D01*
X80701000Y-89049000D01*
X80701000Y-90951000D01*
G37*
G36*
X188567395Y-89085546D02*
G01*
X188740466Y-89157234D01*
X188740467Y-89157235D01*
X188896227Y-89261310D01*
X189028690Y-89393773D01*
X189038941Y-89409115D01*
X189132766Y-89549534D01*
X189204454Y-89722605D01*
X189241000Y-89906333D01*
X189241000Y-90093667D01*
X189204454Y-90277395D01*
X189132766Y-90450466D01*
X189132765Y-90450467D01*
X189028690Y-90606227D01*
X188896227Y-90738690D01*
X188817818Y-90791081D01*
X188740466Y-90842766D01*
X188567395Y-90914454D01*
X188383667Y-90951000D01*
X188196333Y-90951000D01*
X188012605Y-90914454D01*
X187839534Y-90842766D01*
X187762182Y-90791081D01*
X187683773Y-90738690D01*
X187551310Y-90606227D01*
X187447235Y-90450467D01*
X187447234Y-90450466D01*
X187375546Y-90277395D01*
X187339000Y-90093667D01*
X187339000Y-89906333D01*
X187375546Y-89722605D01*
X187447234Y-89549534D01*
X187541059Y-89409115D01*
X187551310Y-89393773D01*
X187683773Y-89261310D01*
X187839533Y-89157235D01*
X187839534Y-89157234D01*
X188012605Y-89085546D01*
X188196333Y-89049000D01*
X188383667Y-89049000D01*
X188567395Y-89085546D01*
G37*
G36*
X176113062Y-88578181D02*
G01*
X176147981Y-88588774D01*
X176180163Y-88605976D01*
X176208373Y-88629127D01*
X176231524Y-88657337D01*
X176248726Y-88689519D01*
X176259319Y-88724438D01*
X176263500Y-88766895D01*
X176263500Y-90233105D01*
X176259319Y-90275562D01*
X176248726Y-90310481D01*
X176231524Y-90342663D01*
X176208373Y-90370873D01*
X176180163Y-90394024D01*
X176147981Y-90411226D01*
X176113062Y-90421819D01*
X176070605Y-90426000D01*
X174929395Y-90426000D01*
X174886938Y-90421819D01*
X174852019Y-90411226D01*
X174819837Y-90394024D01*
X174791627Y-90370873D01*
X174768476Y-90342663D01*
X174751274Y-90310481D01*
X174740681Y-90275562D01*
X174736500Y-90233105D01*
X174736500Y-88766895D01*
X174740681Y-88724438D01*
X174751274Y-88689519D01*
X174768476Y-88657337D01*
X174791627Y-88629127D01*
X174819837Y-88605976D01*
X174852019Y-88588774D01*
X174886938Y-88578181D01*
X174929395Y-88574000D01*
X176070605Y-88574000D01*
X176113062Y-88578181D01*
G37*
G36*
X173138062Y-88578181D02*
G01*
X173172981Y-88588774D01*
X173205163Y-88605976D01*
X173233373Y-88629127D01*
X173256524Y-88657337D01*
X173273726Y-88689519D01*
X173284319Y-88724438D01*
X173288500Y-88766895D01*
X173288500Y-90233105D01*
X173284319Y-90275562D01*
X173273726Y-90310481D01*
X173256524Y-90342663D01*
X173233373Y-90370873D01*
X173205163Y-90394024D01*
X173172981Y-90411226D01*
X173138062Y-90421819D01*
X173095605Y-90426000D01*
X171954395Y-90426000D01*
X171911938Y-90421819D01*
X171877019Y-90411226D01*
X171844837Y-90394024D01*
X171816627Y-90370873D01*
X171793476Y-90342663D01*
X171776274Y-90310481D01*
X171765681Y-90275562D01*
X171761500Y-90233105D01*
X171761500Y-88766895D01*
X171765681Y-88724438D01*
X171776274Y-88689519D01*
X171793476Y-88657337D01*
X171816627Y-88629127D01*
X171844837Y-88605976D01*
X171877019Y-88588774D01*
X171911938Y-88578181D01*
X171954395Y-88574000D01*
X173095605Y-88574000D01*
X173138062Y-88578181D01*
G37*
G36*
X200826366Y-86715695D02*
G01*
X200983460Y-86763349D01*
X201128231Y-86840731D01*
X201255128Y-86944872D01*
X201359269Y-87071769D01*
X201436651Y-87216540D01*
X201484305Y-87373634D01*
X201501000Y-87543140D01*
X201501000Y-89456860D01*
X201484305Y-89626366D01*
X201436651Y-89783460D01*
X201359269Y-89928231D01*
X201255128Y-90055128D01*
X201128231Y-90159269D01*
X200983460Y-90236651D01*
X200826366Y-90284305D01*
X200656860Y-90301000D01*
X198743140Y-90301000D01*
X198573634Y-90284305D01*
X198416540Y-90236651D01*
X198271769Y-90159269D01*
X198144872Y-90055128D01*
X198040731Y-89928231D01*
X197963349Y-89783460D01*
X197915695Y-89626366D01*
X197899000Y-89456860D01*
X197899000Y-87543140D01*
X197915695Y-87373634D01*
X197963349Y-87216540D01*
X198040731Y-87071769D01*
X198144872Y-86944872D01*
X198271769Y-86840731D01*
X198416540Y-86763349D01*
X198573634Y-86715695D01*
X198743140Y-86699000D01*
X200656860Y-86699000D01*
X200826366Y-86715695D01*
G37*
G36*
X154901000Y-90051000D02*
G01*
X153099000Y-90051000D01*
X153099000Y-87949000D01*
X154901000Y-87949000D01*
X154901000Y-90051000D01*
G37*
G36*
X179001000Y-90001000D02*
G01*
X176999000Y-90001000D01*
X176999000Y-89099000D01*
X179001000Y-89099000D01*
X179001000Y-90001000D01*
G37*
G36*
X162164499Y-88478445D02*
G01*
X162201995Y-88489820D01*
X162236554Y-88508292D01*
X162266847Y-88533153D01*
X162291708Y-88563446D01*
X162310180Y-88598005D01*
X162321555Y-88635501D01*
X162326000Y-88680638D01*
X162326000Y-89319362D01*
X162321555Y-89364499D01*
X162310180Y-89401995D01*
X162291708Y-89436554D01*
X162266847Y-89466847D01*
X162236554Y-89491708D01*
X162201995Y-89510180D01*
X162164499Y-89521555D01*
X162119362Y-89526000D01*
X161380638Y-89526000D01*
X161335501Y-89521555D01*
X161298005Y-89510180D01*
X161263446Y-89491708D01*
X161233153Y-89466847D01*
X161208292Y-89436554D01*
X161189820Y-89401995D01*
X161178445Y-89364499D01*
X161174000Y-89319362D01*
X161174000Y-88680638D01*
X161178445Y-88635501D01*
X161189820Y-88598005D01*
X161208292Y-88563446D01*
X161233153Y-88533153D01*
X161263446Y-88508292D01*
X161298005Y-88489820D01*
X161335501Y-88478445D01*
X161380638Y-88474000D01*
X162119362Y-88474000D01*
X162164499Y-88478445D01*
G37*
G36*
X160414499Y-88478445D02*
G01*
X160451995Y-88489820D01*
X160486554Y-88508292D01*
X160516847Y-88533153D01*
X160541708Y-88563446D01*
X160560180Y-88598005D01*
X160571555Y-88635501D01*
X160576000Y-88680638D01*
X160576000Y-89319362D01*
X160571555Y-89364499D01*
X160560180Y-89401995D01*
X160541708Y-89436554D01*
X160516847Y-89466847D01*
X160486554Y-89491708D01*
X160451995Y-89510180D01*
X160414499Y-89521555D01*
X160369362Y-89526000D01*
X159630638Y-89526000D01*
X159585501Y-89521555D01*
X159548005Y-89510180D01*
X159513446Y-89491708D01*
X159483153Y-89466847D01*
X159458292Y-89436554D01*
X159439820Y-89401995D01*
X159428445Y-89364499D01*
X159424000Y-89319362D01*
X159424000Y-88680638D01*
X159428445Y-88635501D01*
X159439820Y-88598005D01*
X159458292Y-88563446D01*
X159483153Y-88533153D01*
X159513446Y-88508292D01*
X159548005Y-88489820D01*
X159585501Y-88478445D01*
X159630638Y-88474000D01*
X160369362Y-88474000D01*
X160414499Y-88478445D01*
G37*
G36*
X142375256Y-84891298D02*
G01*
X142481579Y-84912447D01*
X142782042Y-85036903D01*
X143052451Y-85217585D01*
X143282415Y-85447549D01*
X143463097Y-85717958D01*
X143463098Y-85717960D01*
X143587553Y-86018422D01*
X143651000Y-86337389D01*
X143651000Y-86662611D01*
X143587553Y-86981578D01*
X143470985Y-87263000D01*
X143463097Y-87282042D01*
X143282415Y-87552451D01*
X143052451Y-87782415D01*
X142782042Y-87963097D01*
X142481579Y-88087553D01*
X142375256Y-88108702D01*
X142162611Y-88151000D01*
X141837389Y-88151000D01*
X141624744Y-88108702D01*
X141518421Y-88087553D01*
X141217958Y-87963097D01*
X140947549Y-87782415D01*
X140717585Y-87552451D01*
X140536903Y-87282042D01*
X140529016Y-87263000D01*
X140412447Y-86981578D01*
X140349000Y-86662611D01*
X140349000Y-86337389D01*
X140412447Y-86018422D01*
X140536902Y-85717960D01*
X140536903Y-85717958D01*
X140717585Y-85447549D01*
X140947549Y-85217585D01*
X141217958Y-85036903D01*
X141518421Y-84912447D01*
X141624744Y-84891298D01*
X141837389Y-84849000D01*
X142162611Y-84849000D01*
X142375256Y-84891298D01*
G37*
G36*
X102375256Y-84891298D02*
G01*
X102481579Y-84912447D01*
X102782042Y-85036903D01*
X103052451Y-85217585D01*
X103282415Y-85447549D01*
X103463097Y-85717958D01*
X103463098Y-85717960D01*
X103587553Y-86018422D01*
X103651000Y-86337389D01*
X103651000Y-86662611D01*
X103587553Y-86981578D01*
X103470985Y-87263000D01*
X103463097Y-87282042D01*
X103282415Y-87552451D01*
X103052451Y-87782415D01*
X102782042Y-87963097D01*
X102481579Y-88087553D01*
X102375256Y-88108702D01*
X102162611Y-88151000D01*
X101837389Y-88151000D01*
X101624744Y-88108702D01*
X101518421Y-88087553D01*
X101217958Y-87963097D01*
X100947549Y-87782415D01*
X100717585Y-87552451D01*
X100536903Y-87282042D01*
X100529016Y-87263000D01*
X100412447Y-86981578D01*
X100349000Y-86662611D01*
X100349000Y-86337389D01*
X100412447Y-86018422D01*
X100536902Y-85717960D01*
X100536903Y-85717958D01*
X100717585Y-85447549D01*
X100947549Y-85217585D01*
X101217958Y-85036903D01*
X101518421Y-84912447D01*
X101624744Y-84891298D01*
X101837389Y-84849000D01*
X102162611Y-84849000D01*
X102375256Y-84891298D01*
G37*
G36*
X162164499Y-86478445D02*
G01*
X162201995Y-86489820D01*
X162236554Y-86508292D01*
X162266847Y-86533153D01*
X162291708Y-86563446D01*
X162310180Y-86598005D01*
X162321555Y-86635501D01*
X162326000Y-86680638D01*
X162326000Y-87319362D01*
X162321555Y-87364499D01*
X162310180Y-87401995D01*
X162291708Y-87436554D01*
X162266847Y-87466847D01*
X162236554Y-87491708D01*
X162201995Y-87510180D01*
X162164499Y-87521555D01*
X162119362Y-87526000D01*
X161380638Y-87526000D01*
X161335501Y-87521555D01*
X161298005Y-87510180D01*
X161263446Y-87491708D01*
X161233153Y-87466847D01*
X161208292Y-87436554D01*
X161189820Y-87401995D01*
X161178445Y-87364499D01*
X161174000Y-87319362D01*
X161174000Y-86680638D01*
X161178445Y-86635501D01*
X161189820Y-86598005D01*
X161208292Y-86563446D01*
X161233153Y-86533153D01*
X161263446Y-86508292D01*
X161298005Y-86489820D01*
X161335501Y-86478445D01*
X161380638Y-86474000D01*
X162119362Y-86474000D01*
X162164499Y-86478445D01*
G37*
G36*
X160414499Y-86478445D02*
G01*
X160451995Y-86489820D01*
X160486554Y-86508292D01*
X160516847Y-86533153D01*
X160541708Y-86563446D01*
X160560180Y-86598005D01*
X160571555Y-86635501D01*
X160576000Y-86680638D01*
X160576000Y-87319362D01*
X160571555Y-87364499D01*
X160560180Y-87401995D01*
X160541708Y-87436554D01*
X160516847Y-87466847D01*
X160486554Y-87491708D01*
X160451995Y-87510180D01*
X160414499Y-87521555D01*
X160369362Y-87526000D01*
X159630638Y-87526000D01*
X159585501Y-87521555D01*
X159548005Y-87510180D01*
X159513446Y-87491708D01*
X159483153Y-87466847D01*
X159458292Y-87436554D01*
X159439820Y-87401995D01*
X159428445Y-87364499D01*
X159424000Y-87319362D01*
X159424000Y-86680638D01*
X159428445Y-86635501D01*
X159439820Y-86598005D01*
X159458292Y-86563446D01*
X159483153Y-86533153D01*
X159513446Y-86508292D01*
X159548005Y-86489820D01*
X159585501Y-86478445D01*
X159630638Y-86474000D01*
X160369362Y-86474000D01*
X160414499Y-86478445D01*
G37*
G36*
X72567395Y-84085546D02*
G01*
X72740466Y-84157234D01*
X72740467Y-84157235D01*
X72896227Y-84261310D01*
X73028690Y-84393773D01*
X73028691Y-84393775D01*
X73132766Y-84549534D01*
X73204454Y-84722605D01*
X73241000Y-84906333D01*
X73241000Y-85093667D01*
X73204454Y-85277395D01*
X73132766Y-85450466D01*
X73132765Y-85450467D01*
X73028690Y-85606227D01*
X72896227Y-85738690D01*
X72817818Y-85791081D01*
X72740466Y-85842766D01*
X72567395Y-85914454D01*
X72383667Y-85951000D01*
X72196333Y-85951000D01*
X72012605Y-85914454D01*
X71839534Y-85842766D01*
X71762182Y-85791081D01*
X71683773Y-85738690D01*
X71551310Y-85606227D01*
X71447235Y-85450467D01*
X71447234Y-85450466D01*
X71375546Y-85277395D01*
X71339000Y-85093667D01*
X71339000Y-84906333D01*
X71375546Y-84722605D01*
X71447234Y-84549534D01*
X71551309Y-84393775D01*
X71551310Y-84393773D01*
X71683773Y-84261310D01*
X71839533Y-84157235D01*
X71839534Y-84157234D01*
X72012605Y-84085546D01*
X72196333Y-84049000D01*
X72383667Y-84049000D01*
X72567395Y-84085546D01*
G37*
G36*
X199027395Y-84085546D02*
G01*
X199200466Y-84157234D01*
X199200467Y-84157235D01*
X199356227Y-84261310D01*
X199488690Y-84393773D01*
X199488691Y-84393775D01*
X199592766Y-84549534D01*
X199664454Y-84722605D01*
X199701000Y-84906333D01*
X199701000Y-85093667D01*
X199664454Y-85277395D01*
X199592766Y-85450466D01*
X199592765Y-85450467D01*
X199488690Y-85606227D01*
X199356227Y-85738690D01*
X199277818Y-85791081D01*
X199200466Y-85842766D01*
X199027395Y-85914454D01*
X198843667Y-85951000D01*
X198656333Y-85951000D01*
X198472605Y-85914454D01*
X198299534Y-85842766D01*
X198222182Y-85791081D01*
X198143773Y-85738690D01*
X198011310Y-85606227D01*
X197907235Y-85450467D01*
X197907234Y-85450466D01*
X197835546Y-85277395D01*
X197799000Y-85093667D01*
X197799000Y-84906333D01*
X197835546Y-84722605D01*
X197907234Y-84549534D01*
X198011309Y-84393775D01*
X198011310Y-84393773D01*
X198143773Y-84261310D01*
X198299533Y-84157235D01*
X198299534Y-84157234D01*
X198472605Y-84085546D01*
X198656333Y-84049000D01*
X198843667Y-84049000D01*
X199027395Y-84085546D01*
G37*
G36*
X197161000Y-85951000D02*
G01*
X195259000Y-85951000D01*
X195259000Y-84049000D01*
X197161000Y-84049000D01*
X197161000Y-85951000D01*
G37*
G36*
X70701000Y-85951000D02*
G01*
X68799000Y-85951000D01*
X68799000Y-84049000D01*
X70701000Y-84049000D01*
X70701000Y-85951000D01*
G37*
G36*
X165364499Y-84428445D02*
G01*
X165401995Y-84439820D01*
X165436554Y-84458292D01*
X165466847Y-84483153D01*
X165491708Y-84513446D01*
X165510180Y-84548005D01*
X165521555Y-84585501D01*
X165526000Y-84630638D01*
X165526000Y-85369362D01*
X165521555Y-85414499D01*
X165510180Y-85451995D01*
X165491708Y-85486554D01*
X165466847Y-85516847D01*
X165436554Y-85541708D01*
X165401995Y-85560180D01*
X165364499Y-85571555D01*
X165319362Y-85576000D01*
X164680638Y-85576000D01*
X164635501Y-85571555D01*
X164598005Y-85560180D01*
X164563446Y-85541708D01*
X164533153Y-85516847D01*
X164508292Y-85486554D01*
X164489820Y-85451995D01*
X164478445Y-85414499D01*
X164474000Y-85369362D01*
X164474000Y-84630638D01*
X164478445Y-84585501D01*
X164489820Y-84548005D01*
X164508292Y-84513446D01*
X164533153Y-84483153D01*
X164563446Y-84458292D01*
X164598005Y-84439820D01*
X164635501Y-84428445D01*
X164680638Y-84424000D01*
X165319362Y-84424000D01*
X165364499Y-84428445D01*
G37*
G36*
X163181000Y-85326000D02*
G01*
X161519000Y-85326000D01*
X161519000Y-84574000D01*
X163181000Y-84574000D01*
X163181000Y-85326000D01*
G37*
G36*
X160481000Y-85326000D02*
G01*
X158819000Y-85326000D01*
X158819000Y-82674000D01*
X160481000Y-82674000D01*
X160481000Y-85326000D01*
G37*
G36*
X154901000Y-84051000D02*
G01*
X153099000Y-84051000D01*
X153099000Y-81949000D01*
X154901000Y-81949000D01*
X154901000Y-84051000D01*
G37*
G36*
X165364499Y-82678445D02*
G01*
X165401995Y-82689820D01*
X165436554Y-82708292D01*
X165466847Y-82733153D01*
X165491708Y-82763446D01*
X165510180Y-82798005D01*
X165521555Y-82835501D01*
X165526000Y-82880638D01*
X165526000Y-83619362D01*
X165521555Y-83664499D01*
X165510180Y-83701995D01*
X165491708Y-83736554D01*
X165466847Y-83766847D01*
X165436554Y-83791708D01*
X165401995Y-83810180D01*
X165364499Y-83821555D01*
X165319362Y-83826000D01*
X164680638Y-83826000D01*
X164635501Y-83821555D01*
X164598005Y-83810180D01*
X164563446Y-83791708D01*
X164533153Y-83766847D01*
X164508292Y-83736554D01*
X164489820Y-83701995D01*
X164478445Y-83664499D01*
X164474000Y-83619362D01*
X164474000Y-82880638D01*
X164478445Y-82835501D01*
X164489820Y-82798005D01*
X164508292Y-82763446D01*
X164533153Y-82733153D01*
X164563446Y-82708292D01*
X164598005Y-82689820D01*
X164635501Y-82678445D01*
X164680638Y-82674000D01*
X165319362Y-82674000D01*
X165364499Y-82678445D01*
G37*
G36*
X163181000Y-83426000D02*
G01*
X161519000Y-83426000D01*
X161519000Y-82674000D01*
X163181000Y-82674000D01*
X163181000Y-83426000D01*
G37*
G36*
X89701000Y-82951000D02*
G01*
X87799000Y-82951000D01*
X87799000Y-81049000D01*
X89701000Y-81049000D01*
X89701000Y-82951000D01*
G37*
G36*
X179567395Y-81085546D02*
G01*
X179740466Y-81157234D01*
X179740467Y-81157235D01*
X179896227Y-81261310D01*
X180028690Y-81393773D01*
X180028691Y-81393775D01*
X180132766Y-81549534D01*
X180204454Y-81722605D01*
X180241000Y-81906333D01*
X180241000Y-82093667D01*
X180204454Y-82277395D01*
X180132766Y-82450466D01*
X180132765Y-82450467D01*
X180028690Y-82606227D01*
X179896227Y-82738690D01*
X179877757Y-82751031D01*
X179740466Y-82842766D01*
X179567395Y-82914454D01*
X179383667Y-82951000D01*
X179196333Y-82951000D01*
X179012605Y-82914454D01*
X178839534Y-82842766D01*
X178702243Y-82751031D01*
X178683773Y-82738690D01*
X178551310Y-82606227D01*
X178447235Y-82450467D01*
X178447234Y-82450466D01*
X178375546Y-82277395D01*
X178339000Y-82093667D01*
X178339000Y-81906333D01*
X178375546Y-81722605D01*
X178447234Y-81549534D01*
X178551309Y-81393775D01*
X178551310Y-81393773D01*
X178683773Y-81261310D01*
X178839533Y-81157235D01*
X178839534Y-81157234D01*
X179012605Y-81085546D01*
X179196333Y-81049000D01*
X179383667Y-81049000D01*
X179567395Y-81085546D01*
G37*
G36*
X177701000Y-82951000D02*
G01*
X175799000Y-82951000D01*
X175799000Y-81049000D01*
X177701000Y-81049000D01*
X177701000Y-82951000D01*
G37*
G36*
X91567395Y-81085546D02*
G01*
X91740466Y-81157234D01*
X91740467Y-81157235D01*
X91896227Y-81261310D01*
X92028690Y-81393773D01*
X92028691Y-81393775D01*
X92132766Y-81549534D01*
X92204454Y-81722605D01*
X92241000Y-81906333D01*
X92241000Y-82093667D01*
X92204454Y-82277395D01*
X92132766Y-82450466D01*
X92132765Y-82450467D01*
X92028690Y-82606227D01*
X91896227Y-82738690D01*
X91877757Y-82751031D01*
X91740466Y-82842766D01*
X91567395Y-82914454D01*
X91383667Y-82951000D01*
X91196333Y-82951000D01*
X91012605Y-82914454D01*
X90839534Y-82842766D01*
X90702243Y-82751031D01*
X90683773Y-82738690D01*
X90551310Y-82606227D01*
X90447235Y-82450467D01*
X90447234Y-82450466D01*
X90375546Y-82277395D01*
X90339000Y-82093667D01*
X90339000Y-81906333D01*
X90375546Y-81722605D01*
X90447234Y-81549534D01*
X90551309Y-81393775D01*
X90551310Y-81393773D01*
X90683773Y-81261310D01*
X90839533Y-81157235D01*
X90839534Y-81157234D01*
X91012605Y-81085546D01*
X91196333Y-81049000D01*
X91383667Y-81049000D01*
X91567395Y-81085546D01*
G37*
M02*
