G04 #@! TF.GenerationSoftware,KiCad,Pcbnew,(5.1.5)-3*
G04 #@! TF.CreationDate,2021-05-10T18:35:56+02:00*
G04 #@! TF.ProjectId,kicad,6b696361-642e-46b6-9963-61645f706362,rev?*
G04 #@! TF.SameCoordinates,Original*
G04 #@! TF.FileFunction,Copper,L1,Top*
G04 #@! TF.FilePolarity,Positive*
%FSLAX46Y46*%
G04 Gerber Fmt 4.6, Leading zero omitted, Abs format (unit mm)*
G04 Created by KiCad (PCBNEW (5.1.5)-3) date 2021-05-10 18:35:56*
%MOMM*%
%LPD*%
G04 APERTURE LIST*
%ADD10C,0.100000*%
%ADD11R,3.500000X3.500000*%
%ADD12C,1.800000*%
%ADD13R,1.800000X1.800000*%
%ADD14C,0.800000*%
%ADD15C,0.400000*%
%ADD16C,0.254000*%
G04 APERTURE END LIST*
G04 #@! TA.AperFunction,ComponentPad*
D10*
G36*
X200660765Y-86754213D02*
G01*
X200745704Y-86766813D01*
X200828999Y-86787677D01*
X200909848Y-86816605D01*
X200987472Y-86853319D01*
X201061124Y-86897464D01*
X201130094Y-86948616D01*
X201193718Y-87006282D01*
X201251384Y-87069906D01*
X201302536Y-87138876D01*
X201346681Y-87212528D01*
X201383395Y-87290152D01*
X201412323Y-87371001D01*
X201433187Y-87454296D01*
X201445787Y-87539235D01*
X201450000Y-87625000D01*
X201450000Y-89375000D01*
X201445787Y-89460765D01*
X201433187Y-89545704D01*
X201412323Y-89628999D01*
X201383395Y-89709848D01*
X201346681Y-89787472D01*
X201302536Y-89861124D01*
X201251384Y-89930094D01*
X201193718Y-89993718D01*
X201130094Y-90051384D01*
X201061124Y-90102536D01*
X200987472Y-90146681D01*
X200909848Y-90183395D01*
X200828999Y-90212323D01*
X200745704Y-90233187D01*
X200660765Y-90245787D01*
X200575000Y-90250000D01*
X198825000Y-90250000D01*
X198739235Y-90245787D01*
X198654296Y-90233187D01*
X198571001Y-90212323D01*
X198490152Y-90183395D01*
X198412528Y-90146681D01*
X198338876Y-90102536D01*
X198269906Y-90051384D01*
X198206282Y-89993718D01*
X198148616Y-89930094D01*
X198097464Y-89861124D01*
X198053319Y-89787472D01*
X198016605Y-89709848D01*
X197987677Y-89628999D01*
X197966813Y-89545704D01*
X197954213Y-89460765D01*
X197950000Y-89375000D01*
X197950000Y-87625000D01*
X197954213Y-87539235D01*
X197966813Y-87454296D01*
X197987677Y-87371001D01*
X198016605Y-87290152D01*
X198053319Y-87212528D01*
X198097464Y-87138876D01*
X198148616Y-87069906D01*
X198206282Y-87006282D01*
X198269906Y-86948616D01*
X198338876Y-86897464D01*
X198412528Y-86853319D01*
X198490152Y-86816605D01*
X198571001Y-86787677D01*
X198654296Y-86766813D01*
X198739235Y-86754213D01*
X198825000Y-86750000D01*
X200575000Y-86750000D01*
X200660765Y-86754213D01*
G37*
G04 #@! TD.AperFunction*
D11*
X195000000Y-91500000D03*
D12*
X72290000Y-85000000D03*
D13*
X69750000Y-85000000D03*
D12*
X91290000Y-82000000D03*
D13*
X88750000Y-82000000D03*
D12*
X76290000Y-101000000D03*
D13*
X73750000Y-101000000D03*
D12*
X82290000Y-90000000D03*
D13*
X79750000Y-90000000D03*
D12*
X82290000Y-140000000D03*
D13*
X79750000Y-140000000D03*
D12*
X76290000Y-129500000D03*
D13*
X73750000Y-129500000D03*
D12*
X91290000Y-148000000D03*
D13*
X88750000Y-148000000D03*
D12*
X72290000Y-145000000D03*
D13*
X69750000Y-145000000D03*
D12*
X198290000Y-145000000D03*
D13*
X195750000Y-145000000D03*
D12*
X179290000Y-148000000D03*
D13*
X176750000Y-148000000D03*
D12*
X194290000Y-129000000D03*
D13*
X191750000Y-129000000D03*
D12*
X188290000Y-140000000D03*
D13*
X185750000Y-140000000D03*
D12*
X188290000Y-90000000D03*
D13*
X185750000Y-90000000D03*
D12*
X194290000Y-101000000D03*
D13*
X191750000Y-101000000D03*
D12*
X179290000Y-82000000D03*
D13*
X176750000Y-82000000D03*
D12*
X198750000Y-85000000D03*
D13*
X196210000Y-85000000D03*
D14*
X146000000Y-97000000D03*
X146000000Y-101000006D03*
X132250000Y-132250000D03*
X129250000Y-135250000D03*
X115000000Y-108500000D03*
X116500000Y-106000000D03*
X106000000Y-112000000D03*
X157000000Y-99000000D03*
X158000000Y-85000000D03*
X167000006Y-83000000D03*
X165999982Y-97000000D03*
X160000000Y-129000000D03*
X152000000Y-107000000D03*
X153000000Y-107000000D03*
X154000000Y-107000000D03*
X155000000Y-107000000D03*
X155000000Y-108000000D03*
X154000000Y-108000000D03*
X153000000Y-108000000D03*
X152000000Y-108000000D03*
X137000000Y-127000000D03*
X105000000Y-129000000D03*
X107000000Y-101000000D03*
X101000000Y-100000000D03*
X165000000Y-122000000D03*
X174000000Y-123500000D03*
X154000000Y-91000000D03*
X153000000Y-91000000D03*
X152000000Y-91000000D03*
X151000000Y-91000000D03*
X151000000Y-92000000D03*
X152000000Y-92000000D03*
X153000000Y-92000000D03*
X154000000Y-92000000D03*
X181000000Y-97500000D03*
X182500000Y-96500000D03*
X118500000Y-112000000D03*
X113000000Y-119000000D03*
X119500000Y-119500000D03*
X117000000Y-122000000D03*
D15*
X146000000Y-97000000D02*
X146000000Y-101000006D01*
X132250000Y-132250000D02*
X129250000Y-135250000D01*
X115000000Y-108500000D02*
X115000000Y-107500000D01*
X115000000Y-107500000D02*
X116500000Y-106000000D01*
X115000000Y-108500000D02*
X109500000Y-108500000D01*
X109500000Y-108500000D02*
X106000000Y-112000000D01*
X160000000Y-83000000D02*
X167000006Y-83000000D01*
X158000000Y-85000000D02*
X160000000Y-83000000D01*
X157000000Y-99000000D02*
X159000000Y-97000000D01*
X159000000Y-97000000D02*
X165999982Y-97000000D01*
X176750000Y-82000000D02*
X176750000Y-93250000D01*
X176750000Y-93250000D02*
X180600001Y-97100001D01*
X180600001Y-97100001D02*
X181000000Y-97500000D01*
X196210000Y-85000000D02*
X186250000Y-85000000D01*
X182500000Y-88750000D02*
X182500000Y-95934315D01*
X182500000Y-95934315D02*
X182500000Y-96500000D01*
X186250000Y-85000000D02*
X182500000Y-88750000D01*
X118500000Y-112000000D02*
X113000000Y-117500000D01*
X113000000Y-117500000D02*
X113000000Y-119000000D01*
X119500000Y-119500000D02*
X117000000Y-122000000D01*
D16*
G36*
X199768083Y-78731173D02*
G01*
X200511891Y-78934656D01*
X201207905Y-79266638D01*
X201834130Y-79716626D01*
X202370777Y-80270403D01*
X202800871Y-80910451D01*
X203110829Y-81616553D01*
X203292065Y-82371457D01*
X203340001Y-83024220D01*
X203340000Y-95654191D01*
X195820537Y-100859974D01*
X195788397Y-100634093D01*
X195688222Y-100348801D01*
X195608261Y-100199208D01*
X195354080Y-100115525D01*
X194469605Y-101000000D01*
X194483748Y-101014143D01*
X194304143Y-101193748D01*
X194290000Y-101179605D01*
X194275858Y-101193748D01*
X194096253Y-101014143D01*
X194110395Y-101000000D01*
X194096253Y-100985858D01*
X194275858Y-100806253D01*
X194290000Y-100820395D01*
X195174475Y-99935920D01*
X195090792Y-99681739D01*
X194818225Y-99550842D01*
X194525358Y-99475635D01*
X194223447Y-99459009D01*
X193924093Y-99501603D01*
X193638801Y-99601778D01*
X193489208Y-99681739D01*
X193405526Y-99935918D01*
X193289578Y-99819970D01*
X193242813Y-99866735D01*
X193239502Y-99855820D01*
X193180537Y-99745506D01*
X193101185Y-99648815D01*
X193004494Y-99569463D01*
X192894180Y-99510498D01*
X192774482Y-99474188D01*
X192650000Y-99461928D01*
X190850000Y-99461928D01*
X190725518Y-99474188D01*
X190605820Y-99510498D01*
X190495506Y-99569463D01*
X190398815Y-99648815D01*
X190319463Y-99745506D01*
X190260498Y-99855820D01*
X190224188Y-99975518D01*
X190211928Y-100100000D01*
X190211928Y-101900000D01*
X190224188Y-102024482D01*
X190260498Y-102144180D01*
X190319463Y-102254494D01*
X190398815Y-102351185D01*
X190495506Y-102430537D01*
X190605820Y-102489502D01*
X190725518Y-102525812D01*
X190850000Y-102538072D01*
X192650000Y-102538072D01*
X192774482Y-102525812D01*
X192894180Y-102489502D01*
X193004494Y-102430537D01*
X193101185Y-102351185D01*
X193180537Y-102254494D01*
X193239502Y-102144180D01*
X193242813Y-102133265D01*
X193289578Y-102180030D01*
X193405526Y-102064082D01*
X193489208Y-102318261D01*
X193622004Y-102382035D01*
X190655470Y-104435790D01*
X190631550Y-104448575D01*
X190602148Y-104472705D01*
X190597667Y-104475807D01*
X190577113Y-104493250D01*
X190531052Y-104531052D01*
X190527567Y-104535299D01*
X190523380Y-104538852D01*
X190486372Y-104585495D01*
X190448575Y-104631551D01*
X190445985Y-104636397D01*
X190442573Y-104640697D01*
X190415372Y-104693669D01*
X190387290Y-104746208D01*
X190385696Y-104751463D01*
X190383187Y-104756349D01*
X190366845Y-104813604D01*
X190349550Y-104870618D01*
X190349011Y-104876087D01*
X190347505Y-104881365D01*
X190342649Y-104940688D01*
X190340000Y-104967582D01*
X190340000Y-104973045D01*
X190336898Y-105010939D01*
X190340000Y-105037871D01*
X190340001Y-121955319D01*
X190337262Y-121975455D01*
X190340001Y-122020185D01*
X190340001Y-122032419D01*
X190341981Y-122052527D01*
X190345208Y-122105219D01*
X190348344Y-122117127D01*
X190349551Y-122129383D01*
X190364875Y-122179897D01*
X190378317Y-122230941D01*
X190383717Y-122242010D01*
X190387291Y-122253793D01*
X190412168Y-122300334D01*
X190435316Y-122347788D01*
X190442773Y-122357593D01*
X190448576Y-122368450D01*
X190482053Y-122409242D01*
X190494297Y-122425341D01*
X190502632Y-122434318D01*
X190531053Y-122468948D01*
X190546756Y-122481835D01*
X203340000Y-136259176D01*
X203340001Y-144970597D01*
X203268827Y-145768083D01*
X203065344Y-146511890D01*
X202733363Y-147207904D01*
X202283374Y-147834130D01*
X201729597Y-148370777D01*
X201089549Y-148800871D01*
X200383447Y-149110829D01*
X199628543Y-149292065D01*
X198975793Y-149340000D01*
X180050122Y-149340000D01*
X180090792Y-149318261D01*
X180174475Y-149064080D01*
X179290000Y-148179605D01*
X179275858Y-148193748D01*
X179096253Y-148014143D01*
X179110395Y-148000000D01*
X179469605Y-148000000D01*
X180354080Y-148884475D01*
X180608261Y-148800792D01*
X180739158Y-148528225D01*
X180814365Y-148235358D01*
X180830991Y-147933447D01*
X180788397Y-147634093D01*
X180688222Y-147348801D01*
X180608261Y-147199208D01*
X180354080Y-147115525D01*
X179469605Y-148000000D01*
X179110395Y-148000000D01*
X179096253Y-147985858D01*
X179275858Y-147806253D01*
X179290000Y-147820395D01*
X180174475Y-146935920D01*
X180090792Y-146681739D01*
X179818225Y-146550842D01*
X179525358Y-146475635D01*
X179223447Y-146459009D01*
X178924093Y-146501603D01*
X178638801Y-146601778D01*
X178489208Y-146681739D01*
X178405526Y-146935918D01*
X178289578Y-146819970D01*
X178242813Y-146866735D01*
X178239502Y-146855820D01*
X178180537Y-146745506D01*
X178101185Y-146648815D01*
X178004494Y-146569463D01*
X177894180Y-146510498D01*
X177774482Y-146474188D01*
X177650000Y-146461928D01*
X176627000Y-146461928D01*
X176627000Y-144100000D01*
X194211928Y-144100000D01*
X194211928Y-145900000D01*
X194224188Y-146024482D01*
X194260498Y-146144180D01*
X194319463Y-146254494D01*
X194398815Y-146351185D01*
X194495506Y-146430537D01*
X194605820Y-146489502D01*
X194725518Y-146525812D01*
X194850000Y-146538072D01*
X196650000Y-146538072D01*
X196774482Y-146525812D01*
X196894180Y-146489502D01*
X197004494Y-146430537D01*
X197101185Y-146351185D01*
X197180537Y-146254494D01*
X197239502Y-146144180D01*
X197242813Y-146133265D01*
X197289578Y-146180030D01*
X197405526Y-146064082D01*
X197489208Y-146318261D01*
X197761775Y-146449158D01*
X198054642Y-146524365D01*
X198356553Y-146540991D01*
X198655907Y-146498397D01*
X198941199Y-146398222D01*
X199090792Y-146318261D01*
X199174475Y-146064080D01*
X198290000Y-145179605D01*
X198275858Y-145193748D01*
X198096253Y-145014143D01*
X198110395Y-145000000D01*
X198469605Y-145000000D01*
X199354080Y-145884475D01*
X199608261Y-145800792D01*
X199739158Y-145528225D01*
X199814365Y-145235358D01*
X199830991Y-144933447D01*
X199788397Y-144634093D01*
X199688222Y-144348801D01*
X199608261Y-144199208D01*
X199354080Y-144115525D01*
X198469605Y-145000000D01*
X198110395Y-145000000D01*
X198096253Y-144985858D01*
X198275858Y-144806253D01*
X198290000Y-144820395D01*
X199174475Y-143935920D01*
X199090792Y-143681739D01*
X198818225Y-143550842D01*
X198525358Y-143475635D01*
X198223447Y-143459009D01*
X197924093Y-143501603D01*
X197638801Y-143601778D01*
X197489208Y-143681739D01*
X197405526Y-143935918D01*
X197289578Y-143819970D01*
X197242813Y-143866735D01*
X197239502Y-143855820D01*
X197180537Y-143745506D01*
X197101185Y-143648815D01*
X197004494Y-143569463D01*
X196894180Y-143510498D01*
X196774482Y-143474188D01*
X196650000Y-143461928D01*
X194850000Y-143461928D01*
X194725518Y-143474188D01*
X194605820Y-143510498D01*
X194495506Y-143569463D01*
X194398815Y-143648815D01*
X194319463Y-143745506D01*
X194260498Y-143855820D01*
X194224188Y-143975518D01*
X194211928Y-144100000D01*
X176627000Y-144100000D01*
X176627000Y-139100000D01*
X184211928Y-139100000D01*
X184211928Y-140900000D01*
X184224188Y-141024482D01*
X184260498Y-141144180D01*
X184319463Y-141254494D01*
X184398815Y-141351185D01*
X184495506Y-141430537D01*
X184605820Y-141489502D01*
X184725518Y-141525812D01*
X184850000Y-141538072D01*
X186650000Y-141538072D01*
X186774482Y-141525812D01*
X186894180Y-141489502D01*
X187004494Y-141430537D01*
X187101185Y-141351185D01*
X187180537Y-141254494D01*
X187239502Y-141144180D01*
X187242813Y-141133265D01*
X187289578Y-141180030D01*
X187405526Y-141064082D01*
X187489208Y-141318261D01*
X187761775Y-141449158D01*
X188054642Y-141524365D01*
X188356553Y-141540991D01*
X188655907Y-141498397D01*
X188941199Y-141398222D01*
X189090792Y-141318261D01*
X189174475Y-141064080D01*
X188290000Y-140179605D01*
X188275858Y-140193748D01*
X188096253Y-140014143D01*
X188110395Y-140000000D01*
X188469605Y-140000000D01*
X189354080Y-140884475D01*
X189608261Y-140800792D01*
X189739158Y-140528225D01*
X189814365Y-140235358D01*
X189830991Y-139933447D01*
X189788397Y-139634093D01*
X189688222Y-139348801D01*
X189608261Y-139199208D01*
X189354080Y-139115525D01*
X188469605Y-140000000D01*
X188110395Y-140000000D01*
X188096253Y-139985858D01*
X188275858Y-139806253D01*
X188290000Y-139820395D01*
X189174475Y-138935920D01*
X189090792Y-138681739D01*
X188818225Y-138550842D01*
X188525358Y-138475635D01*
X188223447Y-138459009D01*
X187924093Y-138501603D01*
X187638801Y-138601778D01*
X187489208Y-138681739D01*
X187405526Y-138935918D01*
X187289578Y-138819970D01*
X187242813Y-138866735D01*
X187239502Y-138855820D01*
X187180537Y-138745506D01*
X187101185Y-138648815D01*
X187004494Y-138569463D01*
X186894180Y-138510498D01*
X186774482Y-138474188D01*
X186650000Y-138461928D01*
X184850000Y-138461928D01*
X184725518Y-138474188D01*
X184605820Y-138510498D01*
X184495506Y-138569463D01*
X184398815Y-138648815D01*
X184319463Y-138745506D01*
X184260498Y-138855820D01*
X184224188Y-138975518D01*
X184211928Y-139100000D01*
X176627000Y-139100000D01*
X176627000Y-128100000D01*
X190211928Y-128100000D01*
X190211928Y-129900000D01*
X190224188Y-130024482D01*
X190260498Y-130144180D01*
X190319463Y-130254494D01*
X190398815Y-130351185D01*
X190495506Y-130430537D01*
X190605820Y-130489502D01*
X190725518Y-130525812D01*
X190850000Y-130538072D01*
X192650000Y-130538072D01*
X192774482Y-130525812D01*
X192894180Y-130489502D01*
X193004494Y-130430537D01*
X193101185Y-130351185D01*
X193180537Y-130254494D01*
X193239502Y-130144180D01*
X193242813Y-130133265D01*
X193289578Y-130180030D01*
X193405526Y-130064082D01*
X193489208Y-130318261D01*
X193761775Y-130449158D01*
X194054642Y-130524365D01*
X194356553Y-130540991D01*
X194655907Y-130498397D01*
X194941199Y-130398222D01*
X195090792Y-130318261D01*
X195174475Y-130064080D01*
X194290000Y-129179605D01*
X194275858Y-129193748D01*
X194096253Y-129014143D01*
X194110395Y-129000000D01*
X194469605Y-129000000D01*
X195354080Y-129884475D01*
X195608261Y-129800792D01*
X195739158Y-129528225D01*
X195814365Y-129235358D01*
X195830991Y-128933447D01*
X195788397Y-128634093D01*
X195688222Y-128348801D01*
X195608261Y-128199208D01*
X195354080Y-128115525D01*
X194469605Y-129000000D01*
X194110395Y-129000000D01*
X194096253Y-128985858D01*
X194275858Y-128806253D01*
X194290000Y-128820395D01*
X195174475Y-127935920D01*
X195090792Y-127681739D01*
X194818225Y-127550842D01*
X194525358Y-127475635D01*
X194223447Y-127459009D01*
X193924093Y-127501603D01*
X193638801Y-127601778D01*
X193489208Y-127681739D01*
X193405526Y-127935918D01*
X193289578Y-127819970D01*
X193242813Y-127866735D01*
X193239502Y-127855820D01*
X193180537Y-127745506D01*
X193101185Y-127648815D01*
X193004494Y-127569463D01*
X192894180Y-127510498D01*
X192774482Y-127474188D01*
X192650000Y-127461928D01*
X190850000Y-127461928D01*
X190725518Y-127474188D01*
X190605820Y-127510498D01*
X190495506Y-127569463D01*
X190398815Y-127648815D01*
X190319463Y-127745506D01*
X190260498Y-127855820D01*
X190224188Y-127975518D01*
X190211928Y-128100000D01*
X176627000Y-128100000D01*
X176627000Y-99250000D01*
X176605345Y-99030133D01*
X176541212Y-98818716D01*
X176437066Y-98623872D01*
X176296909Y-98453091D01*
X176126128Y-98312934D01*
X175931284Y-98208788D01*
X175719867Y-98144655D01*
X175500000Y-98123000D01*
X159057868Y-98123000D01*
X159345868Y-97835000D01*
X165386697Y-97835000D01*
X165509726Y-97917205D01*
X165698084Y-97995226D01*
X165898043Y-98035000D01*
X166101921Y-98035000D01*
X166301880Y-97995226D01*
X166490238Y-97917205D01*
X166659756Y-97803937D01*
X166803919Y-97659774D01*
X166917187Y-97490256D01*
X166995208Y-97301898D01*
X167034982Y-97101939D01*
X167034982Y-96898061D01*
X166995208Y-96698102D01*
X166917187Y-96509744D01*
X166803919Y-96340226D01*
X166659756Y-96196063D01*
X166490238Y-96082795D01*
X166301880Y-96004774D01*
X166101921Y-95965000D01*
X165898043Y-95965000D01*
X165698084Y-96004774D01*
X165509726Y-96082795D01*
X165386697Y-96165000D01*
X159041018Y-96165000D01*
X158999999Y-96160960D01*
X158958981Y-96165000D01*
X158836311Y-96177082D01*
X158678913Y-96224828D01*
X158533854Y-96302364D01*
X158406709Y-96406709D01*
X158380559Y-96438573D01*
X156843225Y-97975907D01*
X156698102Y-98004774D01*
X156509744Y-98082795D01*
X156449573Y-98123000D01*
X146835000Y-98123000D01*
X146835000Y-97613285D01*
X146917205Y-97490256D01*
X146995226Y-97301898D01*
X147035000Y-97101939D01*
X147035000Y-96898061D01*
X146995226Y-96698102D01*
X146917205Y-96509744D01*
X146803937Y-96340226D01*
X146659774Y-96196063D01*
X146490256Y-96082795D01*
X146301898Y-96004774D01*
X146101939Y-95965000D01*
X145898061Y-95965000D01*
X145698102Y-96004774D01*
X145509744Y-96082795D01*
X145340226Y-96196063D01*
X145196063Y-96340226D01*
X145082795Y-96509744D01*
X145004774Y-96698102D01*
X144965000Y-96898061D01*
X144965000Y-97101939D01*
X145004774Y-97301898D01*
X145082795Y-97490256D01*
X145165000Y-97613285D01*
X145165000Y-98123000D01*
X99750000Y-98123000D01*
X99537476Y-98143220D01*
X99325638Y-98205947D01*
X99130107Y-98308798D01*
X98958399Y-98447818D01*
X98817111Y-98617665D01*
X98711674Y-98811813D01*
X98646139Y-99022800D01*
X98623025Y-99242518D01*
X98618839Y-99873000D01*
X85750000Y-99873000D01*
X85725224Y-99875440D01*
X85701399Y-99882667D01*
X85679443Y-99894403D01*
X85660197Y-99910197D01*
X85644403Y-99929443D01*
X85632667Y-99951399D01*
X85625440Y-99975224D01*
X85623000Y-100000000D01*
X85623000Y-128500000D01*
X85625440Y-128524776D01*
X85632667Y-128548601D01*
X85644403Y-128570557D01*
X85660197Y-128589803D01*
X85679443Y-128605597D01*
X85701399Y-128617333D01*
X85725224Y-128624560D01*
X85750000Y-128627000D01*
X98427937Y-128627000D01*
X98292728Y-148992518D01*
X98314358Y-149219867D01*
X98350800Y-149340000D01*
X92050122Y-149340000D01*
X92090792Y-149318261D01*
X92174475Y-149064080D01*
X91290000Y-148179605D01*
X91275858Y-148193748D01*
X91096253Y-148014143D01*
X91110395Y-148000000D01*
X91469605Y-148000000D01*
X92354080Y-148884475D01*
X92608261Y-148800792D01*
X92739158Y-148528225D01*
X92814365Y-148235358D01*
X92830991Y-147933447D01*
X92788397Y-147634093D01*
X92688222Y-147348801D01*
X92608261Y-147199208D01*
X92354080Y-147115525D01*
X91469605Y-148000000D01*
X91110395Y-148000000D01*
X91096253Y-147985858D01*
X91275858Y-147806253D01*
X91290000Y-147820395D01*
X92174475Y-146935920D01*
X92090792Y-146681739D01*
X91818225Y-146550842D01*
X91525358Y-146475635D01*
X91223447Y-146459009D01*
X90924093Y-146501603D01*
X90638801Y-146601778D01*
X90489208Y-146681739D01*
X90405526Y-146935918D01*
X90289578Y-146819970D01*
X90242813Y-146866735D01*
X90239502Y-146855820D01*
X90180537Y-146745506D01*
X90101185Y-146648815D01*
X90004494Y-146569463D01*
X89894180Y-146510498D01*
X89774482Y-146474188D01*
X89650000Y-146461928D01*
X87850000Y-146461928D01*
X87725518Y-146474188D01*
X87605820Y-146510498D01*
X87495506Y-146569463D01*
X87398815Y-146648815D01*
X87319463Y-146745506D01*
X87260498Y-146855820D01*
X87224188Y-146975518D01*
X87211928Y-147100000D01*
X87211928Y-148900000D01*
X87224188Y-149024482D01*
X87260498Y-149144180D01*
X87319463Y-149254494D01*
X87389636Y-149340000D01*
X69029392Y-149340000D01*
X68231917Y-149268827D01*
X67488110Y-149065344D01*
X66792096Y-148733363D01*
X66165870Y-148283374D01*
X65629223Y-147729597D01*
X65199129Y-147089549D01*
X64889171Y-146383447D01*
X64707935Y-145628543D01*
X64660000Y-144975793D01*
X64660000Y-144100000D01*
X68211928Y-144100000D01*
X68211928Y-145900000D01*
X68224188Y-146024482D01*
X68260498Y-146144180D01*
X68319463Y-146254494D01*
X68398815Y-146351185D01*
X68495506Y-146430537D01*
X68605820Y-146489502D01*
X68725518Y-146525812D01*
X68850000Y-146538072D01*
X70650000Y-146538072D01*
X70774482Y-146525812D01*
X70894180Y-146489502D01*
X71004494Y-146430537D01*
X71101185Y-146351185D01*
X71180537Y-146254494D01*
X71239502Y-146144180D01*
X71242813Y-146133265D01*
X71289578Y-146180030D01*
X71405526Y-146064082D01*
X71489208Y-146318261D01*
X71761775Y-146449158D01*
X72054642Y-146524365D01*
X72356553Y-146540991D01*
X72655907Y-146498397D01*
X72941199Y-146398222D01*
X73090792Y-146318261D01*
X73174475Y-146064080D01*
X72290000Y-145179605D01*
X72275858Y-145193748D01*
X72096253Y-145014143D01*
X72110395Y-145000000D01*
X72469605Y-145000000D01*
X73354080Y-145884475D01*
X73608261Y-145800792D01*
X73739158Y-145528225D01*
X73814365Y-145235358D01*
X73830991Y-144933447D01*
X73788397Y-144634093D01*
X73688222Y-144348801D01*
X73608261Y-144199208D01*
X73354080Y-144115525D01*
X72469605Y-145000000D01*
X72110395Y-145000000D01*
X72096253Y-144985858D01*
X72275858Y-144806253D01*
X72290000Y-144820395D01*
X73174475Y-143935920D01*
X73090792Y-143681739D01*
X72818225Y-143550842D01*
X72525358Y-143475635D01*
X72223447Y-143459009D01*
X71924093Y-143501603D01*
X71638801Y-143601778D01*
X71489208Y-143681739D01*
X71405526Y-143935918D01*
X71289578Y-143819970D01*
X71242813Y-143866735D01*
X71239502Y-143855820D01*
X71180537Y-143745506D01*
X71101185Y-143648815D01*
X71004494Y-143569463D01*
X70894180Y-143510498D01*
X70774482Y-143474188D01*
X70650000Y-143461928D01*
X68850000Y-143461928D01*
X68725518Y-143474188D01*
X68605820Y-143510498D01*
X68495506Y-143569463D01*
X68398815Y-143648815D01*
X68319463Y-143745506D01*
X68260498Y-143855820D01*
X68224188Y-143975518D01*
X68211928Y-144100000D01*
X64660000Y-144100000D01*
X64660000Y-139100000D01*
X78211928Y-139100000D01*
X78211928Y-140900000D01*
X78224188Y-141024482D01*
X78260498Y-141144180D01*
X78319463Y-141254494D01*
X78398815Y-141351185D01*
X78495506Y-141430537D01*
X78605820Y-141489502D01*
X78725518Y-141525812D01*
X78850000Y-141538072D01*
X80650000Y-141538072D01*
X80774482Y-141525812D01*
X80894180Y-141489502D01*
X81004494Y-141430537D01*
X81101185Y-141351185D01*
X81180537Y-141254494D01*
X81239502Y-141144180D01*
X81242813Y-141133265D01*
X81289578Y-141180030D01*
X81405526Y-141064082D01*
X81489208Y-141318261D01*
X81761775Y-141449158D01*
X82054642Y-141524365D01*
X82356553Y-141540991D01*
X82655907Y-141498397D01*
X82941199Y-141398222D01*
X83090792Y-141318261D01*
X83174475Y-141064080D01*
X82290000Y-140179605D01*
X82275858Y-140193748D01*
X82096253Y-140014143D01*
X82110395Y-140000000D01*
X82469605Y-140000000D01*
X83354080Y-140884475D01*
X83608261Y-140800792D01*
X83739158Y-140528225D01*
X83814365Y-140235358D01*
X83830991Y-139933447D01*
X83788397Y-139634093D01*
X83688222Y-139348801D01*
X83608261Y-139199208D01*
X83354080Y-139115525D01*
X82469605Y-140000000D01*
X82110395Y-140000000D01*
X82096253Y-139985858D01*
X82275858Y-139806253D01*
X82290000Y-139820395D01*
X83174475Y-138935920D01*
X83090792Y-138681739D01*
X82818225Y-138550842D01*
X82525358Y-138475635D01*
X82223447Y-138459009D01*
X81924093Y-138501603D01*
X81638801Y-138601778D01*
X81489208Y-138681739D01*
X81405526Y-138935918D01*
X81289578Y-138819970D01*
X81242813Y-138866735D01*
X81239502Y-138855820D01*
X81180537Y-138745506D01*
X81101185Y-138648815D01*
X81004494Y-138569463D01*
X80894180Y-138510498D01*
X80774482Y-138474188D01*
X80650000Y-138461928D01*
X78850000Y-138461928D01*
X78725518Y-138474188D01*
X78605820Y-138510498D01*
X78495506Y-138569463D01*
X78398815Y-138648815D01*
X78319463Y-138745506D01*
X78260498Y-138855820D01*
X78224188Y-138975518D01*
X78211928Y-139100000D01*
X64660000Y-139100000D01*
X64660000Y-136228268D01*
X70653639Y-128600000D01*
X72211928Y-128600000D01*
X72211928Y-130400000D01*
X72224188Y-130524482D01*
X72260498Y-130644180D01*
X72319463Y-130754494D01*
X72398815Y-130851185D01*
X72495506Y-130930537D01*
X72605820Y-130989502D01*
X72725518Y-131025812D01*
X72850000Y-131038072D01*
X74650000Y-131038072D01*
X74774482Y-131025812D01*
X74894180Y-130989502D01*
X75004494Y-130930537D01*
X75101185Y-130851185D01*
X75180537Y-130754494D01*
X75239502Y-130644180D01*
X75242813Y-130633265D01*
X75289578Y-130680030D01*
X75405526Y-130564082D01*
X75489208Y-130818261D01*
X75761775Y-130949158D01*
X76054642Y-131024365D01*
X76356553Y-131040991D01*
X76655907Y-130998397D01*
X76941199Y-130898222D01*
X77090792Y-130818261D01*
X77174475Y-130564080D01*
X76290000Y-129679605D01*
X76275858Y-129693748D01*
X76096253Y-129514143D01*
X76110395Y-129500000D01*
X76469605Y-129500000D01*
X77354080Y-130384475D01*
X77608261Y-130300792D01*
X77739158Y-130028225D01*
X77814365Y-129735358D01*
X77830991Y-129433447D01*
X77788397Y-129134093D01*
X77688222Y-128848801D01*
X77608261Y-128699208D01*
X77354080Y-128615525D01*
X76469605Y-129500000D01*
X76110395Y-129500000D01*
X76096253Y-129485858D01*
X76275858Y-129306253D01*
X76290000Y-129320395D01*
X77174475Y-128435920D01*
X77090792Y-128181739D01*
X76818225Y-128050842D01*
X76525358Y-127975635D01*
X76223447Y-127959009D01*
X75924093Y-128001603D01*
X75638801Y-128101778D01*
X75489208Y-128181739D01*
X75405526Y-128435918D01*
X75289578Y-128319970D01*
X75242813Y-128366735D01*
X75239502Y-128355820D01*
X75180537Y-128245506D01*
X75101185Y-128148815D01*
X75004494Y-128069463D01*
X74894180Y-128010498D01*
X74774482Y-127974188D01*
X74650000Y-127961928D01*
X72850000Y-127961928D01*
X72725518Y-127974188D01*
X72605820Y-128010498D01*
X72495506Y-128069463D01*
X72398815Y-128148815D01*
X72319463Y-128245506D01*
X72260498Y-128355820D01*
X72224188Y-128475518D01*
X72211928Y-128600000D01*
X70653639Y-128600000D01*
X75514657Y-122413251D01*
X75551425Y-122368450D01*
X75570096Y-122333520D01*
X75591396Y-122300126D01*
X75600669Y-122276321D01*
X75612710Y-122253793D01*
X75624207Y-122215892D01*
X75638584Y-122178984D01*
X75643034Y-122153830D01*
X75650450Y-122129383D01*
X75654332Y-122089966D01*
X75661232Y-122050964D01*
X75660000Y-121993028D01*
X75660000Y-104045582D01*
X75662669Y-104026354D01*
X75660000Y-103980727D01*
X75660000Y-103967581D01*
X75658106Y-103948354D01*
X75655077Y-103896567D01*
X75651746Y-103883778D01*
X75650450Y-103870617D01*
X75635386Y-103820958D01*
X75622311Y-103770754D01*
X75616547Y-103758856D01*
X75612710Y-103746207D01*
X75588250Y-103700445D01*
X75565630Y-103653753D01*
X75557658Y-103643211D01*
X75551425Y-103631550D01*
X75518511Y-103591444D01*
X75487213Y-103550057D01*
X75477333Y-103541269D01*
X75468948Y-103531052D01*
X75428849Y-103498144D01*
X75414412Y-103485302D01*
X75403779Y-103477569D01*
X75368450Y-103448575D01*
X75351330Y-103439424D01*
X74111970Y-102538072D01*
X74650000Y-102538072D01*
X74774482Y-102525812D01*
X74894180Y-102489502D01*
X75004494Y-102430537D01*
X75101185Y-102351185D01*
X75180537Y-102254494D01*
X75239502Y-102144180D01*
X75242813Y-102133265D01*
X75289578Y-102180030D01*
X75405526Y-102064082D01*
X75489208Y-102318261D01*
X75761775Y-102449158D01*
X76054642Y-102524365D01*
X76356553Y-102540991D01*
X76655907Y-102498397D01*
X76941199Y-102398222D01*
X77090792Y-102318261D01*
X77174475Y-102064080D01*
X76290000Y-101179605D01*
X76275858Y-101193748D01*
X76096253Y-101014143D01*
X76110395Y-101000000D01*
X76469605Y-101000000D01*
X77354080Y-101884475D01*
X77608261Y-101800792D01*
X77739158Y-101528225D01*
X77814365Y-101235358D01*
X77830991Y-100933447D01*
X77788397Y-100634093D01*
X77688222Y-100348801D01*
X77608261Y-100199208D01*
X77354080Y-100115525D01*
X76469605Y-101000000D01*
X76110395Y-101000000D01*
X76096253Y-100985858D01*
X76275858Y-100806253D01*
X76290000Y-100820395D01*
X77174475Y-99935920D01*
X77090792Y-99681739D01*
X76818225Y-99550842D01*
X76525358Y-99475635D01*
X76223447Y-99459009D01*
X75924093Y-99501603D01*
X75638801Y-99601778D01*
X75489208Y-99681739D01*
X75405526Y-99935918D01*
X75289578Y-99819970D01*
X75242813Y-99866735D01*
X75239502Y-99855820D01*
X75180537Y-99745506D01*
X75101185Y-99648815D01*
X75004494Y-99569463D01*
X74894180Y-99510498D01*
X74774482Y-99474188D01*
X74650000Y-99461928D01*
X72850000Y-99461928D01*
X72725518Y-99474188D01*
X72605820Y-99510498D01*
X72495506Y-99569463D01*
X72398815Y-99648815D01*
X72319463Y-99745506D01*
X72260498Y-99855820D01*
X72224188Y-99975518D01*
X72211928Y-100100000D01*
X72211928Y-101156223D01*
X64660000Y-95663913D01*
X64660000Y-89100000D01*
X78211928Y-89100000D01*
X78211928Y-90900000D01*
X78224188Y-91024482D01*
X78260498Y-91144180D01*
X78319463Y-91254494D01*
X78398815Y-91351185D01*
X78495506Y-91430537D01*
X78605820Y-91489502D01*
X78725518Y-91525812D01*
X78850000Y-91538072D01*
X80650000Y-91538072D01*
X80774482Y-91525812D01*
X80894180Y-91489502D01*
X81004494Y-91430537D01*
X81101185Y-91351185D01*
X81180537Y-91254494D01*
X81239502Y-91144180D01*
X81242813Y-91133265D01*
X81289578Y-91180030D01*
X81405526Y-91064082D01*
X81489208Y-91318261D01*
X81761775Y-91449158D01*
X82054642Y-91524365D01*
X82356553Y-91540991D01*
X82655907Y-91498397D01*
X82941199Y-91398222D01*
X83090792Y-91318261D01*
X83174475Y-91064080D01*
X82290000Y-90179605D01*
X82275858Y-90193748D01*
X82096253Y-90014143D01*
X82110395Y-90000000D01*
X82469605Y-90000000D01*
X83354080Y-90884475D01*
X83608261Y-90800792D01*
X83739158Y-90528225D01*
X83814365Y-90235358D01*
X83830991Y-89933447D01*
X83788397Y-89634093D01*
X83688222Y-89348801D01*
X83608261Y-89199208D01*
X83354080Y-89115525D01*
X82469605Y-90000000D01*
X82110395Y-90000000D01*
X82096253Y-89985858D01*
X82275858Y-89806253D01*
X82290000Y-89820395D01*
X83174475Y-88935920D01*
X83090792Y-88681739D01*
X82818225Y-88550842D01*
X82525358Y-88475635D01*
X82223447Y-88459009D01*
X81924093Y-88501603D01*
X81638801Y-88601778D01*
X81489208Y-88681739D01*
X81405526Y-88935918D01*
X81289578Y-88819970D01*
X81242813Y-88866735D01*
X81239502Y-88855820D01*
X81180537Y-88745506D01*
X81101185Y-88648815D01*
X81004494Y-88569463D01*
X80894180Y-88510498D01*
X80774482Y-88474188D01*
X80650000Y-88461928D01*
X78850000Y-88461928D01*
X78725518Y-88474188D01*
X78605820Y-88510498D01*
X78495506Y-88569463D01*
X78398815Y-88648815D01*
X78319463Y-88745506D01*
X78260498Y-88855820D01*
X78224188Y-88975518D01*
X78211928Y-89100000D01*
X64660000Y-89100000D01*
X64660000Y-84100000D01*
X68211928Y-84100000D01*
X68211928Y-85900000D01*
X68224188Y-86024482D01*
X68260498Y-86144180D01*
X68319463Y-86254494D01*
X68398815Y-86351185D01*
X68495506Y-86430537D01*
X68605820Y-86489502D01*
X68725518Y-86525812D01*
X68850000Y-86538072D01*
X70650000Y-86538072D01*
X70774482Y-86525812D01*
X70894180Y-86489502D01*
X71004494Y-86430537D01*
X71101185Y-86351185D01*
X71180537Y-86254494D01*
X71239502Y-86144180D01*
X71242813Y-86133265D01*
X71289578Y-86180030D01*
X71405526Y-86064082D01*
X71489208Y-86318261D01*
X71761775Y-86449158D01*
X72054642Y-86524365D01*
X72356553Y-86540991D01*
X72655907Y-86498397D01*
X72941199Y-86398222D01*
X73090792Y-86318261D01*
X73103430Y-86279872D01*
X99765000Y-86279872D01*
X99765000Y-86720128D01*
X99850890Y-87151925D01*
X100019369Y-87558669D01*
X100263962Y-87924729D01*
X100575271Y-88236038D01*
X100941331Y-88480631D01*
X101348075Y-88649110D01*
X101779872Y-88735000D01*
X102220128Y-88735000D01*
X102651925Y-88649110D01*
X103058669Y-88480631D01*
X103424729Y-88236038D01*
X103736038Y-87924729D01*
X103980631Y-87558669D01*
X104149110Y-87151925D01*
X104235000Y-86720128D01*
X104235000Y-86279872D01*
X139765000Y-86279872D01*
X139765000Y-86720128D01*
X139850890Y-87151925D01*
X140019369Y-87558669D01*
X140263962Y-87924729D01*
X140575271Y-88236038D01*
X140941331Y-88480631D01*
X141348075Y-88649110D01*
X141779872Y-88735000D01*
X142220128Y-88735000D01*
X142651925Y-88649110D01*
X143058669Y-88480631D01*
X143424729Y-88236038D01*
X143736038Y-87924729D01*
X143980631Y-87558669D01*
X144149110Y-87151925D01*
X144235000Y-86720128D01*
X144235000Y-86279872D01*
X144149110Y-85848075D01*
X143980631Y-85441331D01*
X143736038Y-85075271D01*
X143558828Y-84898061D01*
X156965000Y-84898061D01*
X156965000Y-85101939D01*
X157004774Y-85301898D01*
X157082795Y-85490256D01*
X157196063Y-85659774D01*
X157340226Y-85803937D01*
X157509744Y-85917205D01*
X157698102Y-85995226D01*
X157898061Y-86035000D01*
X158101939Y-86035000D01*
X158301898Y-85995226D01*
X158490256Y-85917205D01*
X158659774Y-85803937D01*
X158803937Y-85659774D01*
X158917205Y-85490256D01*
X158995226Y-85301898D01*
X159024093Y-85156775D01*
X160345868Y-83835000D01*
X166386721Y-83835000D01*
X166509750Y-83917205D01*
X166698108Y-83995226D01*
X166898067Y-84035000D01*
X167101945Y-84035000D01*
X167301904Y-83995226D01*
X167490262Y-83917205D01*
X167659780Y-83803937D01*
X167803943Y-83659774D01*
X167917211Y-83490256D01*
X167995232Y-83301898D01*
X168035006Y-83101939D01*
X168035006Y-82898061D01*
X167995232Y-82698102D01*
X167917211Y-82509744D01*
X167803943Y-82340226D01*
X167659780Y-82196063D01*
X167490262Y-82082795D01*
X167301904Y-82004774D01*
X167101945Y-81965000D01*
X166898067Y-81965000D01*
X166698108Y-82004774D01*
X166509750Y-82082795D01*
X166386721Y-82165000D01*
X160041018Y-82165000D01*
X159999999Y-82160960D01*
X159958981Y-82165000D01*
X159836311Y-82177082D01*
X159678913Y-82224828D01*
X159533854Y-82302364D01*
X159406709Y-82406709D01*
X159380559Y-82438573D01*
X157843225Y-83975907D01*
X157698102Y-84004774D01*
X157509744Y-84082795D01*
X157340226Y-84196063D01*
X157196063Y-84340226D01*
X157082795Y-84509744D01*
X157004774Y-84698102D01*
X156965000Y-84898061D01*
X143558828Y-84898061D01*
X143424729Y-84763962D01*
X143058669Y-84519369D01*
X142651925Y-84350890D01*
X142220128Y-84265000D01*
X141779872Y-84265000D01*
X141348075Y-84350890D01*
X140941331Y-84519369D01*
X140575271Y-84763962D01*
X140263962Y-85075271D01*
X140019369Y-85441331D01*
X139850890Y-85848075D01*
X139765000Y-86279872D01*
X104235000Y-86279872D01*
X104149110Y-85848075D01*
X103980631Y-85441331D01*
X103736038Y-85075271D01*
X103424729Y-84763962D01*
X103058669Y-84519369D01*
X102651925Y-84350890D01*
X102220128Y-84265000D01*
X101779872Y-84265000D01*
X101348075Y-84350890D01*
X100941331Y-84519369D01*
X100575271Y-84763962D01*
X100263962Y-85075271D01*
X100019369Y-85441331D01*
X99850890Y-85848075D01*
X99765000Y-86279872D01*
X73103430Y-86279872D01*
X73174475Y-86064080D01*
X72290000Y-85179605D01*
X72275858Y-85193748D01*
X72096253Y-85014143D01*
X72110395Y-85000000D01*
X72469605Y-85000000D01*
X73354080Y-85884475D01*
X73608261Y-85800792D01*
X73739158Y-85528225D01*
X73814365Y-85235358D01*
X73830991Y-84933447D01*
X73788397Y-84634093D01*
X73688222Y-84348801D01*
X73608261Y-84199208D01*
X73354080Y-84115525D01*
X72469605Y-85000000D01*
X72110395Y-85000000D01*
X72096253Y-84985858D01*
X72275858Y-84806253D01*
X72290000Y-84820395D01*
X73174475Y-83935920D01*
X73090792Y-83681739D01*
X72818225Y-83550842D01*
X72525358Y-83475635D01*
X72223447Y-83459009D01*
X71924093Y-83501603D01*
X71638801Y-83601778D01*
X71489208Y-83681739D01*
X71405526Y-83935918D01*
X71289578Y-83819970D01*
X71242813Y-83866735D01*
X71239502Y-83855820D01*
X71180537Y-83745506D01*
X71101185Y-83648815D01*
X71004494Y-83569463D01*
X70894180Y-83510498D01*
X70774482Y-83474188D01*
X70650000Y-83461928D01*
X68850000Y-83461928D01*
X68725518Y-83474188D01*
X68605820Y-83510498D01*
X68495506Y-83569463D01*
X68398815Y-83648815D01*
X68319463Y-83745506D01*
X68260498Y-83855820D01*
X68224188Y-83975518D01*
X68211928Y-84100000D01*
X64660000Y-84100000D01*
X64660000Y-83029392D01*
X64731173Y-82231917D01*
X64934656Y-81488109D01*
X65119774Y-81100000D01*
X87211928Y-81100000D01*
X87211928Y-82900000D01*
X87224188Y-83024482D01*
X87260498Y-83144180D01*
X87319463Y-83254494D01*
X87398815Y-83351185D01*
X87495506Y-83430537D01*
X87605820Y-83489502D01*
X87725518Y-83525812D01*
X87850000Y-83538072D01*
X89650000Y-83538072D01*
X89774482Y-83525812D01*
X89894180Y-83489502D01*
X90004494Y-83430537D01*
X90101185Y-83351185D01*
X90180537Y-83254494D01*
X90239502Y-83144180D01*
X90242813Y-83133265D01*
X90289578Y-83180030D01*
X90405526Y-83064082D01*
X90489208Y-83318261D01*
X90761775Y-83449158D01*
X91054642Y-83524365D01*
X91356553Y-83540991D01*
X91655907Y-83498397D01*
X91941199Y-83398222D01*
X92090792Y-83318261D01*
X92174475Y-83064080D01*
X91290000Y-82179605D01*
X91275858Y-82193748D01*
X91096253Y-82014143D01*
X91110395Y-82000000D01*
X91469605Y-82000000D01*
X92354080Y-82884475D01*
X92608261Y-82800792D01*
X92739158Y-82528225D01*
X92814365Y-82235358D01*
X92830991Y-81933447D01*
X92788397Y-81634093D01*
X92688222Y-81348801D01*
X92608261Y-81199208D01*
X92354080Y-81115525D01*
X91469605Y-82000000D01*
X91110395Y-82000000D01*
X91096253Y-81985858D01*
X91275858Y-81806253D01*
X91290000Y-81820395D01*
X92010395Y-81100000D01*
X175211928Y-81100000D01*
X175211928Y-82900000D01*
X175224188Y-83024482D01*
X175260498Y-83144180D01*
X175319463Y-83254494D01*
X175398815Y-83351185D01*
X175495506Y-83430537D01*
X175605820Y-83489502D01*
X175725518Y-83525812D01*
X175850000Y-83538072D01*
X175915000Y-83538072D01*
X175915001Y-93208971D01*
X175910960Y-93250000D01*
X175927082Y-93413688D01*
X175974828Y-93571086D01*
X175974829Y-93571087D01*
X176052365Y-93716146D01*
X176156710Y-93843291D01*
X176188574Y-93869441D01*
X179975908Y-97656777D01*
X180004774Y-97801898D01*
X180082795Y-97990256D01*
X180196063Y-98159774D01*
X180340226Y-98303937D01*
X180509744Y-98417205D01*
X180698102Y-98495226D01*
X180898061Y-98535000D01*
X181101939Y-98535000D01*
X181301898Y-98495226D01*
X181490256Y-98417205D01*
X181659774Y-98303937D01*
X181803937Y-98159774D01*
X181917205Y-97990256D01*
X181995226Y-97801898D01*
X182035000Y-97601939D01*
X182035000Y-97427666D01*
X182198102Y-97495226D01*
X182398061Y-97535000D01*
X182601939Y-97535000D01*
X182801898Y-97495226D01*
X182990256Y-97417205D01*
X183159774Y-97303937D01*
X183303937Y-97159774D01*
X183417205Y-96990256D01*
X183495226Y-96801898D01*
X183535000Y-96601939D01*
X183535000Y-96398061D01*
X183495226Y-96198102D01*
X183417205Y-96009744D01*
X183335000Y-95886715D01*
X183335000Y-89100000D01*
X184211928Y-89100000D01*
X184211928Y-90900000D01*
X184224188Y-91024482D01*
X184260498Y-91144180D01*
X184319463Y-91254494D01*
X184398815Y-91351185D01*
X184495506Y-91430537D01*
X184605820Y-91489502D01*
X184725518Y-91525812D01*
X184850000Y-91538072D01*
X186650000Y-91538072D01*
X186774482Y-91525812D01*
X186894180Y-91489502D01*
X187004494Y-91430537D01*
X187101185Y-91351185D01*
X187180537Y-91254494D01*
X187239502Y-91144180D01*
X187242813Y-91133265D01*
X187289578Y-91180030D01*
X187405526Y-91064082D01*
X187489208Y-91318261D01*
X187761775Y-91449158D01*
X188054642Y-91524365D01*
X188356553Y-91540991D01*
X188655907Y-91498397D01*
X188941199Y-91398222D01*
X189090792Y-91318261D01*
X189174475Y-91064080D01*
X188290000Y-90179605D01*
X188275858Y-90193748D01*
X188096253Y-90014143D01*
X188110395Y-90000000D01*
X188469605Y-90000000D01*
X189354080Y-90884475D01*
X189608261Y-90800792D01*
X189739158Y-90528225D01*
X189814365Y-90235358D01*
X189830991Y-89933447D01*
X189788397Y-89634093D01*
X189688222Y-89348801D01*
X189608261Y-89199208D01*
X189354080Y-89115525D01*
X188469605Y-90000000D01*
X188110395Y-90000000D01*
X188096253Y-89985858D01*
X188275858Y-89806253D01*
X188290000Y-89820395D01*
X189174475Y-88935920D01*
X189090792Y-88681739D01*
X188818225Y-88550842D01*
X188525358Y-88475635D01*
X188223447Y-88459009D01*
X187924093Y-88501603D01*
X187638801Y-88601778D01*
X187489208Y-88681739D01*
X187405526Y-88935918D01*
X187289578Y-88819970D01*
X187242813Y-88866735D01*
X187239502Y-88855820D01*
X187180537Y-88745506D01*
X187101185Y-88648815D01*
X187004494Y-88569463D01*
X186894180Y-88510498D01*
X186774482Y-88474188D01*
X186650000Y-88461928D01*
X184850000Y-88461928D01*
X184725518Y-88474188D01*
X184605820Y-88510498D01*
X184495506Y-88569463D01*
X184398815Y-88648815D01*
X184319463Y-88745506D01*
X184260498Y-88855820D01*
X184224188Y-88975518D01*
X184211928Y-89100000D01*
X183335000Y-89100000D01*
X183335000Y-89095867D01*
X186595869Y-85835000D01*
X194671928Y-85835000D01*
X194671928Y-85900000D01*
X194684188Y-86024482D01*
X194720498Y-86144180D01*
X194779463Y-86254494D01*
X194858815Y-86351185D01*
X194955506Y-86430537D01*
X195065820Y-86489502D01*
X195185518Y-86525812D01*
X195310000Y-86538072D01*
X197110000Y-86538072D01*
X197234482Y-86525812D01*
X197354180Y-86489502D01*
X197464494Y-86430537D01*
X197561185Y-86351185D01*
X197640537Y-86254494D01*
X197699502Y-86144180D01*
X197702813Y-86133265D01*
X197749578Y-86180030D01*
X197865526Y-86064082D01*
X197949208Y-86318261D01*
X198015694Y-86350190D01*
X197984382Y-86366927D01*
X197755097Y-86555097D01*
X197566927Y-86784382D01*
X197427104Y-87045972D01*
X197341001Y-87329814D01*
X197311928Y-87625000D01*
X197311928Y-89375000D01*
X197321494Y-89472131D01*
X197280537Y-89395506D01*
X197201185Y-89298815D01*
X197104494Y-89219463D01*
X196994180Y-89160498D01*
X196874482Y-89124188D01*
X196750000Y-89111928D01*
X193250000Y-89111928D01*
X193125518Y-89124188D01*
X193005820Y-89160498D01*
X192895506Y-89219463D01*
X192798815Y-89298815D01*
X192719463Y-89395506D01*
X192660498Y-89505820D01*
X192624188Y-89625518D01*
X192611928Y-89750000D01*
X192611928Y-93250000D01*
X192624188Y-93374482D01*
X192660498Y-93494180D01*
X192719463Y-93604494D01*
X192798815Y-93701185D01*
X192895506Y-93780537D01*
X193005820Y-93839502D01*
X193125518Y-93875812D01*
X193250000Y-93888072D01*
X196750000Y-93888072D01*
X196874482Y-93875812D01*
X196994180Y-93839502D01*
X197104494Y-93780537D01*
X197201185Y-93701185D01*
X197280537Y-93604494D01*
X197339502Y-93494180D01*
X197375812Y-93374482D01*
X197388072Y-93250000D01*
X197388072Y-89825357D01*
X197427104Y-89954028D01*
X197566927Y-90215618D01*
X197755097Y-90444903D01*
X197984382Y-90633073D01*
X198245972Y-90772896D01*
X198529814Y-90858999D01*
X198825000Y-90888072D01*
X200575000Y-90888072D01*
X200870186Y-90858999D01*
X201154028Y-90772896D01*
X201415618Y-90633073D01*
X201644903Y-90444903D01*
X201833073Y-90215618D01*
X201972896Y-89954028D01*
X202058999Y-89670186D01*
X202088072Y-89375000D01*
X202088072Y-87625000D01*
X202058999Y-87329814D01*
X201972896Y-87045972D01*
X201833073Y-86784382D01*
X201644903Y-86555097D01*
X201415618Y-86366927D01*
X201154028Y-86227104D01*
X200870186Y-86141001D01*
X200575000Y-86111928D01*
X199618722Y-86111928D01*
X199634475Y-86064080D01*
X198750000Y-85179605D01*
X198735858Y-85193748D01*
X198556253Y-85014143D01*
X198570395Y-85000000D01*
X198929605Y-85000000D01*
X199814080Y-85884475D01*
X200068261Y-85800792D01*
X200199158Y-85528225D01*
X200274365Y-85235358D01*
X200290991Y-84933447D01*
X200248397Y-84634093D01*
X200148222Y-84348801D01*
X200068261Y-84199208D01*
X199814080Y-84115525D01*
X198929605Y-85000000D01*
X198570395Y-85000000D01*
X198556253Y-84985858D01*
X198735858Y-84806253D01*
X198750000Y-84820395D01*
X199634475Y-83935920D01*
X199550792Y-83681739D01*
X199278225Y-83550842D01*
X198985358Y-83475635D01*
X198683447Y-83459009D01*
X198384093Y-83501603D01*
X198098801Y-83601778D01*
X197949208Y-83681739D01*
X197865526Y-83935918D01*
X197749578Y-83819970D01*
X197702813Y-83866735D01*
X197699502Y-83855820D01*
X197640537Y-83745506D01*
X197561185Y-83648815D01*
X197464494Y-83569463D01*
X197354180Y-83510498D01*
X197234482Y-83474188D01*
X197110000Y-83461928D01*
X195310000Y-83461928D01*
X195185518Y-83474188D01*
X195065820Y-83510498D01*
X194955506Y-83569463D01*
X194858815Y-83648815D01*
X194779463Y-83745506D01*
X194720498Y-83855820D01*
X194684188Y-83975518D01*
X194671928Y-84100000D01*
X194671928Y-84165000D01*
X186291018Y-84165000D01*
X186250000Y-84160960D01*
X186086311Y-84177082D01*
X185928913Y-84224828D01*
X185783854Y-84302364D01*
X185724725Y-84350890D01*
X185656709Y-84406709D01*
X185630563Y-84438568D01*
X181938579Y-88130554D01*
X181906709Y-88156709D01*
X181802365Y-88283854D01*
X181802364Y-88283855D01*
X181724828Y-88428914D01*
X181677082Y-88586312D01*
X181660960Y-88750000D01*
X181665000Y-88791019D01*
X181665001Y-95886714D01*
X181582795Y-96009744D01*
X181504774Y-96198102D01*
X181465000Y-96398061D01*
X181465000Y-96572334D01*
X181301898Y-96504774D01*
X181156777Y-96475908D01*
X177585000Y-92904133D01*
X177585000Y-83538072D01*
X177650000Y-83538072D01*
X177774482Y-83525812D01*
X177894180Y-83489502D01*
X178004494Y-83430537D01*
X178101185Y-83351185D01*
X178180537Y-83254494D01*
X178239502Y-83144180D01*
X178242813Y-83133265D01*
X178289578Y-83180030D01*
X178405526Y-83064082D01*
X178489208Y-83318261D01*
X178761775Y-83449158D01*
X179054642Y-83524365D01*
X179356553Y-83540991D01*
X179655907Y-83498397D01*
X179941199Y-83398222D01*
X180090792Y-83318261D01*
X180174475Y-83064080D01*
X179290000Y-82179605D01*
X179275858Y-82193748D01*
X179096253Y-82014143D01*
X179110395Y-82000000D01*
X179469605Y-82000000D01*
X180354080Y-82884475D01*
X180608261Y-82800792D01*
X180739158Y-82528225D01*
X180814365Y-82235358D01*
X180830991Y-81933447D01*
X180788397Y-81634093D01*
X180688222Y-81348801D01*
X180608261Y-81199208D01*
X180354080Y-81115525D01*
X179469605Y-82000000D01*
X179110395Y-82000000D01*
X179096253Y-81985858D01*
X179275858Y-81806253D01*
X179290000Y-81820395D01*
X180174475Y-80935920D01*
X180090792Y-80681739D01*
X179818225Y-80550842D01*
X179525358Y-80475635D01*
X179223447Y-80459009D01*
X178924093Y-80501603D01*
X178638801Y-80601778D01*
X178489208Y-80681739D01*
X178405526Y-80935918D01*
X178289578Y-80819970D01*
X178242813Y-80866735D01*
X178239502Y-80855820D01*
X178180537Y-80745506D01*
X178101185Y-80648815D01*
X178004494Y-80569463D01*
X177894180Y-80510498D01*
X177774482Y-80474188D01*
X177650000Y-80461928D01*
X175850000Y-80461928D01*
X175725518Y-80474188D01*
X175605820Y-80510498D01*
X175495506Y-80569463D01*
X175398815Y-80648815D01*
X175319463Y-80745506D01*
X175260498Y-80855820D01*
X175224188Y-80975518D01*
X175211928Y-81100000D01*
X92010395Y-81100000D01*
X92174475Y-80935920D01*
X92090792Y-80681739D01*
X91818225Y-80550842D01*
X91525358Y-80475635D01*
X91223447Y-80459009D01*
X90924093Y-80501603D01*
X90638801Y-80601778D01*
X90489208Y-80681739D01*
X90405526Y-80935918D01*
X90289578Y-80819970D01*
X90242813Y-80866735D01*
X90239502Y-80855820D01*
X90180537Y-80745506D01*
X90101185Y-80648815D01*
X90004494Y-80569463D01*
X89894180Y-80510498D01*
X89774482Y-80474188D01*
X89650000Y-80461928D01*
X87850000Y-80461928D01*
X87725518Y-80474188D01*
X87605820Y-80510498D01*
X87495506Y-80569463D01*
X87398815Y-80648815D01*
X87319463Y-80745506D01*
X87260498Y-80855820D01*
X87224188Y-80975518D01*
X87211928Y-81100000D01*
X65119774Y-81100000D01*
X65266638Y-80792095D01*
X65716626Y-80165870D01*
X66270403Y-79629223D01*
X66910451Y-79199129D01*
X67616553Y-78889171D01*
X68371457Y-78707935D01*
X69024207Y-78660000D01*
X198970608Y-78660000D01*
X199768083Y-78731173D01*
G37*
X199768083Y-78731173D02*
X200511891Y-78934656D01*
X201207905Y-79266638D01*
X201834130Y-79716626D01*
X202370777Y-80270403D01*
X202800871Y-80910451D01*
X203110829Y-81616553D01*
X203292065Y-82371457D01*
X203340001Y-83024220D01*
X203340000Y-95654191D01*
X195820537Y-100859974D01*
X195788397Y-100634093D01*
X195688222Y-100348801D01*
X195608261Y-100199208D01*
X195354080Y-100115525D01*
X194469605Y-101000000D01*
X194483748Y-101014143D01*
X194304143Y-101193748D01*
X194290000Y-101179605D01*
X194275858Y-101193748D01*
X194096253Y-101014143D01*
X194110395Y-101000000D01*
X194096253Y-100985858D01*
X194275858Y-100806253D01*
X194290000Y-100820395D01*
X195174475Y-99935920D01*
X195090792Y-99681739D01*
X194818225Y-99550842D01*
X194525358Y-99475635D01*
X194223447Y-99459009D01*
X193924093Y-99501603D01*
X193638801Y-99601778D01*
X193489208Y-99681739D01*
X193405526Y-99935918D01*
X193289578Y-99819970D01*
X193242813Y-99866735D01*
X193239502Y-99855820D01*
X193180537Y-99745506D01*
X193101185Y-99648815D01*
X193004494Y-99569463D01*
X192894180Y-99510498D01*
X192774482Y-99474188D01*
X192650000Y-99461928D01*
X190850000Y-99461928D01*
X190725518Y-99474188D01*
X190605820Y-99510498D01*
X190495506Y-99569463D01*
X190398815Y-99648815D01*
X190319463Y-99745506D01*
X190260498Y-99855820D01*
X190224188Y-99975518D01*
X190211928Y-100100000D01*
X190211928Y-101900000D01*
X190224188Y-102024482D01*
X190260498Y-102144180D01*
X190319463Y-102254494D01*
X190398815Y-102351185D01*
X190495506Y-102430537D01*
X190605820Y-102489502D01*
X190725518Y-102525812D01*
X190850000Y-102538072D01*
X192650000Y-102538072D01*
X192774482Y-102525812D01*
X192894180Y-102489502D01*
X193004494Y-102430537D01*
X193101185Y-102351185D01*
X193180537Y-102254494D01*
X193239502Y-102144180D01*
X193242813Y-102133265D01*
X193289578Y-102180030D01*
X193405526Y-102064082D01*
X193489208Y-102318261D01*
X193622004Y-102382035D01*
X190655470Y-104435790D01*
X190631550Y-104448575D01*
X190602148Y-104472705D01*
X190597667Y-104475807D01*
X190577113Y-104493250D01*
X190531052Y-104531052D01*
X190527567Y-104535299D01*
X190523380Y-104538852D01*
X190486372Y-104585495D01*
X190448575Y-104631551D01*
X190445985Y-104636397D01*
X190442573Y-104640697D01*
X190415372Y-104693669D01*
X190387290Y-104746208D01*
X190385696Y-104751463D01*
X190383187Y-104756349D01*
X190366845Y-104813604D01*
X190349550Y-104870618D01*
X190349011Y-104876087D01*
X190347505Y-104881365D01*
X190342649Y-104940688D01*
X190340000Y-104967582D01*
X190340000Y-104973045D01*
X190336898Y-105010939D01*
X190340000Y-105037871D01*
X190340001Y-121955319D01*
X190337262Y-121975455D01*
X190340001Y-122020185D01*
X190340001Y-122032419D01*
X190341981Y-122052527D01*
X190345208Y-122105219D01*
X190348344Y-122117127D01*
X190349551Y-122129383D01*
X190364875Y-122179897D01*
X190378317Y-122230941D01*
X190383717Y-122242010D01*
X190387291Y-122253793D01*
X190412168Y-122300334D01*
X190435316Y-122347788D01*
X190442773Y-122357593D01*
X190448576Y-122368450D01*
X190482053Y-122409242D01*
X190494297Y-122425341D01*
X190502632Y-122434318D01*
X190531053Y-122468948D01*
X190546756Y-122481835D01*
X203340000Y-136259176D01*
X203340001Y-144970597D01*
X203268827Y-145768083D01*
X203065344Y-146511890D01*
X202733363Y-147207904D01*
X202283374Y-147834130D01*
X201729597Y-148370777D01*
X201089549Y-148800871D01*
X200383447Y-149110829D01*
X199628543Y-149292065D01*
X198975793Y-149340000D01*
X180050122Y-149340000D01*
X180090792Y-149318261D01*
X180174475Y-149064080D01*
X179290000Y-148179605D01*
X179275858Y-148193748D01*
X179096253Y-148014143D01*
X179110395Y-148000000D01*
X179469605Y-148000000D01*
X180354080Y-148884475D01*
X180608261Y-148800792D01*
X180739158Y-148528225D01*
X180814365Y-148235358D01*
X180830991Y-147933447D01*
X180788397Y-147634093D01*
X180688222Y-147348801D01*
X180608261Y-147199208D01*
X180354080Y-147115525D01*
X179469605Y-148000000D01*
X179110395Y-148000000D01*
X179096253Y-147985858D01*
X179275858Y-147806253D01*
X179290000Y-147820395D01*
X180174475Y-146935920D01*
X180090792Y-146681739D01*
X179818225Y-146550842D01*
X179525358Y-146475635D01*
X179223447Y-146459009D01*
X178924093Y-146501603D01*
X178638801Y-146601778D01*
X178489208Y-146681739D01*
X178405526Y-146935918D01*
X178289578Y-146819970D01*
X178242813Y-146866735D01*
X178239502Y-146855820D01*
X178180537Y-146745506D01*
X178101185Y-146648815D01*
X178004494Y-146569463D01*
X177894180Y-146510498D01*
X177774482Y-146474188D01*
X177650000Y-146461928D01*
X176627000Y-146461928D01*
X176627000Y-144100000D01*
X194211928Y-144100000D01*
X194211928Y-145900000D01*
X194224188Y-146024482D01*
X194260498Y-146144180D01*
X194319463Y-146254494D01*
X194398815Y-146351185D01*
X194495506Y-146430537D01*
X194605820Y-146489502D01*
X194725518Y-146525812D01*
X194850000Y-146538072D01*
X196650000Y-146538072D01*
X196774482Y-146525812D01*
X196894180Y-146489502D01*
X197004494Y-146430537D01*
X197101185Y-146351185D01*
X197180537Y-146254494D01*
X197239502Y-146144180D01*
X197242813Y-146133265D01*
X197289578Y-146180030D01*
X197405526Y-146064082D01*
X197489208Y-146318261D01*
X197761775Y-146449158D01*
X198054642Y-146524365D01*
X198356553Y-146540991D01*
X198655907Y-146498397D01*
X198941199Y-146398222D01*
X199090792Y-146318261D01*
X199174475Y-146064080D01*
X198290000Y-145179605D01*
X198275858Y-145193748D01*
X198096253Y-145014143D01*
X198110395Y-145000000D01*
X198469605Y-145000000D01*
X199354080Y-145884475D01*
X199608261Y-145800792D01*
X199739158Y-145528225D01*
X199814365Y-145235358D01*
X199830991Y-144933447D01*
X199788397Y-144634093D01*
X199688222Y-144348801D01*
X199608261Y-144199208D01*
X199354080Y-144115525D01*
X198469605Y-145000000D01*
X198110395Y-145000000D01*
X198096253Y-144985858D01*
X198275858Y-144806253D01*
X198290000Y-144820395D01*
X199174475Y-143935920D01*
X199090792Y-143681739D01*
X198818225Y-143550842D01*
X198525358Y-143475635D01*
X198223447Y-143459009D01*
X197924093Y-143501603D01*
X197638801Y-143601778D01*
X197489208Y-143681739D01*
X197405526Y-143935918D01*
X197289578Y-143819970D01*
X197242813Y-143866735D01*
X197239502Y-143855820D01*
X197180537Y-143745506D01*
X197101185Y-143648815D01*
X197004494Y-143569463D01*
X196894180Y-143510498D01*
X196774482Y-143474188D01*
X196650000Y-143461928D01*
X194850000Y-143461928D01*
X194725518Y-143474188D01*
X194605820Y-143510498D01*
X194495506Y-143569463D01*
X194398815Y-143648815D01*
X194319463Y-143745506D01*
X194260498Y-143855820D01*
X194224188Y-143975518D01*
X194211928Y-144100000D01*
X176627000Y-144100000D01*
X176627000Y-139100000D01*
X184211928Y-139100000D01*
X184211928Y-140900000D01*
X184224188Y-141024482D01*
X184260498Y-141144180D01*
X184319463Y-141254494D01*
X184398815Y-141351185D01*
X184495506Y-141430537D01*
X184605820Y-141489502D01*
X184725518Y-141525812D01*
X184850000Y-141538072D01*
X186650000Y-141538072D01*
X186774482Y-141525812D01*
X186894180Y-141489502D01*
X187004494Y-141430537D01*
X187101185Y-141351185D01*
X187180537Y-141254494D01*
X187239502Y-141144180D01*
X187242813Y-141133265D01*
X187289578Y-141180030D01*
X187405526Y-141064082D01*
X187489208Y-141318261D01*
X187761775Y-141449158D01*
X188054642Y-141524365D01*
X188356553Y-141540991D01*
X188655907Y-141498397D01*
X188941199Y-141398222D01*
X189090792Y-141318261D01*
X189174475Y-141064080D01*
X188290000Y-140179605D01*
X188275858Y-140193748D01*
X188096253Y-140014143D01*
X188110395Y-140000000D01*
X188469605Y-140000000D01*
X189354080Y-140884475D01*
X189608261Y-140800792D01*
X189739158Y-140528225D01*
X189814365Y-140235358D01*
X189830991Y-139933447D01*
X189788397Y-139634093D01*
X189688222Y-139348801D01*
X189608261Y-139199208D01*
X189354080Y-139115525D01*
X188469605Y-140000000D01*
X188110395Y-140000000D01*
X188096253Y-139985858D01*
X188275858Y-139806253D01*
X188290000Y-139820395D01*
X189174475Y-138935920D01*
X189090792Y-138681739D01*
X188818225Y-138550842D01*
X188525358Y-138475635D01*
X188223447Y-138459009D01*
X187924093Y-138501603D01*
X187638801Y-138601778D01*
X187489208Y-138681739D01*
X187405526Y-138935918D01*
X187289578Y-138819970D01*
X187242813Y-138866735D01*
X187239502Y-138855820D01*
X187180537Y-138745506D01*
X187101185Y-138648815D01*
X187004494Y-138569463D01*
X186894180Y-138510498D01*
X186774482Y-138474188D01*
X186650000Y-138461928D01*
X184850000Y-138461928D01*
X184725518Y-138474188D01*
X184605820Y-138510498D01*
X184495506Y-138569463D01*
X184398815Y-138648815D01*
X184319463Y-138745506D01*
X184260498Y-138855820D01*
X184224188Y-138975518D01*
X184211928Y-139100000D01*
X176627000Y-139100000D01*
X176627000Y-128100000D01*
X190211928Y-128100000D01*
X190211928Y-129900000D01*
X190224188Y-130024482D01*
X190260498Y-130144180D01*
X190319463Y-130254494D01*
X190398815Y-130351185D01*
X190495506Y-130430537D01*
X190605820Y-130489502D01*
X190725518Y-130525812D01*
X190850000Y-130538072D01*
X192650000Y-130538072D01*
X192774482Y-130525812D01*
X192894180Y-130489502D01*
X193004494Y-130430537D01*
X193101185Y-130351185D01*
X193180537Y-130254494D01*
X193239502Y-130144180D01*
X193242813Y-130133265D01*
X193289578Y-130180030D01*
X193405526Y-130064082D01*
X193489208Y-130318261D01*
X193761775Y-130449158D01*
X194054642Y-130524365D01*
X194356553Y-130540991D01*
X194655907Y-130498397D01*
X194941199Y-130398222D01*
X195090792Y-130318261D01*
X195174475Y-130064080D01*
X194290000Y-129179605D01*
X194275858Y-129193748D01*
X194096253Y-129014143D01*
X194110395Y-129000000D01*
X194469605Y-129000000D01*
X195354080Y-129884475D01*
X195608261Y-129800792D01*
X195739158Y-129528225D01*
X195814365Y-129235358D01*
X195830991Y-128933447D01*
X195788397Y-128634093D01*
X195688222Y-128348801D01*
X195608261Y-128199208D01*
X195354080Y-128115525D01*
X194469605Y-129000000D01*
X194110395Y-129000000D01*
X194096253Y-128985858D01*
X194275858Y-128806253D01*
X194290000Y-128820395D01*
X195174475Y-127935920D01*
X195090792Y-127681739D01*
X194818225Y-127550842D01*
X194525358Y-127475635D01*
X194223447Y-127459009D01*
X193924093Y-127501603D01*
X193638801Y-127601778D01*
X193489208Y-127681739D01*
X193405526Y-127935918D01*
X193289578Y-127819970D01*
X193242813Y-127866735D01*
X193239502Y-127855820D01*
X193180537Y-127745506D01*
X193101185Y-127648815D01*
X193004494Y-127569463D01*
X192894180Y-127510498D01*
X192774482Y-127474188D01*
X192650000Y-127461928D01*
X190850000Y-127461928D01*
X190725518Y-127474188D01*
X190605820Y-127510498D01*
X190495506Y-127569463D01*
X190398815Y-127648815D01*
X190319463Y-127745506D01*
X190260498Y-127855820D01*
X190224188Y-127975518D01*
X190211928Y-128100000D01*
X176627000Y-128100000D01*
X176627000Y-99250000D01*
X176605345Y-99030133D01*
X176541212Y-98818716D01*
X176437066Y-98623872D01*
X176296909Y-98453091D01*
X176126128Y-98312934D01*
X175931284Y-98208788D01*
X175719867Y-98144655D01*
X175500000Y-98123000D01*
X159057868Y-98123000D01*
X159345868Y-97835000D01*
X165386697Y-97835000D01*
X165509726Y-97917205D01*
X165698084Y-97995226D01*
X165898043Y-98035000D01*
X166101921Y-98035000D01*
X166301880Y-97995226D01*
X166490238Y-97917205D01*
X166659756Y-97803937D01*
X166803919Y-97659774D01*
X166917187Y-97490256D01*
X166995208Y-97301898D01*
X167034982Y-97101939D01*
X167034982Y-96898061D01*
X166995208Y-96698102D01*
X166917187Y-96509744D01*
X166803919Y-96340226D01*
X166659756Y-96196063D01*
X166490238Y-96082795D01*
X166301880Y-96004774D01*
X166101921Y-95965000D01*
X165898043Y-95965000D01*
X165698084Y-96004774D01*
X165509726Y-96082795D01*
X165386697Y-96165000D01*
X159041018Y-96165000D01*
X158999999Y-96160960D01*
X158958981Y-96165000D01*
X158836311Y-96177082D01*
X158678913Y-96224828D01*
X158533854Y-96302364D01*
X158406709Y-96406709D01*
X158380559Y-96438573D01*
X156843225Y-97975907D01*
X156698102Y-98004774D01*
X156509744Y-98082795D01*
X156449573Y-98123000D01*
X146835000Y-98123000D01*
X146835000Y-97613285D01*
X146917205Y-97490256D01*
X146995226Y-97301898D01*
X147035000Y-97101939D01*
X147035000Y-96898061D01*
X146995226Y-96698102D01*
X146917205Y-96509744D01*
X146803937Y-96340226D01*
X146659774Y-96196063D01*
X146490256Y-96082795D01*
X146301898Y-96004774D01*
X146101939Y-95965000D01*
X145898061Y-95965000D01*
X145698102Y-96004774D01*
X145509744Y-96082795D01*
X145340226Y-96196063D01*
X145196063Y-96340226D01*
X145082795Y-96509744D01*
X145004774Y-96698102D01*
X144965000Y-96898061D01*
X144965000Y-97101939D01*
X145004774Y-97301898D01*
X145082795Y-97490256D01*
X145165000Y-97613285D01*
X145165000Y-98123000D01*
X99750000Y-98123000D01*
X99537476Y-98143220D01*
X99325638Y-98205947D01*
X99130107Y-98308798D01*
X98958399Y-98447818D01*
X98817111Y-98617665D01*
X98711674Y-98811813D01*
X98646139Y-99022800D01*
X98623025Y-99242518D01*
X98618839Y-99873000D01*
X85750000Y-99873000D01*
X85725224Y-99875440D01*
X85701399Y-99882667D01*
X85679443Y-99894403D01*
X85660197Y-99910197D01*
X85644403Y-99929443D01*
X85632667Y-99951399D01*
X85625440Y-99975224D01*
X85623000Y-100000000D01*
X85623000Y-128500000D01*
X85625440Y-128524776D01*
X85632667Y-128548601D01*
X85644403Y-128570557D01*
X85660197Y-128589803D01*
X85679443Y-128605597D01*
X85701399Y-128617333D01*
X85725224Y-128624560D01*
X85750000Y-128627000D01*
X98427937Y-128627000D01*
X98292728Y-148992518D01*
X98314358Y-149219867D01*
X98350800Y-149340000D01*
X92050122Y-149340000D01*
X92090792Y-149318261D01*
X92174475Y-149064080D01*
X91290000Y-148179605D01*
X91275858Y-148193748D01*
X91096253Y-148014143D01*
X91110395Y-148000000D01*
X91469605Y-148000000D01*
X92354080Y-148884475D01*
X92608261Y-148800792D01*
X92739158Y-148528225D01*
X92814365Y-148235358D01*
X92830991Y-147933447D01*
X92788397Y-147634093D01*
X92688222Y-147348801D01*
X92608261Y-147199208D01*
X92354080Y-147115525D01*
X91469605Y-148000000D01*
X91110395Y-148000000D01*
X91096253Y-147985858D01*
X91275858Y-147806253D01*
X91290000Y-147820395D01*
X92174475Y-146935920D01*
X92090792Y-146681739D01*
X91818225Y-146550842D01*
X91525358Y-146475635D01*
X91223447Y-146459009D01*
X90924093Y-146501603D01*
X90638801Y-146601778D01*
X90489208Y-146681739D01*
X90405526Y-146935918D01*
X90289578Y-146819970D01*
X90242813Y-146866735D01*
X90239502Y-146855820D01*
X90180537Y-146745506D01*
X90101185Y-146648815D01*
X90004494Y-146569463D01*
X89894180Y-146510498D01*
X89774482Y-146474188D01*
X89650000Y-146461928D01*
X87850000Y-146461928D01*
X87725518Y-146474188D01*
X87605820Y-146510498D01*
X87495506Y-146569463D01*
X87398815Y-146648815D01*
X87319463Y-146745506D01*
X87260498Y-146855820D01*
X87224188Y-146975518D01*
X87211928Y-147100000D01*
X87211928Y-148900000D01*
X87224188Y-149024482D01*
X87260498Y-149144180D01*
X87319463Y-149254494D01*
X87389636Y-149340000D01*
X69029392Y-149340000D01*
X68231917Y-149268827D01*
X67488110Y-149065344D01*
X66792096Y-148733363D01*
X66165870Y-148283374D01*
X65629223Y-147729597D01*
X65199129Y-147089549D01*
X64889171Y-146383447D01*
X64707935Y-145628543D01*
X64660000Y-144975793D01*
X64660000Y-144100000D01*
X68211928Y-144100000D01*
X68211928Y-145900000D01*
X68224188Y-146024482D01*
X68260498Y-146144180D01*
X68319463Y-146254494D01*
X68398815Y-146351185D01*
X68495506Y-146430537D01*
X68605820Y-146489502D01*
X68725518Y-146525812D01*
X68850000Y-146538072D01*
X70650000Y-146538072D01*
X70774482Y-146525812D01*
X70894180Y-146489502D01*
X71004494Y-146430537D01*
X71101185Y-146351185D01*
X71180537Y-146254494D01*
X71239502Y-146144180D01*
X71242813Y-146133265D01*
X71289578Y-146180030D01*
X71405526Y-146064082D01*
X71489208Y-146318261D01*
X71761775Y-146449158D01*
X72054642Y-146524365D01*
X72356553Y-146540991D01*
X72655907Y-146498397D01*
X72941199Y-146398222D01*
X73090792Y-146318261D01*
X73174475Y-146064080D01*
X72290000Y-145179605D01*
X72275858Y-145193748D01*
X72096253Y-145014143D01*
X72110395Y-145000000D01*
X72469605Y-145000000D01*
X73354080Y-145884475D01*
X73608261Y-145800792D01*
X73739158Y-145528225D01*
X73814365Y-145235358D01*
X73830991Y-144933447D01*
X73788397Y-144634093D01*
X73688222Y-144348801D01*
X73608261Y-144199208D01*
X73354080Y-144115525D01*
X72469605Y-145000000D01*
X72110395Y-145000000D01*
X72096253Y-144985858D01*
X72275858Y-144806253D01*
X72290000Y-144820395D01*
X73174475Y-143935920D01*
X73090792Y-143681739D01*
X72818225Y-143550842D01*
X72525358Y-143475635D01*
X72223447Y-143459009D01*
X71924093Y-143501603D01*
X71638801Y-143601778D01*
X71489208Y-143681739D01*
X71405526Y-143935918D01*
X71289578Y-143819970D01*
X71242813Y-143866735D01*
X71239502Y-143855820D01*
X71180537Y-143745506D01*
X71101185Y-143648815D01*
X71004494Y-143569463D01*
X70894180Y-143510498D01*
X70774482Y-143474188D01*
X70650000Y-143461928D01*
X68850000Y-143461928D01*
X68725518Y-143474188D01*
X68605820Y-143510498D01*
X68495506Y-143569463D01*
X68398815Y-143648815D01*
X68319463Y-143745506D01*
X68260498Y-143855820D01*
X68224188Y-143975518D01*
X68211928Y-144100000D01*
X64660000Y-144100000D01*
X64660000Y-139100000D01*
X78211928Y-139100000D01*
X78211928Y-140900000D01*
X78224188Y-141024482D01*
X78260498Y-141144180D01*
X78319463Y-141254494D01*
X78398815Y-141351185D01*
X78495506Y-141430537D01*
X78605820Y-141489502D01*
X78725518Y-141525812D01*
X78850000Y-141538072D01*
X80650000Y-141538072D01*
X80774482Y-141525812D01*
X80894180Y-141489502D01*
X81004494Y-141430537D01*
X81101185Y-141351185D01*
X81180537Y-141254494D01*
X81239502Y-141144180D01*
X81242813Y-141133265D01*
X81289578Y-141180030D01*
X81405526Y-141064082D01*
X81489208Y-141318261D01*
X81761775Y-141449158D01*
X82054642Y-141524365D01*
X82356553Y-141540991D01*
X82655907Y-141498397D01*
X82941199Y-141398222D01*
X83090792Y-141318261D01*
X83174475Y-141064080D01*
X82290000Y-140179605D01*
X82275858Y-140193748D01*
X82096253Y-140014143D01*
X82110395Y-140000000D01*
X82469605Y-140000000D01*
X83354080Y-140884475D01*
X83608261Y-140800792D01*
X83739158Y-140528225D01*
X83814365Y-140235358D01*
X83830991Y-139933447D01*
X83788397Y-139634093D01*
X83688222Y-139348801D01*
X83608261Y-139199208D01*
X83354080Y-139115525D01*
X82469605Y-140000000D01*
X82110395Y-140000000D01*
X82096253Y-139985858D01*
X82275858Y-139806253D01*
X82290000Y-139820395D01*
X83174475Y-138935920D01*
X83090792Y-138681739D01*
X82818225Y-138550842D01*
X82525358Y-138475635D01*
X82223447Y-138459009D01*
X81924093Y-138501603D01*
X81638801Y-138601778D01*
X81489208Y-138681739D01*
X81405526Y-138935918D01*
X81289578Y-138819970D01*
X81242813Y-138866735D01*
X81239502Y-138855820D01*
X81180537Y-138745506D01*
X81101185Y-138648815D01*
X81004494Y-138569463D01*
X80894180Y-138510498D01*
X80774482Y-138474188D01*
X80650000Y-138461928D01*
X78850000Y-138461928D01*
X78725518Y-138474188D01*
X78605820Y-138510498D01*
X78495506Y-138569463D01*
X78398815Y-138648815D01*
X78319463Y-138745506D01*
X78260498Y-138855820D01*
X78224188Y-138975518D01*
X78211928Y-139100000D01*
X64660000Y-139100000D01*
X64660000Y-136228268D01*
X70653639Y-128600000D01*
X72211928Y-128600000D01*
X72211928Y-130400000D01*
X72224188Y-130524482D01*
X72260498Y-130644180D01*
X72319463Y-130754494D01*
X72398815Y-130851185D01*
X72495506Y-130930537D01*
X72605820Y-130989502D01*
X72725518Y-131025812D01*
X72850000Y-131038072D01*
X74650000Y-131038072D01*
X74774482Y-131025812D01*
X74894180Y-130989502D01*
X75004494Y-130930537D01*
X75101185Y-130851185D01*
X75180537Y-130754494D01*
X75239502Y-130644180D01*
X75242813Y-130633265D01*
X75289578Y-130680030D01*
X75405526Y-130564082D01*
X75489208Y-130818261D01*
X75761775Y-130949158D01*
X76054642Y-131024365D01*
X76356553Y-131040991D01*
X76655907Y-130998397D01*
X76941199Y-130898222D01*
X77090792Y-130818261D01*
X77174475Y-130564080D01*
X76290000Y-129679605D01*
X76275858Y-129693748D01*
X76096253Y-129514143D01*
X76110395Y-129500000D01*
X76469605Y-129500000D01*
X77354080Y-130384475D01*
X77608261Y-130300792D01*
X77739158Y-130028225D01*
X77814365Y-129735358D01*
X77830991Y-129433447D01*
X77788397Y-129134093D01*
X77688222Y-128848801D01*
X77608261Y-128699208D01*
X77354080Y-128615525D01*
X76469605Y-129500000D01*
X76110395Y-129500000D01*
X76096253Y-129485858D01*
X76275858Y-129306253D01*
X76290000Y-129320395D01*
X77174475Y-128435920D01*
X77090792Y-128181739D01*
X76818225Y-128050842D01*
X76525358Y-127975635D01*
X76223447Y-127959009D01*
X75924093Y-128001603D01*
X75638801Y-128101778D01*
X75489208Y-128181739D01*
X75405526Y-128435918D01*
X75289578Y-128319970D01*
X75242813Y-128366735D01*
X75239502Y-128355820D01*
X75180537Y-128245506D01*
X75101185Y-128148815D01*
X75004494Y-128069463D01*
X74894180Y-128010498D01*
X74774482Y-127974188D01*
X74650000Y-127961928D01*
X72850000Y-127961928D01*
X72725518Y-127974188D01*
X72605820Y-128010498D01*
X72495506Y-128069463D01*
X72398815Y-128148815D01*
X72319463Y-128245506D01*
X72260498Y-128355820D01*
X72224188Y-128475518D01*
X72211928Y-128600000D01*
X70653639Y-128600000D01*
X75514657Y-122413251D01*
X75551425Y-122368450D01*
X75570096Y-122333520D01*
X75591396Y-122300126D01*
X75600669Y-122276321D01*
X75612710Y-122253793D01*
X75624207Y-122215892D01*
X75638584Y-122178984D01*
X75643034Y-122153830D01*
X75650450Y-122129383D01*
X75654332Y-122089966D01*
X75661232Y-122050964D01*
X75660000Y-121993028D01*
X75660000Y-104045582D01*
X75662669Y-104026354D01*
X75660000Y-103980727D01*
X75660000Y-103967581D01*
X75658106Y-103948354D01*
X75655077Y-103896567D01*
X75651746Y-103883778D01*
X75650450Y-103870617D01*
X75635386Y-103820958D01*
X75622311Y-103770754D01*
X75616547Y-103758856D01*
X75612710Y-103746207D01*
X75588250Y-103700445D01*
X75565630Y-103653753D01*
X75557658Y-103643211D01*
X75551425Y-103631550D01*
X75518511Y-103591444D01*
X75487213Y-103550057D01*
X75477333Y-103541269D01*
X75468948Y-103531052D01*
X75428849Y-103498144D01*
X75414412Y-103485302D01*
X75403779Y-103477569D01*
X75368450Y-103448575D01*
X75351330Y-103439424D01*
X74111970Y-102538072D01*
X74650000Y-102538072D01*
X74774482Y-102525812D01*
X74894180Y-102489502D01*
X75004494Y-102430537D01*
X75101185Y-102351185D01*
X75180537Y-102254494D01*
X75239502Y-102144180D01*
X75242813Y-102133265D01*
X75289578Y-102180030D01*
X75405526Y-102064082D01*
X75489208Y-102318261D01*
X75761775Y-102449158D01*
X76054642Y-102524365D01*
X76356553Y-102540991D01*
X76655907Y-102498397D01*
X76941199Y-102398222D01*
X77090792Y-102318261D01*
X77174475Y-102064080D01*
X76290000Y-101179605D01*
X76275858Y-101193748D01*
X76096253Y-101014143D01*
X76110395Y-101000000D01*
X76469605Y-101000000D01*
X77354080Y-101884475D01*
X77608261Y-101800792D01*
X77739158Y-101528225D01*
X77814365Y-101235358D01*
X77830991Y-100933447D01*
X77788397Y-100634093D01*
X77688222Y-100348801D01*
X77608261Y-100199208D01*
X77354080Y-100115525D01*
X76469605Y-101000000D01*
X76110395Y-101000000D01*
X76096253Y-100985858D01*
X76275858Y-100806253D01*
X76290000Y-100820395D01*
X77174475Y-99935920D01*
X77090792Y-99681739D01*
X76818225Y-99550842D01*
X76525358Y-99475635D01*
X76223447Y-99459009D01*
X75924093Y-99501603D01*
X75638801Y-99601778D01*
X75489208Y-99681739D01*
X75405526Y-99935918D01*
X75289578Y-99819970D01*
X75242813Y-99866735D01*
X75239502Y-99855820D01*
X75180537Y-99745506D01*
X75101185Y-99648815D01*
X75004494Y-99569463D01*
X74894180Y-99510498D01*
X74774482Y-99474188D01*
X74650000Y-99461928D01*
X72850000Y-99461928D01*
X72725518Y-99474188D01*
X72605820Y-99510498D01*
X72495506Y-99569463D01*
X72398815Y-99648815D01*
X72319463Y-99745506D01*
X72260498Y-99855820D01*
X72224188Y-99975518D01*
X72211928Y-100100000D01*
X72211928Y-101156223D01*
X64660000Y-95663913D01*
X64660000Y-89100000D01*
X78211928Y-89100000D01*
X78211928Y-90900000D01*
X78224188Y-91024482D01*
X78260498Y-91144180D01*
X78319463Y-91254494D01*
X78398815Y-91351185D01*
X78495506Y-91430537D01*
X78605820Y-91489502D01*
X78725518Y-91525812D01*
X78850000Y-91538072D01*
X80650000Y-91538072D01*
X80774482Y-91525812D01*
X80894180Y-91489502D01*
X81004494Y-91430537D01*
X81101185Y-91351185D01*
X81180537Y-91254494D01*
X81239502Y-91144180D01*
X81242813Y-91133265D01*
X81289578Y-91180030D01*
X81405526Y-91064082D01*
X81489208Y-91318261D01*
X81761775Y-91449158D01*
X82054642Y-91524365D01*
X82356553Y-91540991D01*
X82655907Y-91498397D01*
X82941199Y-91398222D01*
X83090792Y-91318261D01*
X83174475Y-91064080D01*
X82290000Y-90179605D01*
X82275858Y-90193748D01*
X82096253Y-90014143D01*
X82110395Y-90000000D01*
X82469605Y-90000000D01*
X83354080Y-90884475D01*
X83608261Y-90800792D01*
X83739158Y-90528225D01*
X83814365Y-90235358D01*
X83830991Y-89933447D01*
X83788397Y-89634093D01*
X83688222Y-89348801D01*
X83608261Y-89199208D01*
X83354080Y-89115525D01*
X82469605Y-90000000D01*
X82110395Y-90000000D01*
X82096253Y-89985858D01*
X82275858Y-89806253D01*
X82290000Y-89820395D01*
X83174475Y-88935920D01*
X83090792Y-88681739D01*
X82818225Y-88550842D01*
X82525358Y-88475635D01*
X82223447Y-88459009D01*
X81924093Y-88501603D01*
X81638801Y-88601778D01*
X81489208Y-88681739D01*
X81405526Y-88935918D01*
X81289578Y-88819970D01*
X81242813Y-88866735D01*
X81239502Y-88855820D01*
X81180537Y-88745506D01*
X81101185Y-88648815D01*
X81004494Y-88569463D01*
X80894180Y-88510498D01*
X80774482Y-88474188D01*
X80650000Y-88461928D01*
X78850000Y-88461928D01*
X78725518Y-88474188D01*
X78605820Y-88510498D01*
X78495506Y-88569463D01*
X78398815Y-88648815D01*
X78319463Y-88745506D01*
X78260498Y-88855820D01*
X78224188Y-88975518D01*
X78211928Y-89100000D01*
X64660000Y-89100000D01*
X64660000Y-84100000D01*
X68211928Y-84100000D01*
X68211928Y-85900000D01*
X68224188Y-86024482D01*
X68260498Y-86144180D01*
X68319463Y-86254494D01*
X68398815Y-86351185D01*
X68495506Y-86430537D01*
X68605820Y-86489502D01*
X68725518Y-86525812D01*
X68850000Y-86538072D01*
X70650000Y-86538072D01*
X70774482Y-86525812D01*
X70894180Y-86489502D01*
X71004494Y-86430537D01*
X71101185Y-86351185D01*
X71180537Y-86254494D01*
X71239502Y-86144180D01*
X71242813Y-86133265D01*
X71289578Y-86180030D01*
X71405526Y-86064082D01*
X71489208Y-86318261D01*
X71761775Y-86449158D01*
X72054642Y-86524365D01*
X72356553Y-86540991D01*
X72655907Y-86498397D01*
X72941199Y-86398222D01*
X73090792Y-86318261D01*
X73103430Y-86279872D01*
X99765000Y-86279872D01*
X99765000Y-86720128D01*
X99850890Y-87151925D01*
X100019369Y-87558669D01*
X100263962Y-87924729D01*
X100575271Y-88236038D01*
X100941331Y-88480631D01*
X101348075Y-88649110D01*
X101779872Y-88735000D01*
X102220128Y-88735000D01*
X102651925Y-88649110D01*
X103058669Y-88480631D01*
X103424729Y-88236038D01*
X103736038Y-87924729D01*
X103980631Y-87558669D01*
X104149110Y-87151925D01*
X104235000Y-86720128D01*
X104235000Y-86279872D01*
X139765000Y-86279872D01*
X139765000Y-86720128D01*
X139850890Y-87151925D01*
X140019369Y-87558669D01*
X140263962Y-87924729D01*
X140575271Y-88236038D01*
X140941331Y-88480631D01*
X141348075Y-88649110D01*
X141779872Y-88735000D01*
X142220128Y-88735000D01*
X142651925Y-88649110D01*
X143058669Y-88480631D01*
X143424729Y-88236038D01*
X143736038Y-87924729D01*
X143980631Y-87558669D01*
X144149110Y-87151925D01*
X144235000Y-86720128D01*
X144235000Y-86279872D01*
X144149110Y-85848075D01*
X143980631Y-85441331D01*
X143736038Y-85075271D01*
X143558828Y-84898061D01*
X156965000Y-84898061D01*
X156965000Y-85101939D01*
X157004774Y-85301898D01*
X157082795Y-85490256D01*
X157196063Y-85659774D01*
X157340226Y-85803937D01*
X157509744Y-85917205D01*
X157698102Y-85995226D01*
X157898061Y-86035000D01*
X158101939Y-86035000D01*
X158301898Y-85995226D01*
X158490256Y-85917205D01*
X158659774Y-85803937D01*
X158803937Y-85659774D01*
X158917205Y-85490256D01*
X158995226Y-85301898D01*
X159024093Y-85156775D01*
X160345868Y-83835000D01*
X166386721Y-83835000D01*
X166509750Y-83917205D01*
X166698108Y-83995226D01*
X166898067Y-84035000D01*
X167101945Y-84035000D01*
X167301904Y-83995226D01*
X167490262Y-83917205D01*
X167659780Y-83803937D01*
X167803943Y-83659774D01*
X167917211Y-83490256D01*
X167995232Y-83301898D01*
X168035006Y-83101939D01*
X168035006Y-82898061D01*
X167995232Y-82698102D01*
X167917211Y-82509744D01*
X167803943Y-82340226D01*
X167659780Y-82196063D01*
X167490262Y-82082795D01*
X167301904Y-82004774D01*
X167101945Y-81965000D01*
X166898067Y-81965000D01*
X166698108Y-82004774D01*
X166509750Y-82082795D01*
X166386721Y-82165000D01*
X160041018Y-82165000D01*
X159999999Y-82160960D01*
X159958981Y-82165000D01*
X159836311Y-82177082D01*
X159678913Y-82224828D01*
X159533854Y-82302364D01*
X159406709Y-82406709D01*
X159380559Y-82438573D01*
X157843225Y-83975907D01*
X157698102Y-84004774D01*
X157509744Y-84082795D01*
X157340226Y-84196063D01*
X157196063Y-84340226D01*
X157082795Y-84509744D01*
X157004774Y-84698102D01*
X156965000Y-84898061D01*
X143558828Y-84898061D01*
X143424729Y-84763962D01*
X143058669Y-84519369D01*
X142651925Y-84350890D01*
X142220128Y-84265000D01*
X141779872Y-84265000D01*
X141348075Y-84350890D01*
X140941331Y-84519369D01*
X140575271Y-84763962D01*
X140263962Y-85075271D01*
X140019369Y-85441331D01*
X139850890Y-85848075D01*
X139765000Y-86279872D01*
X104235000Y-86279872D01*
X104149110Y-85848075D01*
X103980631Y-85441331D01*
X103736038Y-85075271D01*
X103424729Y-84763962D01*
X103058669Y-84519369D01*
X102651925Y-84350890D01*
X102220128Y-84265000D01*
X101779872Y-84265000D01*
X101348075Y-84350890D01*
X100941331Y-84519369D01*
X100575271Y-84763962D01*
X100263962Y-85075271D01*
X100019369Y-85441331D01*
X99850890Y-85848075D01*
X99765000Y-86279872D01*
X73103430Y-86279872D01*
X73174475Y-86064080D01*
X72290000Y-85179605D01*
X72275858Y-85193748D01*
X72096253Y-85014143D01*
X72110395Y-85000000D01*
X72469605Y-85000000D01*
X73354080Y-85884475D01*
X73608261Y-85800792D01*
X73739158Y-85528225D01*
X73814365Y-85235358D01*
X73830991Y-84933447D01*
X73788397Y-84634093D01*
X73688222Y-84348801D01*
X73608261Y-84199208D01*
X73354080Y-84115525D01*
X72469605Y-85000000D01*
X72110395Y-85000000D01*
X72096253Y-84985858D01*
X72275858Y-84806253D01*
X72290000Y-84820395D01*
X73174475Y-83935920D01*
X73090792Y-83681739D01*
X72818225Y-83550842D01*
X72525358Y-83475635D01*
X72223447Y-83459009D01*
X71924093Y-83501603D01*
X71638801Y-83601778D01*
X71489208Y-83681739D01*
X71405526Y-83935918D01*
X71289578Y-83819970D01*
X71242813Y-83866735D01*
X71239502Y-83855820D01*
X71180537Y-83745506D01*
X71101185Y-83648815D01*
X71004494Y-83569463D01*
X70894180Y-83510498D01*
X70774482Y-83474188D01*
X70650000Y-83461928D01*
X68850000Y-83461928D01*
X68725518Y-83474188D01*
X68605820Y-83510498D01*
X68495506Y-83569463D01*
X68398815Y-83648815D01*
X68319463Y-83745506D01*
X68260498Y-83855820D01*
X68224188Y-83975518D01*
X68211928Y-84100000D01*
X64660000Y-84100000D01*
X64660000Y-83029392D01*
X64731173Y-82231917D01*
X64934656Y-81488109D01*
X65119774Y-81100000D01*
X87211928Y-81100000D01*
X87211928Y-82900000D01*
X87224188Y-83024482D01*
X87260498Y-83144180D01*
X87319463Y-83254494D01*
X87398815Y-83351185D01*
X87495506Y-83430537D01*
X87605820Y-83489502D01*
X87725518Y-83525812D01*
X87850000Y-83538072D01*
X89650000Y-83538072D01*
X89774482Y-83525812D01*
X89894180Y-83489502D01*
X90004494Y-83430537D01*
X90101185Y-83351185D01*
X90180537Y-83254494D01*
X90239502Y-83144180D01*
X90242813Y-83133265D01*
X90289578Y-83180030D01*
X90405526Y-83064082D01*
X90489208Y-83318261D01*
X90761775Y-83449158D01*
X91054642Y-83524365D01*
X91356553Y-83540991D01*
X91655907Y-83498397D01*
X91941199Y-83398222D01*
X92090792Y-83318261D01*
X92174475Y-83064080D01*
X91290000Y-82179605D01*
X91275858Y-82193748D01*
X91096253Y-82014143D01*
X91110395Y-82000000D01*
X91469605Y-82000000D01*
X92354080Y-82884475D01*
X92608261Y-82800792D01*
X92739158Y-82528225D01*
X92814365Y-82235358D01*
X92830991Y-81933447D01*
X92788397Y-81634093D01*
X92688222Y-81348801D01*
X92608261Y-81199208D01*
X92354080Y-81115525D01*
X91469605Y-82000000D01*
X91110395Y-82000000D01*
X91096253Y-81985858D01*
X91275858Y-81806253D01*
X91290000Y-81820395D01*
X92010395Y-81100000D01*
X175211928Y-81100000D01*
X175211928Y-82900000D01*
X175224188Y-83024482D01*
X175260498Y-83144180D01*
X175319463Y-83254494D01*
X175398815Y-83351185D01*
X175495506Y-83430537D01*
X175605820Y-83489502D01*
X175725518Y-83525812D01*
X175850000Y-83538072D01*
X175915000Y-83538072D01*
X175915001Y-93208971D01*
X175910960Y-93250000D01*
X175927082Y-93413688D01*
X175974828Y-93571086D01*
X175974829Y-93571087D01*
X176052365Y-93716146D01*
X176156710Y-93843291D01*
X176188574Y-93869441D01*
X179975908Y-97656777D01*
X180004774Y-97801898D01*
X180082795Y-97990256D01*
X180196063Y-98159774D01*
X180340226Y-98303937D01*
X180509744Y-98417205D01*
X180698102Y-98495226D01*
X180898061Y-98535000D01*
X181101939Y-98535000D01*
X181301898Y-98495226D01*
X181490256Y-98417205D01*
X181659774Y-98303937D01*
X181803937Y-98159774D01*
X181917205Y-97990256D01*
X181995226Y-97801898D01*
X182035000Y-97601939D01*
X182035000Y-97427666D01*
X182198102Y-97495226D01*
X182398061Y-97535000D01*
X182601939Y-97535000D01*
X182801898Y-97495226D01*
X182990256Y-97417205D01*
X183159774Y-97303937D01*
X183303937Y-97159774D01*
X183417205Y-96990256D01*
X183495226Y-96801898D01*
X183535000Y-96601939D01*
X183535000Y-96398061D01*
X183495226Y-96198102D01*
X183417205Y-96009744D01*
X183335000Y-95886715D01*
X183335000Y-89100000D01*
X184211928Y-89100000D01*
X184211928Y-90900000D01*
X184224188Y-91024482D01*
X184260498Y-91144180D01*
X184319463Y-91254494D01*
X184398815Y-91351185D01*
X184495506Y-91430537D01*
X184605820Y-91489502D01*
X184725518Y-91525812D01*
X184850000Y-91538072D01*
X186650000Y-91538072D01*
X186774482Y-91525812D01*
X186894180Y-91489502D01*
X187004494Y-91430537D01*
X187101185Y-91351185D01*
X187180537Y-91254494D01*
X187239502Y-91144180D01*
X187242813Y-91133265D01*
X187289578Y-91180030D01*
X187405526Y-91064082D01*
X187489208Y-91318261D01*
X187761775Y-91449158D01*
X188054642Y-91524365D01*
X188356553Y-91540991D01*
X188655907Y-91498397D01*
X188941199Y-91398222D01*
X189090792Y-91318261D01*
X189174475Y-91064080D01*
X188290000Y-90179605D01*
X188275858Y-90193748D01*
X188096253Y-90014143D01*
X188110395Y-90000000D01*
X188469605Y-90000000D01*
X189354080Y-90884475D01*
X189608261Y-90800792D01*
X189739158Y-90528225D01*
X189814365Y-90235358D01*
X189830991Y-89933447D01*
X189788397Y-89634093D01*
X189688222Y-89348801D01*
X189608261Y-89199208D01*
X189354080Y-89115525D01*
X188469605Y-90000000D01*
X188110395Y-90000000D01*
X188096253Y-89985858D01*
X188275858Y-89806253D01*
X188290000Y-89820395D01*
X189174475Y-88935920D01*
X189090792Y-88681739D01*
X188818225Y-88550842D01*
X188525358Y-88475635D01*
X188223447Y-88459009D01*
X187924093Y-88501603D01*
X187638801Y-88601778D01*
X187489208Y-88681739D01*
X187405526Y-88935918D01*
X187289578Y-88819970D01*
X187242813Y-88866735D01*
X187239502Y-88855820D01*
X187180537Y-88745506D01*
X187101185Y-88648815D01*
X187004494Y-88569463D01*
X186894180Y-88510498D01*
X186774482Y-88474188D01*
X186650000Y-88461928D01*
X184850000Y-88461928D01*
X184725518Y-88474188D01*
X184605820Y-88510498D01*
X184495506Y-88569463D01*
X184398815Y-88648815D01*
X184319463Y-88745506D01*
X184260498Y-88855820D01*
X184224188Y-88975518D01*
X184211928Y-89100000D01*
X183335000Y-89100000D01*
X183335000Y-89095867D01*
X186595869Y-85835000D01*
X194671928Y-85835000D01*
X194671928Y-85900000D01*
X194684188Y-86024482D01*
X194720498Y-86144180D01*
X194779463Y-86254494D01*
X194858815Y-86351185D01*
X194955506Y-86430537D01*
X195065820Y-86489502D01*
X195185518Y-86525812D01*
X195310000Y-86538072D01*
X197110000Y-86538072D01*
X197234482Y-86525812D01*
X197354180Y-86489502D01*
X197464494Y-86430537D01*
X197561185Y-86351185D01*
X197640537Y-86254494D01*
X197699502Y-86144180D01*
X197702813Y-86133265D01*
X197749578Y-86180030D01*
X197865526Y-86064082D01*
X197949208Y-86318261D01*
X198015694Y-86350190D01*
X197984382Y-86366927D01*
X197755097Y-86555097D01*
X197566927Y-86784382D01*
X197427104Y-87045972D01*
X197341001Y-87329814D01*
X197311928Y-87625000D01*
X197311928Y-89375000D01*
X197321494Y-89472131D01*
X197280537Y-89395506D01*
X197201185Y-89298815D01*
X197104494Y-89219463D01*
X196994180Y-89160498D01*
X196874482Y-89124188D01*
X196750000Y-89111928D01*
X193250000Y-89111928D01*
X193125518Y-89124188D01*
X193005820Y-89160498D01*
X192895506Y-89219463D01*
X192798815Y-89298815D01*
X192719463Y-89395506D01*
X192660498Y-89505820D01*
X192624188Y-89625518D01*
X192611928Y-89750000D01*
X192611928Y-93250000D01*
X192624188Y-93374482D01*
X192660498Y-93494180D01*
X192719463Y-93604494D01*
X192798815Y-93701185D01*
X192895506Y-93780537D01*
X193005820Y-93839502D01*
X193125518Y-93875812D01*
X193250000Y-93888072D01*
X196750000Y-93888072D01*
X196874482Y-93875812D01*
X196994180Y-93839502D01*
X197104494Y-93780537D01*
X197201185Y-93701185D01*
X197280537Y-93604494D01*
X197339502Y-93494180D01*
X197375812Y-93374482D01*
X197388072Y-93250000D01*
X197388072Y-89825357D01*
X197427104Y-89954028D01*
X197566927Y-90215618D01*
X197755097Y-90444903D01*
X197984382Y-90633073D01*
X198245972Y-90772896D01*
X198529814Y-90858999D01*
X198825000Y-90888072D01*
X200575000Y-90888072D01*
X200870186Y-90858999D01*
X201154028Y-90772896D01*
X201415618Y-90633073D01*
X201644903Y-90444903D01*
X201833073Y-90215618D01*
X201972896Y-89954028D01*
X202058999Y-89670186D01*
X202088072Y-89375000D01*
X202088072Y-87625000D01*
X202058999Y-87329814D01*
X201972896Y-87045972D01*
X201833073Y-86784382D01*
X201644903Y-86555097D01*
X201415618Y-86366927D01*
X201154028Y-86227104D01*
X200870186Y-86141001D01*
X200575000Y-86111928D01*
X199618722Y-86111928D01*
X199634475Y-86064080D01*
X198750000Y-85179605D01*
X198735858Y-85193748D01*
X198556253Y-85014143D01*
X198570395Y-85000000D01*
X198929605Y-85000000D01*
X199814080Y-85884475D01*
X200068261Y-85800792D01*
X200199158Y-85528225D01*
X200274365Y-85235358D01*
X200290991Y-84933447D01*
X200248397Y-84634093D01*
X200148222Y-84348801D01*
X200068261Y-84199208D01*
X199814080Y-84115525D01*
X198929605Y-85000000D01*
X198570395Y-85000000D01*
X198556253Y-84985858D01*
X198735858Y-84806253D01*
X198750000Y-84820395D01*
X199634475Y-83935920D01*
X199550792Y-83681739D01*
X199278225Y-83550842D01*
X198985358Y-83475635D01*
X198683447Y-83459009D01*
X198384093Y-83501603D01*
X198098801Y-83601778D01*
X197949208Y-83681739D01*
X197865526Y-83935918D01*
X197749578Y-83819970D01*
X197702813Y-83866735D01*
X197699502Y-83855820D01*
X197640537Y-83745506D01*
X197561185Y-83648815D01*
X197464494Y-83569463D01*
X197354180Y-83510498D01*
X197234482Y-83474188D01*
X197110000Y-83461928D01*
X195310000Y-83461928D01*
X195185518Y-83474188D01*
X195065820Y-83510498D01*
X194955506Y-83569463D01*
X194858815Y-83648815D01*
X194779463Y-83745506D01*
X194720498Y-83855820D01*
X194684188Y-83975518D01*
X194671928Y-84100000D01*
X194671928Y-84165000D01*
X186291018Y-84165000D01*
X186250000Y-84160960D01*
X186086311Y-84177082D01*
X185928913Y-84224828D01*
X185783854Y-84302364D01*
X185724725Y-84350890D01*
X185656709Y-84406709D01*
X185630563Y-84438568D01*
X181938579Y-88130554D01*
X181906709Y-88156709D01*
X181802365Y-88283854D01*
X181802364Y-88283855D01*
X181724828Y-88428914D01*
X181677082Y-88586312D01*
X181660960Y-88750000D01*
X181665000Y-88791019D01*
X181665001Y-95886714D01*
X181582795Y-96009744D01*
X181504774Y-96198102D01*
X181465000Y-96398061D01*
X181465000Y-96572334D01*
X181301898Y-96504774D01*
X181156777Y-96475908D01*
X177585000Y-92904133D01*
X177585000Y-83538072D01*
X177650000Y-83538072D01*
X177774482Y-83525812D01*
X177894180Y-83489502D01*
X178004494Y-83430537D01*
X178101185Y-83351185D01*
X178180537Y-83254494D01*
X178239502Y-83144180D01*
X178242813Y-83133265D01*
X178289578Y-83180030D01*
X178405526Y-83064082D01*
X178489208Y-83318261D01*
X178761775Y-83449158D01*
X179054642Y-83524365D01*
X179356553Y-83540991D01*
X179655907Y-83498397D01*
X179941199Y-83398222D01*
X180090792Y-83318261D01*
X180174475Y-83064080D01*
X179290000Y-82179605D01*
X179275858Y-82193748D01*
X179096253Y-82014143D01*
X179110395Y-82000000D01*
X179469605Y-82000000D01*
X180354080Y-82884475D01*
X180608261Y-82800792D01*
X180739158Y-82528225D01*
X180814365Y-82235358D01*
X180830991Y-81933447D01*
X180788397Y-81634093D01*
X180688222Y-81348801D01*
X180608261Y-81199208D01*
X180354080Y-81115525D01*
X179469605Y-82000000D01*
X179110395Y-82000000D01*
X179096253Y-81985858D01*
X179275858Y-81806253D01*
X179290000Y-81820395D01*
X180174475Y-80935920D01*
X180090792Y-80681739D01*
X179818225Y-80550842D01*
X179525358Y-80475635D01*
X179223447Y-80459009D01*
X178924093Y-80501603D01*
X178638801Y-80601778D01*
X178489208Y-80681739D01*
X178405526Y-80935918D01*
X178289578Y-80819970D01*
X178242813Y-80866735D01*
X178239502Y-80855820D01*
X178180537Y-80745506D01*
X178101185Y-80648815D01*
X178004494Y-80569463D01*
X177894180Y-80510498D01*
X177774482Y-80474188D01*
X177650000Y-80461928D01*
X175850000Y-80461928D01*
X175725518Y-80474188D01*
X175605820Y-80510498D01*
X175495506Y-80569463D01*
X175398815Y-80648815D01*
X175319463Y-80745506D01*
X175260498Y-80855820D01*
X175224188Y-80975518D01*
X175211928Y-81100000D01*
X92010395Y-81100000D01*
X92174475Y-80935920D01*
X92090792Y-80681739D01*
X91818225Y-80550842D01*
X91525358Y-80475635D01*
X91223447Y-80459009D01*
X90924093Y-80501603D01*
X90638801Y-80601778D01*
X90489208Y-80681739D01*
X90405526Y-80935918D01*
X90289578Y-80819970D01*
X90242813Y-80866735D01*
X90239502Y-80855820D01*
X90180537Y-80745506D01*
X90101185Y-80648815D01*
X90004494Y-80569463D01*
X89894180Y-80510498D01*
X89774482Y-80474188D01*
X89650000Y-80461928D01*
X87850000Y-80461928D01*
X87725518Y-80474188D01*
X87605820Y-80510498D01*
X87495506Y-80569463D01*
X87398815Y-80648815D01*
X87319463Y-80745506D01*
X87260498Y-80855820D01*
X87224188Y-80975518D01*
X87211928Y-81100000D01*
X65119774Y-81100000D01*
X65266638Y-80792095D01*
X65716626Y-80165870D01*
X66270403Y-79629223D01*
X66910451Y-79199129D01*
X67616553Y-78889171D01*
X68371457Y-78707935D01*
X69024207Y-78660000D01*
X198970608Y-78660000D01*
X199768083Y-78731173D01*
G36*
X144673001Y-100237473D02*
G01*
X144646790Y-100276700D01*
X144531681Y-100554596D01*
X144473000Y-100849610D01*
X144473000Y-101150402D01*
X144531681Y-101445416D01*
X144646790Y-101723312D01*
X144813901Y-101973412D01*
X145026594Y-102186105D01*
X145276694Y-102353216D01*
X145554590Y-102468325D01*
X145849604Y-102527006D01*
X146150396Y-102527006D01*
X146445410Y-102468325D01*
X146723306Y-102353216D01*
X146973406Y-102186105D01*
X147186099Y-101973412D01*
X147353210Y-101723312D01*
X147468319Y-101445416D01*
X147527000Y-101150402D01*
X147527000Y-100849610D01*
X147468319Y-100554596D01*
X147353210Y-100276700D01*
X147327000Y-100237474D01*
X147327000Y-99377000D01*
X155518074Y-99377000D01*
X155531681Y-99445410D01*
X155646790Y-99723306D01*
X155813901Y-99973406D01*
X156026594Y-100186099D01*
X156276694Y-100353210D01*
X156554590Y-100468319D01*
X156849604Y-100527000D01*
X157150396Y-100527000D01*
X157445410Y-100468319D01*
X157723306Y-100353210D01*
X157973406Y-100186099D01*
X158186099Y-99973406D01*
X158353210Y-99723306D01*
X158468319Y-99445410D01*
X158477523Y-99399137D01*
X158499660Y-99377000D01*
X175373000Y-99377000D01*
X175373000Y-146077070D01*
X175220843Y-146158400D01*
X175049235Y-146299235D01*
X174908400Y-146470843D01*
X174803750Y-146666629D01*
X174739307Y-146879069D01*
X174717547Y-147100000D01*
X174717547Y-148848000D01*
X99547715Y-148848000D01*
X99626498Y-136981414D01*
X104023000Y-136981414D01*
X104023000Y-137518586D01*
X104127797Y-138045437D01*
X104333364Y-138541719D01*
X104631801Y-138988361D01*
X105011639Y-139368199D01*
X105458281Y-139666636D01*
X105954563Y-139872203D01*
X106481414Y-139977000D01*
X107018586Y-139977000D01*
X107545437Y-139872203D01*
X108041719Y-139666636D01*
X108488361Y-139368199D01*
X108868199Y-138988361D01*
X109166636Y-138541719D01*
X109372203Y-138045437D01*
X109477000Y-137518586D01*
X109477000Y-136981414D01*
X169023000Y-136981414D01*
X169023000Y-137518586D01*
X169127797Y-138045437D01*
X169333364Y-138541719D01*
X169631801Y-138988361D01*
X170011639Y-139368199D01*
X170458281Y-139666636D01*
X170954563Y-139872203D01*
X171481414Y-139977000D01*
X172018586Y-139977000D01*
X172545437Y-139872203D01*
X173041719Y-139666636D01*
X173488361Y-139368199D01*
X173868199Y-138988361D01*
X174166636Y-138541719D01*
X174372203Y-138045437D01*
X174477000Y-137518586D01*
X174477000Y-136981414D01*
X174372203Y-136454563D01*
X174166636Y-135958281D01*
X173868199Y-135511639D01*
X173488361Y-135131801D01*
X173041719Y-134833364D01*
X172545437Y-134627797D01*
X172018586Y-134523000D01*
X171481414Y-134523000D01*
X170954563Y-134627797D01*
X170458281Y-134833364D01*
X170011639Y-135131801D01*
X169631801Y-135511639D01*
X169333364Y-135958281D01*
X169127797Y-136454563D01*
X169023000Y-136981414D01*
X109477000Y-136981414D01*
X109372203Y-136454563D01*
X109166636Y-135958281D01*
X108868199Y-135511639D01*
X108488361Y-135131801D01*
X108440175Y-135099604D01*
X127723000Y-135099604D01*
X127723000Y-135400396D01*
X127781681Y-135695410D01*
X127896790Y-135973306D01*
X128063901Y-136223406D01*
X128276594Y-136436099D01*
X128526694Y-136603210D01*
X128804590Y-136718319D01*
X129099604Y-136777000D01*
X129400396Y-136777000D01*
X129695410Y-136718319D01*
X129973306Y-136603210D01*
X130223406Y-136436099D01*
X130436099Y-136223406D01*
X130603210Y-135973306D01*
X130718319Y-135695410D01*
X130727523Y-135649137D01*
X132649138Y-133727523D01*
X132695410Y-133718319D01*
X132973306Y-133603210D01*
X133223406Y-133436099D01*
X133436099Y-133223406D01*
X133603210Y-132973306D01*
X133718319Y-132695410D01*
X133777000Y-132400396D01*
X133777000Y-132099604D01*
X133718319Y-131804590D01*
X133603210Y-131526694D01*
X133436099Y-131276594D01*
X133223406Y-131063901D01*
X132973306Y-130896790D01*
X132695410Y-130781681D01*
X132400396Y-130723000D01*
X132099604Y-130723000D01*
X131804590Y-130781681D01*
X131526694Y-130896790D01*
X131276594Y-131063901D01*
X131063901Y-131276594D01*
X130896790Y-131526694D01*
X130781681Y-131804590D01*
X130772477Y-131850862D01*
X128850863Y-133772477D01*
X128804590Y-133781681D01*
X128526694Y-133896790D01*
X128276594Y-134063901D01*
X128063901Y-134276594D01*
X127896790Y-134526694D01*
X127781681Y-134804590D01*
X127723000Y-135099604D01*
X108440175Y-135099604D01*
X108041719Y-134833364D01*
X107545437Y-134627797D01*
X107018586Y-134523000D01*
X106481414Y-134523000D01*
X105954563Y-134627797D01*
X105458281Y-134833364D01*
X105011639Y-135131801D01*
X104631801Y-135511639D01*
X104333364Y-135958281D01*
X104127797Y-136454563D01*
X104023000Y-136981414D01*
X99626498Y-136981414D01*
X99681965Y-128627000D01*
X99750000Y-128627000D01*
X99774776Y-128624560D01*
X99798601Y-128617333D01*
X99820557Y-128605597D01*
X99839803Y-128589803D01*
X99855597Y-128570557D01*
X99867333Y-128548601D01*
X99874560Y-128524776D01*
X99877000Y-128500000D01*
X99877000Y-121849604D01*
X115473000Y-121849604D01*
X115473000Y-122150396D01*
X115531681Y-122445410D01*
X115646790Y-122723306D01*
X115813901Y-122973406D01*
X116026594Y-123186099D01*
X116276694Y-123353210D01*
X116554590Y-123468319D01*
X116849604Y-123527000D01*
X117150396Y-123527000D01*
X117445410Y-123468319D01*
X117723306Y-123353210D01*
X117973406Y-123186099D01*
X118186099Y-122973406D01*
X118353210Y-122723306D01*
X118468319Y-122445410D01*
X118477523Y-122399137D01*
X119899138Y-120977523D01*
X119945410Y-120968319D01*
X120223306Y-120853210D01*
X120473406Y-120686099D01*
X120686099Y-120473406D01*
X120853210Y-120223306D01*
X120968319Y-119945410D01*
X121027000Y-119650396D01*
X121027000Y-119349604D01*
X120968319Y-119054590D01*
X120853210Y-118776694D01*
X120686099Y-118526594D01*
X120473406Y-118313901D01*
X120223306Y-118146790D01*
X119945410Y-118031681D01*
X119650396Y-117973000D01*
X119349604Y-117973000D01*
X119054590Y-118031681D01*
X118776694Y-118146790D01*
X118526594Y-118313901D01*
X118313901Y-118526594D01*
X118146790Y-118776694D01*
X118031681Y-119054590D01*
X118022477Y-119100862D01*
X116600863Y-120522477D01*
X116554590Y-120531681D01*
X116276694Y-120646790D01*
X116026594Y-120813901D01*
X115813901Y-121026594D01*
X115646790Y-121276694D01*
X115531681Y-121554590D01*
X115473000Y-121849604D01*
X99877000Y-121849604D01*
X99877000Y-118849604D01*
X111473000Y-118849604D01*
X111473000Y-119150396D01*
X111531681Y-119445410D01*
X111646790Y-119723306D01*
X111813901Y-119973406D01*
X112026594Y-120186099D01*
X112276694Y-120353210D01*
X112554590Y-120468319D01*
X112849604Y-120527000D01*
X113150396Y-120527000D01*
X113445410Y-120468319D01*
X113723306Y-120353210D01*
X113973406Y-120186099D01*
X114186099Y-119973406D01*
X114353210Y-119723306D01*
X114468319Y-119445410D01*
X114527000Y-119150396D01*
X114527000Y-118849604D01*
X114468319Y-118554590D01*
X114353210Y-118276694D01*
X114327000Y-118237468D01*
X114327000Y-118049660D01*
X118899139Y-113477523D01*
X118945410Y-113468319D01*
X119223306Y-113353210D01*
X119473406Y-113186099D01*
X119686099Y-112973406D01*
X119853210Y-112723306D01*
X119968319Y-112445410D01*
X120027000Y-112150396D01*
X120027000Y-111849604D01*
X119968319Y-111554590D01*
X119853210Y-111276694D01*
X119686099Y-111026594D01*
X119473406Y-110813901D01*
X119223306Y-110646790D01*
X118945410Y-110531681D01*
X118650396Y-110473000D01*
X118349604Y-110473000D01*
X118054590Y-110531681D01*
X117776694Y-110646790D01*
X117526594Y-110813901D01*
X117313901Y-111026594D01*
X117146790Y-111276694D01*
X117031681Y-111554590D01*
X117022477Y-111600861D01*
X112107765Y-116515575D01*
X112057130Y-116557130D01*
X112015578Y-116607762D01*
X111891302Y-116759192D01*
X111768082Y-116989722D01*
X111768081Y-116989723D01*
X111692201Y-117239864D01*
X111673000Y-117434817D01*
X111673000Y-117434826D01*
X111666581Y-117500000D01*
X111673000Y-117565174D01*
X111673000Y-118237468D01*
X111646790Y-118276694D01*
X111531681Y-118554590D01*
X111473000Y-118849604D01*
X99877000Y-118849604D01*
X99877000Y-111849604D01*
X104473000Y-111849604D01*
X104473000Y-112150396D01*
X104531681Y-112445410D01*
X104646790Y-112723306D01*
X104813901Y-112973406D01*
X105026594Y-113186099D01*
X105276694Y-113353210D01*
X105554590Y-113468319D01*
X105849604Y-113527000D01*
X106150396Y-113527000D01*
X106445410Y-113468319D01*
X106723306Y-113353210D01*
X106973406Y-113186099D01*
X107186099Y-112973406D01*
X107353210Y-112723306D01*
X107468319Y-112445410D01*
X107477523Y-112399137D01*
X110049661Y-109827000D01*
X114237468Y-109827000D01*
X114276694Y-109853210D01*
X114554590Y-109968319D01*
X114849604Y-110027000D01*
X115150396Y-110027000D01*
X115445410Y-109968319D01*
X115723306Y-109853210D01*
X115973406Y-109686099D01*
X116186099Y-109473406D01*
X116353210Y-109223306D01*
X116468319Y-108945410D01*
X116527000Y-108650396D01*
X116527000Y-108349604D01*
X116468319Y-108054590D01*
X116425484Y-107951177D01*
X116899138Y-107477523D01*
X116945410Y-107468319D01*
X117223306Y-107353210D01*
X117473406Y-107186099D01*
X117686099Y-106973406D01*
X117853210Y-106723306D01*
X117968319Y-106445410D01*
X118027000Y-106150396D01*
X118027000Y-105849604D01*
X117968319Y-105554590D01*
X117853210Y-105276694D01*
X117686099Y-105026594D01*
X117473406Y-104813901D01*
X117223306Y-104646790D01*
X116945410Y-104531681D01*
X116650396Y-104473000D01*
X116349604Y-104473000D01*
X116054590Y-104531681D01*
X115776694Y-104646790D01*
X115526594Y-104813901D01*
X115313901Y-105026594D01*
X115146790Y-105276694D01*
X115031681Y-105554590D01*
X115022477Y-105600862D01*
X114107760Y-106515579D01*
X114057131Y-106557130D01*
X113891302Y-106759192D01*
X113768081Y-106989722D01*
X113712484Y-107173000D01*
X109565171Y-107173000D01*
X109499999Y-107166581D01*
X109434828Y-107173000D01*
X109434816Y-107173000D01*
X109239863Y-107192201D01*
X108989722Y-107268081D01*
X108774075Y-107383347D01*
X108759190Y-107391303D01*
X108626743Y-107500000D01*
X108557130Y-107557130D01*
X108515579Y-107607760D01*
X105600863Y-110522477D01*
X105554590Y-110531681D01*
X105276694Y-110646790D01*
X105026594Y-110813901D01*
X104813901Y-111026594D01*
X104646790Y-111276694D01*
X104531681Y-111554590D01*
X104473000Y-111849604D01*
X99877000Y-111849604D01*
X99877000Y-100000000D01*
X99874560Y-99975224D01*
X99872238Y-99967570D01*
X99876159Y-99377000D01*
X144673001Y-99377000D01*
X144673001Y-100237473D01*
G37*
X144673001Y-100237473D02*
X144646790Y-100276700D01*
X144531681Y-100554596D01*
X144473000Y-100849610D01*
X144473000Y-101150402D01*
X144531681Y-101445416D01*
X144646790Y-101723312D01*
X144813901Y-101973412D01*
X145026594Y-102186105D01*
X145276694Y-102353216D01*
X145554590Y-102468325D01*
X145849604Y-102527006D01*
X146150396Y-102527006D01*
X146445410Y-102468325D01*
X146723306Y-102353216D01*
X146973406Y-102186105D01*
X147186099Y-101973412D01*
X147353210Y-101723312D01*
X147468319Y-101445416D01*
X147527000Y-101150402D01*
X147527000Y-100849610D01*
X147468319Y-100554596D01*
X147353210Y-100276700D01*
X147327000Y-100237474D01*
X147327000Y-99377000D01*
X155518074Y-99377000D01*
X155531681Y-99445410D01*
X155646790Y-99723306D01*
X155813901Y-99973406D01*
X156026594Y-100186099D01*
X156276694Y-100353210D01*
X156554590Y-100468319D01*
X156849604Y-100527000D01*
X157150396Y-100527000D01*
X157445410Y-100468319D01*
X157723306Y-100353210D01*
X157973406Y-100186099D01*
X158186099Y-99973406D01*
X158353210Y-99723306D01*
X158468319Y-99445410D01*
X158477523Y-99399137D01*
X158499660Y-99377000D01*
X175373000Y-99377000D01*
X175373000Y-146077070D01*
X175220843Y-146158400D01*
X175049235Y-146299235D01*
X174908400Y-146470843D01*
X174803750Y-146666629D01*
X174739307Y-146879069D01*
X174717547Y-147100000D01*
X174717547Y-148848000D01*
X99547715Y-148848000D01*
X99626498Y-136981414D01*
X104023000Y-136981414D01*
X104023000Y-137518586D01*
X104127797Y-138045437D01*
X104333364Y-138541719D01*
X104631801Y-138988361D01*
X105011639Y-139368199D01*
X105458281Y-139666636D01*
X105954563Y-139872203D01*
X106481414Y-139977000D01*
X107018586Y-139977000D01*
X107545437Y-139872203D01*
X108041719Y-139666636D01*
X108488361Y-139368199D01*
X108868199Y-138988361D01*
X109166636Y-138541719D01*
X109372203Y-138045437D01*
X109477000Y-137518586D01*
X109477000Y-136981414D01*
X169023000Y-136981414D01*
X169023000Y-137518586D01*
X169127797Y-138045437D01*
X169333364Y-138541719D01*
X169631801Y-138988361D01*
X170011639Y-139368199D01*
X170458281Y-139666636D01*
X170954563Y-139872203D01*
X171481414Y-139977000D01*
X172018586Y-139977000D01*
X172545437Y-139872203D01*
X173041719Y-139666636D01*
X173488361Y-139368199D01*
X173868199Y-138988361D01*
X174166636Y-138541719D01*
X174372203Y-138045437D01*
X174477000Y-137518586D01*
X174477000Y-136981414D01*
X174372203Y-136454563D01*
X174166636Y-135958281D01*
X173868199Y-135511639D01*
X173488361Y-135131801D01*
X173041719Y-134833364D01*
X172545437Y-134627797D01*
X172018586Y-134523000D01*
X171481414Y-134523000D01*
X170954563Y-134627797D01*
X170458281Y-134833364D01*
X170011639Y-135131801D01*
X169631801Y-135511639D01*
X169333364Y-135958281D01*
X169127797Y-136454563D01*
X169023000Y-136981414D01*
X109477000Y-136981414D01*
X109372203Y-136454563D01*
X109166636Y-135958281D01*
X108868199Y-135511639D01*
X108488361Y-135131801D01*
X108440175Y-135099604D01*
X127723000Y-135099604D01*
X127723000Y-135400396D01*
X127781681Y-135695410D01*
X127896790Y-135973306D01*
X128063901Y-136223406D01*
X128276594Y-136436099D01*
X128526694Y-136603210D01*
X128804590Y-136718319D01*
X129099604Y-136777000D01*
X129400396Y-136777000D01*
X129695410Y-136718319D01*
X129973306Y-136603210D01*
X130223406Y-136436099D01*
X130436099Y-136223406D01*
X130603210Y-135973306D01*
X130718319Y-135695410D01*
X130727523Y-135649137D01*
X132649138Y-133727523D01*
X132695410Y-133718319D01*
X132973306Y-133603210D01*
X133223406Y-133436099D01*
X133436099Y-133223406D01*
X133603210Y-132973306D01*
X133718319Y-132695410D01*
X133777000Y-132400396D01*
X133777000Y-132099604D01*
X133718319Y-131804590D01*
X133603210Y-131526694D01*
X133436099Y-131276594D01*
X133223406Y-131063901D01*
X132973306Y-130896790D01*
X132695410Y-130781681D01*
X132400396Y-130723000D01*
X132099604Y-130723000D01*
X131804590Y-130781681D01*
X131526694Y-130896790D01*
X131276594Y-131063901D01*
X131063901Y-131276594D01*
X130896790Y-131526694D01*
X130781681Y-131804590D01*
X130772477Y-131850862D01*
X128850863Y-133772477D01*
X128804590Y-133781681D01*
X128526694Y-133896790D01*
X128276594Y-134063901D01*
X128063901Y-134276594D01*
X127896790Y-134526694D01*
X127781681Y-134804590D01*
X127723000Y-135099604D01*
X108440175Y-135099604D01*
X108041719Y-134833364D01*
X107545437Y-134627797D01*
X107018586Y-134523000D01*
X106481414Y-134523000D01*
X105954563Y-134627797D01*
X105458281Y-134833364D01*
X105011639Y-135131801D01*
X104631801Y-135511639D01*
X104333364Y-135958281D01*
X104127797Y-136454563D01*
X104023000Y-136981414D01*
X99626498Y-136981414D01*
X99681965Y-128627000D01*
X99750000Y-128627000D01*
X99774776Y-128624560D01*
X99798601Y-128617333D01*
X99820557Y-128605597D01*
X99839803Y-128589803D01*
X99855597Y-128570557D01*
X99867333Y-128548601D01*
X99874560Y-128524776D01*
X99877000Y-128500000D01*
X99877000Y-121849604D01*
X115473000Y-121849604D01*
X115473000Y-122150396D01*
X115531681Y-122445410D01*
X115646790Y-122723306D01*
X115813901Y-122973406D01*
X116026594Y-123186099D01*
X116276694Y-123353210D01*
X116554590Y-123468319D01*
X116849604Y-123527000D01*
X117150396Y-123527000D01*
X117445410Y-123468319D01*
X117723306Y-123353210D01*
X117973406Y-123186099D01*
X118186099Y-122973406D01*
X118353210Y-122723306D01*
X118468319Y-122445410D01*
X118477523Y-122399137D01*
X119899138Y-120977523D01*
X119945410Y-120968319D01*
X120223306Y-120853210D01*
X120473406Y-120686099D01*
X120686099Y-120473406D01*
X120853210Y-120223306D01*
X120968319Y-119945410D01*
X121027000Y-119650396D01*
X121027000Y-119349604D01*
X120968319Y-119054590D01*
X120853210Y-118776694D01*
X120686099Y-118526594D01*
X120473406Y-118313901D01*
X120223306Y-118146790D01*
X119945410Y-118031681D01*
X119650396Y-117973000D01*
X119349604Y-117973000D01*
X119054590Y-118031681D01*
X118776694Y-118146790D01*
X118526594Y-118313901D01*
X118313901Y-118526594D01*
X118146790Y-118776694D01*
X118031681Y-119054590D01*
X118022477Y-119100862D01*
X116600863Y-120522477D01*
X116554590Y-120531681D01*
X116276694Y-120646790D01*
X116026594Y-120813901D01*
X115813901Y-121026594D01*
X115646790Y-121276694D01*
X115531681Y-121554590D01*
X115473000Y-121849604D01*
X99877000Y-121849604D01*
X99877000Y-118849604D01*
X111473000Y-118849604D01*
X111473000Y-119150396D01*
X111531681Y-119445410D01*
X111646790Y-119723306D01*
X111813901Y-119973406D01*
X112026594Y-120186099D01*
X112276694Y-120353210D01*
X112554590Y-120468319D01*
X112849604Y-120527000D01*
X113150396Y-120527000D01*
X113445410Y-120468319D01*
X113723306Y-120353210D01*
X113973406Y-120186099D01*
X114186099Y-119973406D01*
X114353210Y-119723306D01*
X114468319Y-119445410D01*
X114527000Y-119150396D01*
X114527000Y-118849604D01*
X114468319Y-118554590D01*
X114353210Y-118276694D01*
X114327000Y-118237468D01*
X114327000Y-118049660D01*
X118899139Y-113477523D01*
X118945410Y-113468319D01*
X119223306Y-113353210D01*
X119473406Y-113186099D01*
X119686099Y-112973406D01*
X119853210Y-112723306D01*
X119968319Y-112445410D01*
X120027000Y-112150396D01*
X120027000Y-111849604D01*
X119968319Y-111554590D01*
X119853210Y-111276694D01*
X119686099Y-111026594D01*
X119473406Y-110813901D01*
X119223306Y-110646790D01*
X118945410Y-110531681D01*
X118650396Y-110473000D01*
X118349604Y-110473000D01*
X118054590Y-110531681D01*
X117776694Y-110646790D01*
X117526594Y-110813901D01*
X117313901Y-111026594D01*
X117146790Y-111276694D01*
X117031681Y-111554590D01*
X117022477Y-111600861D01*
X112107765Y-116515575D01*
X112057130Y-116557130D01*
X112015578Y-116607762D01*
X111891302Y-116759192D01*
X111768082Y-116989722D01*
X111768081Y-116989723D01*
X111692201Y-117239864D01*
X111673000Y-117434817D01*
X111673000Y-117434826D01*
X111666581Y-117500000D01*
X111673000Y-117565174D01*
X111673000Y-118237468D01*
X111646790Y-118276694D01*
X111531681Y-118554590D01*
X111473000Y-118849604D01*
X99877000Y-118849604D01*
X99877000Y-111849604D01*
X104473000Y-111849604D01*
X104473000Y-112150396D01*
X104531681Y-112445410D01*
X104646790Y-112723306D01*
X104813901Y-112973406D01*
X105026594Y-113186099D01*
X105276694Y-113353210D01*
X105554590Y-113468319D01*
X105849604Y-113527000D01*
X106150396Y-113527000D01*
X106445410Y-113468319D01*
X106723306Y-113353210D01*
X106973406Y-113186099D01*
X107186099Y-112973406D01*
X107353210Y-112723306D01*
X107468319Y-112445410D01*
X107477523Y-112399137D01*
X110049661Y-109827000D01*
X114237468Y-109827000D01*
X114276694Y-109853210D01*
X114554590Y-109968319D01*
X114849604Y-110027000D01*
X115150396Y-110027000D01*
X115445410Y-109968319D01*
X115723306Y-109853210D01*
X115973406Y-109686099D01*
X116186099Y-109473406D01*
X116353210Y-109223306D01*
X116468319Y-108945410D01*
X116527000Y-108650396D01*
X116527000Y-108349604D01*
X116468319Y-108054590D01*
X116425484Y-107951177D01*
X116899138Y-107477523D01*
X116945410Y-107468319D01*
X117223306Y-107353210D01*
X117473406Y-107186099D01*
X117686099Y-106973406D01*
X117853210Y-106723306D01*
X117968319Y-106445410D01*
X118027000Y-106150396D01*
X118027000Y-105849604D01*
X117968319Y-105554590D01*
X117853210Y-105276694D01*
X117686099Y-105026594D01*
X117473406Y-104813901D01*
X117223306Y-104646790D01*
X116945410Y-104531681D01*
X116650396Y-104473000D01*
X116349604Y-104473000D01*
X116054590Y-104531681D01*
X115776694Y-104646790D01*
X115526594Y-104813901D01*
X115313901Y-105026594D01*
X115146790Y-105276694D01*
X115031681Y-105554590D01*
X115022477Y-105600862D01*
X114107760Y-106515579D01*
X114057131Y-106557130D01*
X113891302Y-106759192D01*
X113768081Y-106989722D01*
X113712484Y-107173000D01*
X109565171Y-107173000D01*
X109499999Y-107166581D01*
X109434828Y-107173000D01*
X109434816Y-107173000D01*
X109239863Y-107192201D01*
X108989722Y-107268081D01*
X108774075Y-107383347D01*
X108759190Y-107391303D01*
X108626743Y-107500000D01*
X108557130Y-107557130D01*
X108515579Y-107607760D01*
X105600863Y-110522477D01*
X105554590Y-110531681D01*
X105276694Y-110646790D01*
X105026594Y-110813901D01*
X104813901Y-111026594D01*
X104646790Y-111276694D01*
X104531681Y-111554590D01*
X104473000Y-111849604D01*
X99877000Y-111849604D01*
X99877000Y-100000000D01*
X99874560Y-99975224D01*
X99872238Y-99967570D01*
X99876159Y-99377000D01*
X144673001Y-99377000D01*
X144673001Y-100237473D01*
M02*
