M48
; DRILL file {KiCad (5.1.5)-3} date 10-May-21 18:36:01
; FORMAT={-:-/ absolute / metric / decimal}
; #@! TF.CreationDate,2021-05-10T18:36:01+02:00
; #@! TF.GenerationSoftware,Kicad,Pcbnew,(5.1.5)-3
; #@! TF.FileFunction,Plated,1,2,PTH
FMAT,2
METRIC
T1C0.400
T2C0.900
T3C1.000
%
G90
G05
T1
X101.0Y-100.0
X105.0Y-129.0
X106.0Y-112.0
X107.0Y-101.0
X113.0Y-119.0
X115.0Y-108.5
X116.5Y-106.0
X117.0Y-122.0
X118.5Y-112.0
X119.5Y-119.5
X129.25Y-135.25
X132.25Y-132.25
X137.0Y-127.0
X146.0Y-97.0
X146.0Y-101.0
X151.0Y-91.0
X151.0Y-92.0
X152.0Y-91.0
X152.0Y-92.0
X152.0Y-107.0
X152.0Y-108.0
X153.0Y-91.0
X153.0Y-92.0
X153.0Y-107.0
X153.0Y-108.0
X154.0Y-91.0
X154.0Y-92.0
X154.0Y-107.0
X154.0Y-108.0
X155.0Y-107.0
X155.0Y-108.0
X157.0Y-99.0
X158.0Y-85.0
X160.0Y-129.0
X165.0Y-122.0
X166.0Y-97.0
X167.0Y-83.0
X174.0Y-123.5
X181.0Y-97.5
X182.5Y-96.5
T2
X176.75Y-82.0
X179.29Y-82.0
X73.75Y-129.5
X76.29Y-129.5
X191.75Y-101.0
X194.29Y-101.0
X69.75Y-85.0
X72.29Y-85.0
X176.75Y-148.0
X179.29Y-148.0
X69.75Y-145.0
X72.29Y-145.0
X79.75Y-90.0
X82.29Y-90.0
X88.75Y-82.0
X91.29Y-82.0
X88.75Y-148.0
X91.29Y-148.0
X73.75Y-101.0
X76.29Y-101.0
X185.75Y-90.0
X188.29Y-90.0
X79.75Y-140.0
X82.29Y-140.0
X195.75Y-145.0
X198.29Y-145.0
X191.75Y-129.0
X194.29Y-129.0
X196.21Y-85.0
X198.75Y-85.0
X185.75Y-140.0
X188.29Y-140.0
T3
G00X196.0Y-91.5
M15
G01X194.0Y-91.5
M16
G05
G00X199.7Y-87.5
M15
G01X199.7Y-89.5
M16
G05
T0
M30
